<svg width="92" height="30" viewBox="0 0 92 30" fill="none" xmlns="http://www.w3.org/2000/svg">
<path fill-rule="evenodd" clip-rule="evenodd" d="M5.21795 3.42654C4.05841 3.42654 2.98371 3.81043 2.12112 4.45024V1.06635C2.12112 0.483416 1.64033 0 1.06056 0C0.480787 0 0 0.483416 0 1.06635V8.67299C0 11.5735 2.33323 13.9194 5.21795 13.9194C8.10267 13.9194 10.4359 11.5735 10.4359 8.67299C10.4359 5.77251 8.10267 3.42654 5.21795 3.42654ZM5.21795 11.8152C3.49277 11.8152 2.09284 10.4076 2.09284 8.67299C2.09284 6.93839 3.49277 5.53081 5.21795 5.53081C6.94313 5.53081 8.34307 6.93839 8.34307 8.67299C8.34307 10.4076 6.94313 11.8152 5.21795 11.8152Z" fill="#797E8A"/>
<path fill-rule="evenodd" clip-rule="evenodd" d="M85.5377 2.27488C81.9742 2.27488 79.0753 5.18957 79.0753 8.77251C79.0753 12.3555 81.9742 15.2701 85.5377 15.2701C89.1011 15.2701 92 12.3555 92 8.77251C92 5.17536 89.1011 2.27488 85.5377 2.27488ZM88.9032 9.82464H86.5982V12.1422C86.5982 12.7251 86.1174 13.2085 85.5377 13.2085C84.9579 13.2085 84.4771 12.7251 84.4771 12.1422V9.82464H82.1721C81.5924 9.82464 81.1116 9.34123 81.1116 8.75829C81.1116 8.17536 81.5924 7.69194 82.1721 7.69194H84.4771V5.37441C84.4771 4.79147 84.9579 4.30806 85.5377 4.30806C86.1174 4.30806 86.5982 4.79147 86.5982 5.37441V7.69194H88.9032C89.4829 7.69194 89.9637 8.17536 89.9637 8.75829C89.9637 9.34123 89.4829 9.82464 88.9032 9.82464Z" fill="#797E8A"/>
<path d="M23.2333 6.54034C23.2333 4.54982 24.9302 3.39816 26.3725 3.39816H30.4027C30.9824 3.39816 31.4491 3.85314 31.4491 4.4503C31.4491 5.14697 30.8552 5.50242 30.4027 5.50242H26.3867C25.7079 5.50242 25.3403 6.05693 25.3403 6.54034C25.3403 7.03797 25.6938 7.60669 26.3867 7.60669H28.833C30.7279 7.60669 31.9723 9.19911 31.9723 10.7489C31.9723 12.3555 30.7845 13.9337 28.833 13.9337H24.8312C24.1666 13.9337 23.7706 13.3792 23.7706 12.8674C23.7706 12.3129 24.1949 11.801 24.8171 11.801H28.7906C29.4835 11.801 29.8229 11.1612 29.8229 10.7631C29.8229 10.3792 29.5118 9.73939 28.7906 9.73939H26.3725C25.2837 9.72517 23.2333 8.85788 23.2333 6.54034Z" fill="#797E8A"/>
<path d="M58.656 6.54034C58.656 4.54982 60.3529 3.39816 61.7952 3.39816H65.8112C66.391 3.39816 66.8576 3.85314 66.8576 4.4503C66.8576 5.14697 66.2637 5.50242 65.8112 5.50242H61.7952C61.1165 5.50242 60.7488 6.05693 60.7488 6.54034C60.7488 7.03797 61.1023 7.60669 61.7952 7.60669H64.2416C66.1364 7.60669 67.3808 9.19911 67.3808 10.7489C67.3808 12.3555 66.193 13.9337 64.2416 13.9337H60.2397C59.561 13.9337 59.1792 13.3792 59.1792 12.8674C59.1792 12.3129 59.6034 11.801 60.2256 11.801H64.1992C64.8921 11.801 65.2314 11.1612 65.2314 10.7631C65.2314 10.3792 64.9203 9.73939 64.1992 9.73939H61.7952C60.6922 9.72517 58.656 8.85788 58.656 6.54034Z" fill="#797E8A"/>
<path d="M70.9302 3.39816C69.4878 3.39816 67.7909 4.54982 67.7909 6.54034C67.7909 8.85788 69.8272 9.72517 70.9302 9.73939H73.3483C74.0694 9.73939 74.3805 10.3792 74.3805 10.7631C74.3805 11.1612 74.0412 11.801 73.3483 11.801H69.3747C68.7525 11.801 68.3283 12.3129 68.3283 12.8674C68.3283 13.3792 68.7101 13.9337 69.3888 13.9337H73.3907C75.3421 13.9337 76.5299 12.3555 76.5299 10.7489C76.5299 9.19911 75.2855 7.60669 73.3907 7.60669H70.9302C70.2373 7.60669 69.8838 7.03797 69.8838 6.54034C69.8838 6.05693 70.2514 5.50242 70.9302 5.50242H74.9462C75.3987 5.50242 75.9926 5.14697 75.9926 4.4503C75.9926 3.85314 75.5259 3.39816 74.9462 3.39816H70.9302Z" fill="#797E8A"/>
<path d="M33.2025 4.46451C33.2025 3.88158 33.6833 3.39816 34.2631 3.39816C34.8429 3.39816 35.3237 3.88158 35.3237 4.46451V12.8531C35.3237 13.4361 34.8429 13.9195 34.2631 13.9195C33.6833 13.9195 33.2025 13.4361 33.2025 12.8531V4.46451Z" fill="#797E8A"/>
<path fill-rule="evenodd" clip-rule="evenodd" d="M33.443 20.5308C34.3056 19.8909 35.3803 19.5071 36.5398 19.5071C39.4245 19.5071 41.7577 21.853 41.7577 24.7535C41.7577 27.654 39.4245 29.9999 36.5398 29.9999C33.6551 29.9999 31.3218 27.654 31.3218 24.7535V17.1469C31.3218 16.5639 31.8026 16.0805 32.3824 16.0805C32.9622 16.0805 33.443 16.5639 33.443 17.1469V20.5308ZM33.4147 24.7535C33.4147 26.4881 34.8146 27.8957 36.5398 27.8957C38.265 27.8957 39.6508 26.4881 39.6649 24.7535C39.6649 23.0189 38.265 21.6113 36.5398 21.6113C34.8146 21.6113 33.4147 23.0189 33.4147 24.7535Z" fill="#797E8A"/>
<path d="M20.9991 3.39816C20.4193 3.39816 19.9385 3.88158 19.9385 4.46451L19.9527 8.74413C19.9103 10.4361 18.5386 11.7868 16.8417 11.7868C15.1448 11.7868 13.7732 10.4361 13.7307 8.74413L13.7449 4.46451C13.7449 3.88158 13.2641 3.39816 12.6843 3.39816C12.1045 3.39816 11.6238 3.88158 11.6238 4.46451V8.74413C11.6662 11.602 13.9853 13.9195 16.8417 13.9195C19.6981 13.9195 22.0172 11.6162 22.0597 8.74413V4.46451C22.0597 3.88158 21.5789 3.39816 20.9991 3.39816Z" fill="#797E8A"/>
<path d="M16.6296 20.545C16.6296 19.9621 17.1104 19.4787 17.6901 19.4787C18.2699 19.4787 18.7507 19.9621 18.7507 20.545V24.8246C18.7083 27.6967 16.3892 30 13.5327 30C11.8358 30 10.3228 29.1896 9.37534 27.9242C8.42791 29.1896 6.91484 30 5.21795 30C2.36151 30 0.0424228 27.6967 0 24.8246V20.545C0 19.9621 0.480787 19.4787 1.06056 19.4787C1.64033 19.4787 2.12112 19.9621 2.12112 20.545L2.10698 24.8246C2.1494 26.5166 3.52106 27.8673 5.21795 27.8673C6.88656 27.8673 8.24408 26.545 8.31478 24.8957V20.545C8.31478 19.9621 8.79557 19.4787 9.37534 19.4787C9.95512 19.4787 10.4359 19.9621 10.4359 20.545V24.8957C10.5066 26.545 11.8641 27.8673 13.5327 27.8673C15.2296 27.8673 16.6013 26.5166 16.6437 24.8246L16.6296 20.545Z" fill="#797E8A"/>
<path d="M37.6287 13.9195C38.2084 13.9195 38.6892 13.4361 38.6892 12.8531L38.6751 8.57352C38.7175 6.88157 40.0891 5.53086 41.786 5.53086C43.4829 5.53086 44.8546 6.88157 44.897 8.57352L44.8829 12.8531C44.8829 13.4361 45.3637 13.9195 45.9434 13.9195C46.5232 13.9195 47.004 13.4361 47.004 12.8531V8.57352C46.9616 5.71569 44.6425 3.39816 41.786 3.39816C38.9296 3.39816 36.6105 5.70148 36.5681 8.57352V12.8531C36.5681 13.4361 37.0347 13.9195 37.6287 13.9195Z" fill="#797E8A"/>
<path d="M35.3237 1.1659C35.3237 1.75484 34.8488 2.23226 34.2631 2.23226C33.6774 2.23226 33.2025 1.75484 33.2025 1.1659C33.2025 0.576973 33.6774 0.0995538 34.2631 0.0995538C34.8488 0.0995538 35.3237 0.576973 35.3237 1.1659Z" fill="#797E8A"/>
<path fill-rule="evenodd" clip-rule="evenodd" d="M57.7651 9.73934C57.2843 9.41232 56.6197 9.54028 56.2945 10.0237C56.2938 10.0243 56.2908 10.0284 56.2854 10.0356C56.17 10.1901 54.9777 11.7867 53.4239 11.7867C52.9572 11.7867 52.5047 11.673 52.0946 11.4882L57.1005 6.46919C57.5106 6.05687 57.5106 5.37441 57.1005 4.96209L57.0847 4.94617C56.7745 4.63355 55.563 3.41232 53.4097 3.41232C50.525 3.41232 48.1918 5.75829 48.1918 8.65877C48.1918 11.5592 50.525 13.9052 53.4097 13.9052C56.2625 13.9052 57.8983 11.4301 58.0436 11.2103L58.0479 11.2038C58.3873 10.7346 58.26 10.0663 57.7651 9.73934ZM50.3129 8.67299C50.3129 6.95261 51.6987 5.54502 53.4239 5.54502C53.8905 5.54502 54.343 5.64455 54.739 5.8436L50.6099 9.98104C50.426 9.58294 50.3129 9.14218 50.3129 8.67299Z" fill="#797E8A"/>
<path fill-rule="evenodd" clip-rule="evenodd" d="M28.1684 26.1042C28.4937 25.6208 29.1583 25.4928 29.6391 25.8199C30.134 26.1469 30.2613 26.8151 29.9219 27.2843L29.9176 27.2909C29.7722 27.5108 28.1364 29.9857 25.2837 29.9857C22.399 29.9857 20.0658 27.6398 20.0658 24.7393C20.0658 21.8388 22.399 19.4928 25.2837 19.4928C27.4369 19.4928 28.6485 20.7141 28.9587 21.0267L28.9745 21.0426C29.3845 21.4549 29.3845 22.1374 28.9745 22.5497L23.9686 27.5687C24.3787 27.7535 24.8312 27.8672 25.2979 27.8672C26.8517 27.8672 28.0441 26.2705 28.1594 26.1161L28.1656 26.1078C28.1672 26.1057 28.1681 26.1045 28.1684 26.1042ZM25.2979 21.6255C23.5727 21.6255 22.1869 23.0331 22.1869 24.7535C22.1869 25.2227 22.3 25.6635 22.4838 26.0616L26.6129 21.9241C26.217 21.7251 25.7645 21.6255 25.2979 21.6255Z" fill="#797E8A"/>
<path d="M49.6907 22.9479C49.5493 23.147 49.3513 23.3176 49.1109 23.4456C48.8706 23.5735 48.5877 23.6304 48.2625 23.6304C47.9797 23.6304 47.711 23.5877 47.4706 23.4882C47.2302 23.3887 47.0181 23.2607 46.8484 23.0759C46.6787 22.9053 46.5373 22.692 46.4383 22.4503C46.3394 22.2086 46.2969 21.9384 46.2969 21.6541C46.2969 21.3555 46.3535 21.0854 46.4525 20.8437C46.5515 20.602 46.6929 20.3887 46.8767 20.2181C47.0605 20.0474 47.2726 19.9053 47.513 19.82C47.7534 19.7204 48.0221 19.6778 48.3049 19.6778C48.4322 19.6778 48.5595 19.692 48.6867 19.7204C48.814 19.7489 48.9413 19.7773 49.0685 19.8342C49.1817 19.8768 49.2948 19.9479 49.3938 20.019C49.4927 20.0901 49.5776 20.1754 49.6483 20.2749L49.2382 20.5877C49.1534 20.4598 49.012 20.3603 48.8423 20.2749C48.6726 20.1896 48.4888 20.147 48.3049 20.147C48.0928 20.147 47.8948 20.1896 47.711 20.2607C47.5413 20.346 47.3858 20.4456 47.2585 20.5877C47.1312 20.7299 47.0464 20.8863 46.9757 21.0712C46.905 21.256 46.8767 21.455 46.8767 21.6541C46.8767 21.8674 46.905 22.0664 46.9757 22.2512C47.0464 22.4361 47.1312 22.5925 47.2585 22.7347C47.3858 22.8768 47.5272 22.9764 47.6969 23.0617C47.8666 23.147 48.0645 23.1754 48.2766 23.1754C48.4888 23.1754 48.6867 23.1328 48.8564 23.0474C49.0261 22.9621 49.1675 22.8342 49.2806 22.6778L49.6907 22.9479Z" fill="#797E8A"/>
<path fill-rule="evenodd" clip-rule="evenodd" d="M52.5754 22.8057C52.6461 22.635 52.6744 22.4644 52.6744 22.2654C52.6744 22.0663 52.632 21.8815 52.5754 21.7251C52.5047 21.5687 52.4199 21.4265 52.2926 21.3128C52.1654 21.199 52.024 21.1137 51.8543 21.0426C51.6846 20.9715 51.5007 20.9431 51.3169 20.9431C51.1189 20.9431 50.9493 20.9715 50.7796 21.0426C50.624 21.0995 50.4685 21.199 50.3553 21.3128C50.2422 21.4265 50.1432 21.5687 50.0725 21.7251C50.0018 21.8957 49.9735 22.0663 49.9735 22.2654C49.9735 22.4644 50.0018 22.6493 50.0725 22.8057C50.1432 22.9763 50.2422 23.1185 50.3553 23.2322C50.4685 23.3459 50.6099 23.4313 50.7796 23.5023C50.9493 23.5734 51.1331 23.6019 51.3169 23.6019C51.5149 23.6019 51.6846 23.5734 51.8543 23.5023C52.024 23.4455 52.1654 23.3459 52.2926 23.2322C52.4058 23.1042 52.5047 22.9621 52.5754 22.8057ZM52.0947 21.9241C52.1371 22.0237 52.1512 22.1516 52.1512 22.2654C52.1512 22.3791 52.1371 22.4929 52.0947 22.6066C52.0664 22.7204 52.0098 22.8199 51.9391 22.9052C51.8684 22.9905 51.7694 23.0616 51.6704 23.1042C51.5714 23.1469 51.4583 23.1753 51.3169 23.1753C51.1896 23.1753 51.0624 23.1469 50.9634 23.1042C50.8503 23.0616 50.7654 22.9905 50.6947 22.9052C50.624 22.8199 50.5816 22.7204 50.5392 22.6066C50.4967 22.5071 50.4826 22.3791 50.4826 22.2654C50.4826 22.1516 50.4967 22.0379 50.5392 21.9241C50.5675 21.8246 50.624 21.7251 50.6947 21.6398C50.7654 21.5545 50.8644 21.4834 50.9634 21.4407C51.0624 21.3981 51.1755 21.3696 51.3169 21.3696C51.4442 21.3696 51.5714 21.3981 51.6704 21.4407C51.7836 21.4834 51.8684 21.5545 51.9391 21.6398C52.0098 21.7251 52.0522 21.8104 52.0947 21.9241Z" fill="#797E8A"/>
<path d="M54.1451 21.0711C54.2865 20.9716 54.4562 20.9289 54.64 20.9289C54.8097 20.9289 54.9652 20.9716 55.0925 21.0427C55.2198 21.1138 55.3329 21.256 55.4177 21.4266C55.5026 21.2702 55.6157 21.1422 55.7712 21.0569C55.9268 20.9716 56.0823 20.9289 56.2662 20.9289C56.4217 20.9289 56.5631 20.9574 56.6904 21.0142C56.8035 21.0711 56.9025 21.1422 56.9874 21.2417C57.0581 21.3413 57.1288 21.4408 57.157 21.5687C57.1995 21.6967 57.2136 21.8247 57.2136 21.9669V23.5308H56.7187V22.1375C56.7187 22.038 56.7045 21.9384 56.6904 21.8389C56.6763 21.7536 56.648 21.6683 56.6056 21.5972C56.5631 21.5261 56.5066 21.4692 56.4359 21.4266C56.3652 21.3839 56.2803 21.3697 56.1672 21.3697C56.0541 21.3697 55.9551 21.3981 55.8702 21.4408C55.7854 21.4834 55.7288 21.5545 55.6723 21.6256C55.6157 21.6967 55.5874 21.782 55.5591 21.8815C55.5308 21.9811 55.5309 22.0806 55.5309 22.1801V23.5451H55.0359V22.038C55.0359 21.9384 55.0218 21.8531 55.0076 21.7678C54.9935 21.6825 54.9652 21.6114 54.9228 21.5545C54.8804 21.4977 54.8238 21.455 54.7531 21.4124C54.6824 21.3839 54.5976 21.3555 54.4986 21.3555C54.3147 21.3555 54.1592 21.4266 54.0461 21.583C53.9188 21.7394 53.8622 21.9384 53.8622 22.1801V23.5166H53.3673V21.2844C53.3673 21.2327 53.3635 21.181 53.3598 21.1313C53.3591 21.122 53.3585 21.1128 53.3578 21.1037C53.3564 21.0839 53.3552 21.0645 53.3543 21.0456C53.3536 21.0301 53.3532 21.0148 53.3532 21H53.8198C53.8198 21.0072 53.82 21.0148 53.8204 21.0228C53.8209 21.0312 53.8214 21.0399 53.8222 21.049C53.8233 21.0637 53.8248 21.0792 53.8263 21.0951C53.83 21.1343 53.834 21.1758 53.834 21.2133V21.4124H53.8481C53.9047 21.2844 54.0178 21.1706 54.1451 21.0711Z" fill="#797E8A"/>
<path fill-rule="evenodd" clip-rule="evenodd" d="M58.0621 24.8105H58.5429V23.1754H58.557C58.656 23.3176 58.7833 23.4313 58.9388 23.5024C59.0944 23.5735 59.2641 23.6162 59.4479 23.6162C59.6459 23.6162 59.8156 23.5877 59.9711 23.5166C60.1266 23.4456 60.2539 23.346 60.367 23.2323C60.4802 23.1043 60.565 22.9621 60.6216 22.8057C60.6781 22.6351 60.7064 22.4645 60.7064 22.2797C60.7064 22.1091 60.6781 21.9242 60.6216 21.7678C60.565 21.5972 60.4802 21.455 60.367 21.3413C60.2539 21.2133 60.1266 21.128 59.9711 21.0569C59.8156 20.9858 59.6459 20.9574 59.462 20.9574C59.2499 20.9574 59.0661 21.0001 58.9105 21.0854C58.755 21.1707 58.6419 21.2844 58.557 21.4124H58.5429V21.0143H58.0621V24.8105ZM60.1408 21.9242C60.1832 22.038 60.1973 22.1517 60.1973 22.2655C60.1973 22.3792 60.1832 22.493 60.1408 22.5925C60.1125 22.7062 60.0559 22.8057 59.9852 22.891C59.9145 22.9764 59.8155 23.0332 59.7166 23.0901C59.6034 23.1328 59.4903 23.1612 59.3489 23.1612C59.2216 23.1612 59.0944 23.1328 58.9954 23.0901C58.8964 23.0474 58.7974 22.9764 58.7267 22.891C58.656 22.82 58.5994 22.7204 58.557 22.6067C58.5146 22.5072 58.5005 22.3792 58.5005 22.2655C58.5005 22.1517 58.5146 22.038 58.557 21.9242C58.5994 21.8105 58.656 21.711 58.7267 21.6256C58.7974 21.5403 58.8964 21.4692 58.9954 21.4266C59.1085 21.3839 59.2216 21.3555 59.3489 21.3555C59.4903 21.3555 59.6176 21.3839 59.7166 21.4266C59.8297 21.4692 59.9145 21.5403 59.9852 21.6256C60.0559 21.711 60.0984 21.8105 60.1408 21.9242Z" fill="#797E8A"/>
<path d="M61.3967 21.2021C61.3953 21.1782 61.3936 21.1545 61.3918 21.1313C61.3884 21.0853 61.3852 21.041 61.3852 21H61.8518C61.8518 21.0256 61.8547 21.0569 61.8578 21.0914C61.8598 21.1131 61.8619 21.1361 61.8635 21.1597L61.864 21.1675L61.8645 21.1761C61.8654 21.1931 61.866 21.2103 61.866 21.2275V21.4266H61.8801C61.9508 21.2844 62.0498 21.1564 62.1912 21.0711C62.3326 20.9858 62.474 20.9289 62.6437 20.9289C62.7144 20.9289 62.7851 20.9432 62.8417 20.9574L62.8134 21.4266C62.7427 21.4124 62.672 21.3981 62.5871 21.3981C62.474 21.3981 62.3609 21.4266 62.276 21.4692C62.1912 21.5119 62.1205 21.5687 62.0498 21.6541C61.9932 21.7251 61.9508 21.8104 61.9225 21.91C61.8942 22.0095 61.8801 22.109 61.8801 22.2228V23.5451H61.3852V21.5687C61.4135 21.4834 61.4135 21.3981 61.3993 21.2844C61.3993 21.2695 61.399 21.2545 61.3985 21.2397C61.398 21.2271 61.3974 21.2145 61.3967 21.2021Z" fill="#797E8A"/>
<path fill-rule="evenodd" clip-rule="evenodd" d="M65.6698 22.8057C65.7405 22.635 65.7688 22.4644 65.7688 22.2654C65.7688 22.0663 65.7405 21.8815 65.6698 21.7251C65.5991 21.5687 65.5143 21.4265 65.387 21.3128C65.2739 21.199 65.1325 21.1137 64.9628 21.0426C64.7931 20.9715 64.6093 20.9431 64.4255 20.9431C64.2275 20.9431 64.0578 20.9715 63.8881 21.0426C63.7325 21.0995 63.577 21.199 63.4639 21.3128C63.3507 21.4265 63.2518 21.5687 63.1811 21.7251C63.1103 21.8957 63.0821 22.0663 63.0821 22.2654C63.0821 22.4644 63.1103 22.6493 63.1811 22.8057C63.2518 22.9763 63.3507 23.1185 63.4639 23.2322C63.577 23.3459 63.7184 23.4313 63.8881 23.5023C64.0578 23.5734 64.2416 23.6019 64.4255 23.6019C64.6234 23.6019 64.7931 23.5734 64.9628 23.5023C65.1183 23.4455 65.2598 23.3459 65.387 23.2322C65.5001 23.1042 65.5991 22.9621 65.6698 22.8057ZM65.1891 21.9241C65.2315 22.0237 65.2456 22.1516 65.2456 22.2654C65.2456 22.3791 65.2315 22.4929 65.1891 22.6066C65.1608 22.7204 65.1042 22.8199 65.0335 22.9052C64.9628 22.9905 64.8638 23.0616 64.7648 23.1042C64.6658 23.1469 64.5527 23.1753 64.4113 23.1753C64.284 23.1753 64.1568 23.1469 64.0578 23.1042C63.9447 23.0616 63.8598 22.9905 63.7891 22.9052C63.7275 22.8309 63.6874 22.735 63.65 22.6457L63.6421 22.6267C63.6392 22.62 63.6364 22.6132 63.6336 22.6066C63.5911 22.5071 63.577 22.3791 63.577 22.2654C63.577 22.1516 63.5911 22.0379 63.6336 21.9241C63.6618 21.8246 63.7184 21.7251 63.7891 21.6398C63.8598 21.5545 63.9588 21.4834 64.0578 21.4407C64.1568 21.3981 64.2699 21.3696 64.4113 21.3696C64.5386 21.3696 64.6658 21.3981 64.7648 21.4407C64.878 21.4834 64.9628 21.5545 65.0335 21.6398C65.1042 21.7251 65.1466 21.8104 65.1891 21.9241Z" fill="#797E8A"/>
<path d="M67.2536 21.0711C67.395 20.9716 67.5647 20.9289 67.7485 20.9289C67.9182 20.9289 68.0737 20.9716 68.201 21.0427C68.3424 21.1138 68.4414 21.256 68.5263 21.4266C68.6111 21.2702 68.7242 21.1422 68.8798 21.0569C69.0353 20.9716 69.1909 20.9289 69.3747 20.9289C69.5302 20.9289 69.6717 20.9574 69.7989 21.0142C69.912 21.0711 70.011 21.1422 70.0959 21.2417C70.1666 21.3413 70.2373 21.4408 70.2656 21.5687C70.308 21.6967 70.3221 21.8247 70.3221 21.9669V23.5308H69.8272V22.1375C69.8272 22.038 69.8131 21.9384 69.7989 21.8389C69.7848 21.7536 69.7565 21.6683 69.7141 21.5972C69.6717 21.5261 69.6151 21.4692 69.5444 21.4266C69.4737 21.3839 69.3888 21.3697 69.2757 21.3697C69.1626 21.3697 69.0636 21.3981 68.9788 21.4408C68.8939 21.4834 68.8373 21.5545 68.7808 21.6256C68.7242 21.6967 68.6959 21.782 68.6677 21.8815C68.6394 21.9811 68.6394 22.0806 68.6394 22.1801V23.5451H68.1444V22.038C68.1444 21.9384 68.1303 21.8531 68.1162 21.7678C68.102 21.6825 68.0737 21.6114 68.0313 21.5545C67.9889 21.4977 67.9323 21.455 67.8616 21.4124C67.7909 21.3839 67.7061 21.3555 67.6071 21.3555C67.4233 21.3555 67.2677 21.4266 67.1546 21.583C67.0273 21.7394 66.9708 21.9384 66.9708 22.1801V23.5166H66.4617V21.2844C66.4617 21.2327 66.4579 21.181 66.4542 21.1313C66.4508 21.0853 66.4476 21.041 66.4476 21H66.9142C66.9142 21.0269 66.9174 21.0601 66.9207 21.0951L66.9207 21.0953C66.9244 21.1344 66.9283 21.1758 66.9283 21.2133V21.4124H66.9425C67.0132 21.2844 67.1122 21.1706 67.2536 21.0711Z" fill="#797E8A"/>
<path fill-rule="evenodd" clip-rule="evenodd" d="M73.5038 22.2512C73.5038 22.0379 73.4755 21.8673 73.4331 21.6967C73.3765 21.5403 73.2917 21.3981 73.1927 21.2843C73.0937 21.1706 72.9664 21.0853 72.8109 21.0284C72.6695 20.9715 72.4998 20.9431 72.316 20.9431C72.1321 20.9431 71.9624 20.9715 71.8069 21.0426C71.6514 21.0995 71.5099 21.199 71.3968 21.3128C71.2837 21.4265 71.1988 21.5687 71.1281 21.7393C71.0574 21.9099 71.0292 22.0805 71.0292 22.2796C71.0292 22.4787 71.0574 22.6635 71.1281 22.8199C71.1847 22.9763 71.2837 23.1185 71.3968 23.2322C71.5241 23.3459 71.6655 23.4455 71.821 23.5023C71.9766 23.5734 72.1604 23.6019 72.3443 23.6019C72.5705 23.6019 72.7685 23.5592 72.9523 23.4739C73.122 23.3886 73.2917 23.2606 73.419 23.0758L73.0654 22.7914C72.9947 22.891 72.8957 22.9905 72.7685 23.0616C72.6412 23.1327 72.4998 23.1753 72.3301 23.1753C72.217 23.1753 72.118 23.1611 72.019 23.1185C71.92 23.09 71.8352 23.0331 71.7645 22.9621C71.6796 22.891 71.6231 22.8199 71.5807 22.7204C71.5382 22.6208 71.5099 22.5213 71.5099 22.4218H73.5038V22.2512ZM72.9382 21.7535C72.9806 21.8388 72.9947 21.9384 72.9947 22.0379H71.5099C71.5099 21.9384 71.5382 21.8388 71.5807 21.7535C71.6231 21.6682 71.6796 21.5971 71.7503 21.526C71.821 21.4549 71.8917 21.4123 71.9907 21.3696C72.0756 21.327 72.1887 21.3128 72.2877 21.3128C72.415 21.3128 72.5139 21.327 72.5988 21.3696C72.6836 21.4123 72.7543 21.4692 72.8109 21.526C72.8675 21.5971 72.8957 21.6682 72.9382 21.7535Z" fill="#797E8A"/>
<path d="M75.4128 21.4123H74.7482V22.7203C74.7482 22.8767 74.7765 22.9762 74.8331 23.0473C74.8896 23.1184 74.9745 23.1469 75.1018 23.1469C75.1442 23.1469 75.2007 23.1469 75.2432 23.1326C75.2997 23.1184 75.3421 23.1042 75.3846 23.09L75.3987 23.5023C75.3421 23.5308 75.2714 23.545 75.2007 23.5592C75.13 23.5734 75.0593 23.5734 74.9745 23.5734C74.7341 23.5734 74.5503 23.5023 74.4371 23.3744C74.3099 23.2464 74.2533 23.0473 74.2533 22.7772V21.4123H73.7725V20.9999H74.2533V20.2748H74.7482V20.9999H75.4128V21.4123Z" fill="#797E8A"/>
<path d="M76.4168 20.3176C76.4875 20.2607 76.5158 20.1896 76.5158 20.0901C76.5158 20.0048 76.4734 19.9337 76.4168 19.8484C76.3461 19.7773 76.2613 19.7489 76.1764 19.7489C76.0916 19.7489 76.0067 19.7915 75.9502 19.8484C75.8795 19.9053 75.8512 19.9906 75.8512 20.0759C75.8512 20.1612 75.8936 20.2323 75.9502 20.3034C76.0067 20.3745 76.0916 20.4029 76.1764 20.4029C76.2754 20.4029 76.3461 20.3745 76.4168 20.3176Z" fill="#797E8A"/>
<path d="M75.936 23.5309H76.4309V21.0143H75.936V23.5309Z" fill="#797E8A"/>
<path fill-rule="evenodd" clip-rule="evenodd" d="M79.3015 23.1327C79.2026 23.2891 79.0753 23.4029 78.9056 23.4882C78.7359 23.5735 78.5662 23.6019 78.3965 23.6019C78.1986 23.6019 78.0289 23.5735 77.8733 23.5024C77.7178 23.4313 77.5905 23.3318 77.4774 23.218C77.3643 23.1043 77.2794 22.9621 77.2228 22.7915C77.1663 22.6351 77.138 22.4503 77.138 22.2654C77.138 22.0806 77.1663 21.91 77.2228 21.7536C77.2794 21.5972 77.3643 21.455 77.4774 21.327C77.5905 21.2133 77.7178 21.1138 77.8733 21.0427C78.0289 20.9716 78.1986 20.9432 78.3824 20.9432C78.5804 20.9432 78.7642 20.9858 78.9197 21.0711C79.0753 21.1564 79.1884 21.2702 79.2733 21.3839H79.2874V19.5071H79.7823V23.5308H79.3015V23.1327ZM77.6471 22.2654C77.6471 22.3792 77.6612 22.4929 77.7036 22.6067C77.7319 22.7204 77.7885 22.8199 77.8592 22.9052C77.9299 22.9905 78.0147 23.0616 78.1137 23.1043C78.2127 23.1612 78.34 23.1754 78.4672 23.1754C78.5945 23.1754 78.7076 23.1469 78.8208 23.1043C78.9197 23.0616 79.0187 22.9905 79.0894 22.9052C79.1601 22.8199 79.2167 22.7204 79.2591 22.6209C79.3015 22.5071 79.3157 22.3934 79.3157 22.2796C79.3157 22.1659 79.3015 22.038 79.2591 21.9384C79.2167 21.8247 79.1601 21.7251 79.0894 21.6398C79.0187 21.5545 78.9197 21.4834 78.8208 21.4408C78.7218 21.3981 78.5945 21.3697 78.4672 21.3697C78.3258 21.3697 78.2127 21.3981 78.1137 21.4408C78.0147 21.4834 77.9299 21.5545 77.8592 21.6398C77.7885 21.7251 77.7319 21.8247 77.7036 21.9384C77.6612 22.038 77.6471 22.1517 77.6471 22.2654Z" fill="#797E8A"/>
<path fill-rule="evenodd" clip-rule="evenodd" d="M83.1054 22.8057C83.1761 22.635 83.2044 22.4644 83.2044 22.2654C83.2044 22.0663 83.162 21.8815 83.1054 21.7251C83.0347 21.5687 82.9499 21.4265 82.8226 21.3128C82.7095 21.199 82.5681 21.1137 82.3984 21.0426C82.2287 20.9715 82.0448 20.9431 81.861 20.9431C81.663 20.9431 81.4933 20.9715 81.3237 21.0426C81.1681 21.0995 81.0126 21.199 80.8994 21.3128C80.7863 21.4265 80.6873 21.5687 80.6166 21.7251C80.5459 21.8957 80.5176 22.0663 80.5176 22.2654C80.5176 22.4644 80.5459 22.6493 80.6166 22.8057C80.6873 22.9763 80.7863 23.1185 80.8994 23.2322C81.0126 23.3459 81.154 23.4313 81.3237 23.5023C81.4933 23.5734 81.6772 23.6019 81.861 23.6019C82.059 23.6019 82.2287 23.5734 82.3984 23.5023C82.5539 23.4455 82.6953 23.3459 82.8226 23.2322C82.9357 23.1042 83.0347 22.9621 83.1054 22.8057ZM82.6246 21.9241C82.667 22.0237 82.6812 22.1516 82.6812 22.2654C82.6812 22.3791 82.667 22.4929 82.6246 22.6066C82.5963 22.7204 82.5398 22.8199 82.4691 22.9052C82.3984 22.9905 82.2994 23.0616 82.2004 23.1042C82.1014 23.1469 81.9883 23.1753 81.8469 23.1753C81.7196 23.1753 81.5923 23.1469 81.4933 23.1042C81.3802 23.0616 81.2954 22.9905 81.2247 22.9052C81.154 22.8199 81.1115 22.7204 81.0691 22.6066C81.0267 22.5071 81.0126 22.3791 81.0126 22.2654C81.0126 22.1516 81.0267 22.0379 81.0691 21.9241C81.0974 21.8246 81.154 21.7251 81.2247 21.6398C81.2954 21.5545 81.3944 21.4834 81.4933 21.4407C81.5923 21.3981 81.7055 21.3696 81.8469 21.3696C81.9741 21.3696 82.1014 21.3981 82.2004 21.4407C82.3135 21.4834 82.3984 21.5545 82.4691 21.6398C82.5398 21.7251 82.5822 21.8104 82.6246 21.9241Z" fill="#797E8A"/>
<path d="M85.2407 21.6398C85.1841 21.5545 85.0993 21.4692 85.0003 21.4123C84.9013 21.3554 84.7882 21.327 84.6609 21.327C84.6044 21.327 84.5478 21.327 84.4912 21.3412C84.4347 21.3554 84.3781 21.3697 84.3357 21.3981C84.2933 21.4265 84.2508 21.455 84.2367 21.4976C84.2084 21.5403 84.1943 21.5829 84.1943 21.654C84.1943 21.7536 84.2367 21.8389 84.3357 21.8957C84.4347 21.9526 84.5761 21.9953 84.7599 22.0379C84.873 22.0663 84.9862 22.0948 85.0993 22.1374C85.1983 22.1801 85.2973 22.2228 85.368 22.2796C85.4387 22.3365 85.5094 22.4076 85.5518 22.4929C85.5942 22.5782 85.6084 22.6635 85.6084 22.7772C85.6084 22.9194 85.5801 23.0474 85.5235 23.1611C85.4669 23.2607 85.3963 23.346 85.2973 23.4171C85.1983 23.4881 85.0993 23.5308 84.972 23.5592C84.8589 23.5877 84.7316 23.6019 84.6044 23.6019C84.4205 23.6019 84.2226 23.5592 84.0529 23.4881C83.869 23.4171 83.7135 23.3033 83.6004 23.1469L83.9539 22.8483C84.0246 22.9479 84.1094 23.0332 84.2367 23.1043C84.3498 23.1754 84.4912 23.2038 84.6327 23.2038C84.6892 23.2038 84.7599 23.2038 84.8165 23.1896C84.873 23.1754 84.9296 23.1611 84.972 23.1327C85.0145 23.1043 85.0569 23.0616 85.0852 23.019C85.1134 22.9763 85.1276 22.9194 85.1276 22.8483C85.1276 22.7346 85.071 22.6493 84.9579 22.5924C84.8448 22.5355 84.6892 22.4787 84.463 22.436C84.4205 22.4218 84.3781 22.4111 84.3356 22.4005C84.2932 22.3898 84.2508 22.3792 84.2084 22.3649C84.1236 22.3365 84.0387 22.2938 83.968 22.237C83.8973 22.1801 83.8408 22.1232 83.7983 22.0379C83.7559 21.9526 83.7276 21.8531 83.7276 21.7393C83.7276 21.6114 83.7559 21.4834 83.8125 21.3981C83.869 21.2986 83.9398 21.2275 84.0246 21.1564C84.1094 21.0995 84.2084 21.0427 84.3215 21.0142C84.4347 20.9858 84.5478 20.9716 84.6751 20.9716C84.8589 20.9716 85.0286 21.0142 85.1983 21.0711C85.368 21.1422 85.4952 21.2417 85.5942 21.3839L85.2407 21.6398Z" fill="#797E8A"/>
<path d="M47.9655 26.6446C48.0787 26.6872 48.1494 26.7583 48.2059 26.8436L48.5736 26.5024C48.4746 26.3602 48.3332 26.2607 48.1635 26.1896C47.9938 26.1327 47.81 26.09 47.6403 26.09C47.4423 26.09 47.2726 26.1327 47.103 26.1896C46.9474 26.2464 46.7919 26.346 46.6787 26.4597C46.5515 26.5877 46.4666 26.7299 46.3959 26.8863C46.3252 27.0426 46.2969 27.2275 46.2969 27.4265C46.2969 27.6398 46.3252 27.8246 46.3959 27.9811C46.4666 28.1374 46.5656 28.2796 46.6787 28.3934C46.7919 28.5071 46.9333 28.6066 47.103 28.6635C47.2726 28.7346 47.4423 28.763 47.6403 28.763C47.8383 28.763 48.0221 28.7346 48.1777 28.6635C48.3332 28.6066 48.4746 28.5071 48.5736 28.3791L48.2342 28.0806C48.1635 28.1659 48.0787 28.237 47.9797 28.2796C47.8666 28.3223 47.7534 28.3507 47.6262 28.3507C47.4848 28.3507 47.3716 28.3223 47.2726 28.2796C47.1737 28.237 47.0888 28.1659 47.0181 28.0806C46.9474 28.0095 46.905 27.91 46.8626 27.7962C46.8201 27.6967 46.806 27.5687 46.806 27.455C46.806 27.3412 46.8201 27.2275 46.8626 27.1137C46.8908 27.0142 46.9474 26.9147 47.0181 26.8294C47.0888 26.7441 47.1737 26.673 47.2726 26.6303C47.3858 26.5877 47.4989 26.5592 47.6262 26.5592C47.7534 26.5592 47.8666 26.5877 47.9655 26.6446Z" fill="#797E8A"/>
<path fill-rule="evenodd" clip-rule="evenodd" d="M51.5997 27.455C51.5997 27.654 51.5714 27.8246 51.5007 27.9952C51.43 28.1516 51.331 28.2938 51.2179 28.4218C51.0906 28.5355 50.9492 28.635 50.7795 28.6919C50.6099 28.763 50.4402 28.7914 50.2422 28.7914C50.0584 28.7914 49.8745 28.763 49.7048 28.6919C49.5352 28.6208 49.3937 28.5355 49.2806 28.4218C49.1675 28.308 49.0685 28.1659 48.9978 27.9952C48.9271 27.8388 48.8988 27.654 48.8988 27.455C48.8988 27.2559 48.9271 27.0853 48.9978 26.9147C49.0685 26.7583 49.1675 26.6161 49.2806 26.5023C49.3937 26.3886 49.5493 26.2891 49.7048 26.2322C49.8745 26.1611 50.0442 26.1327 50.2422 26.1327C50.426 26.1327 50.6099 26.1611 50.7795 26.2322C50.9492 26.3033 51.0906 26.3886 51.2179 26.5023C51.3452 26.6161 51.43 26.7583 51.5007 26.9147C51.5714 27.0853 51.5997 27.2559 51.5997 27.455ZM51.0906 27.455C51.0906 27.3412 51.0765 27.2132 51.0341 27.1137C50.9917 27 50.9492 26.9147 50.8785 26.8294C50.8078 26.7441 50.723 26.673 50.6099 26.6303C50.5109 26.5876 50.3836 26.5592 50.2563 26.5592C50.1149 26.5592 50.0018 26.5876 49.9028 26.6303C49.8038 26.673 49.7048 26.7441 49.6341 26.8294C49.5634 26.9147 49.5069 27.0142 49.4786 27.1137C49.4362 27.2275 49.422 27.3412 49.422 27.455C49.422 27.5687 49.4362 27.6967 49.4786 27.7962C49.521 27.9099 49.5634 28.0094 49.6341 28.0948C49.7048 28.1801 49.7897 28.2512 49.9028 28.2938C50.0018 28.3365 50.1291 28.3649 50.2563 28.3649C50.3977 28.3649 50.5109 28.3365 50.6099 28.2938C50.7088 28.2512 50.8078 28.1801 50.8785 28.0948C50.9492 28.0094 51.0058 27.9099 51.0341 27.7962C51.0624 27.6967 51.0906 27.5829 51.0906 27.455Z" fill="#797E8A"/>
<path d="M52.7516 26.2989C52.7483 26.2638 52.7451 26.2306 52.7451 26.2038V26.2322H52.2926C52.2926 26.2732 52.2959 26.3175 52.2993 26.3635C52.3029 26.4132 52.3068 26.4649 52.3068 26.5166V28.7488H52.8017V27.4123C52.8017 27.1564 52.8582 26.9573 52.9855 26.8009C53.1128 26.6445 53.2683 26.5734 53.4663 26.5734C53.5794 26.5734 53.6784 26.5876 53.7491 26.6303C53.8198 26.673 53.8764 26.7298 53.9188 26.8009C53.9612 26.872 53.9895 26.9573 54.0036 27.0426C54.0178 27.1421 54.0319 27.2417 54.0319 27.3412V28.7346H54.5269V27.1706C54.5269 27.0284 54.5127 26.9004 54.4703 26.7725C54.442 26.6445 54.3713 26.5308 54.3006 26.4455C54.2158 26.3459 54.1168 26.2749 54.0036 26.218C53.8764 26.1611 53.735 26.1327 53.5794 26.1327C53.4804 26.1327 53.3956 26.1469 53.3107 26.1753C53.2259 26.1896 53.1552 26.2322 53.0845 26.2749C53.0138 26.3175 52.9572 26.3744 52.9007 26.4312C52.8441 26.4881 52.8017 26.545 52.7734 26.6161H52.7593V26.417C52.7593 26.4109 52.7592 26.4046 52.759 26.3983C52.7588 26.3928 52.7586 26.3871 52.7583 26.3815C52.7569 26.3542 52.7542 26.326 52.7516 26.2989Z" fill="#797E8A"/>
<path d="M57.9207 26.6161H57.2561V27.9242C57.2561 28.0806 57.2843 28.1801 57.3409 28.2512C57.3975 28.3223 57.4823 28.3507 57.6096 28.3507C57.652 28.3507 57.7086 28.3507 57.751 28.3365C57.7724 28.3311 57.7917 28.3258 57.8098 28.3204C57.8396 28.3115 57.866 28.3027 57.8924 28.2939L57.9065 28.7062C57.85 28.7346 57.7793 28.7488 57.7086 28.7631C57.6379 28.7773 57.5672 28.7773 57.4823 28.7773C57.2419 28.7773 57.0581 28.7062 56.945 28.5782C56.8177 28.4503 56.7611 28.2512 56.7611 27.9811V26.6161H56.2803V26.2038H56.7611V25.4787H57.2561V26.2038H57.9207V26.6161Z" fill="#797E8A"/>
<path d="M60.1909 28.626C60.1926 28.644 60.1943 28.6616 60.1955 28.678C60.1962 28.688 60.1968 28.6976 60.1971 28.7066L60.1972 28.7114L60.1973 28.7158L60.1973 28.7204V28.7062H60.6357C60.6357 28.6652 60.6324 28.6209 60.629 28.5749C60.6254 28.5252 60.6216 28.4735 60.6216 28.4218V26.1896H60.1266V27.5261C60.1266 27.7678 60.0701 27.9669 59.9428 28.1232C59.8297 28.2796 59.66 28.3507 59.462 28.3507C59.3489 28.3507 59.2499 28.3365 59.1792 28.2939C59.1085 28.2512 59.0519 28.1943 59.0095 28.1232C58.9671 28.0522 58.9388 27.9811 58.9247 27.8815L58.9246 27.8813C58.9105 27.7819 58.8964 27.6824 58.8964 27.583V26.1896H58.4015V27.7536C58.4015 27.8958 58.4156 28.0237 58.458 28.1517C58.5004 28.2796 58.557 28.3792 58.6277 28.4787C58.7126 28.5782 58.8115 28.6493 58.9247 28.7062C59.0519 28.7631 59.1933 28.7915 59.3489 28.7915C59.5327 28.7915 59.6883 28.7488 59.8438 28.6493C59.9994 28.564 60.1125 28.4361 60.1691 28.3081H60.1832V28.5071C60.1832 28.5446 60.1871 28.586 60.1908 28.6252L60.1909 28.6253L60.1909 28.626Z" fill="#797E8A"/>
<path d="M63.2942 26.2038C63.2942 26.2159 63.2948 26.2294 63.2958 26.2437C63.2971 26.261 63.2988 26.2797 63.3006 26.2989C63.3024 26.3169 63.3041 26.3355 63.3055 26.3539C63.3072 26.3755 63.3083 26.3968 63.3083 26.417V26.6161H63.3224C63.3507 26.545 63.3931 26.4881 63.4497 26.4312C63.5063 26.3744 63.5628 26.3175 63.6335 26.2749C63.7042 26.2322 63.775 26.1896 63.8598 26.1753C63.9446 26.1469 64.0295 26.1327 64.1285 26.1327C64.284 26.1327 64.4254 26.1611 64.5527 26.218C64.6658 26.2749 64.7648 26.3459 64.8496 26.4455C64.9203 26.5308 64.9911 26.6445 65.0193 26.7725C65.0618 26.9004 65.0759 27.0284 65.0759 27.1706V28.7346H64.581V27.3412C64.581 27.2417 64.5668 27.1421 64.5527 27.0426C64.5386 26.9573 64.5103 26.872 64.4678 26.8009C64.4254 26.7298 64.3689 26.673 64.2982 26.6303C64.2275 26.5876 64.1285 26.5734 64.0153 26.5734C63.8174 26.5734 63.6618 26.6445 63.5346 26.8009C63.4073 26.9573 63.3507 27.1564 63.3507 27.4123V28.7488H62.8558V26.5166C62.8558 26.4649 62.852 26.4132 62.8483 26.3635C62.8449 26.3175 62.8417 26.2732 62.8417 26.2322H63.2942V26.2038Z" fill="#797E8A"/>
<path fill-rule="evenodd" clip-rule="evenodd" d="M68.2576 27.4407C68.2576 27.2417 68.2293 27.0568 68.1728 26.8862C68.1162 26.7298 68.0313 26.5876 67.9324 26.4739C67.8334 26.3602 67.7061 26.2749 67.5506 26.218C67.4091 26.1611 67.2395 26.1327 67.0556 26.1327C66.8718 26.1327 66.7021 26.1611 66.5466 26.2322C66.391 26.2891 66.2496 26.3886 66.1365 26.5023C66.0234 26.6161 65.9385 26.7583 65.8678 26.9289C65.7971 27.0995 65.7688 27.2701 65.7688 27.4692C65.7688 27.6682 65.7971 27.8531 65.8678 28.0094C65.9244 28.1659 66.0234 28.308 66.1365 28.4218C66.2638 28.5355 66.4052 28.635 66.5607 28.6919C66.7163 28.763 66.9001 28.7914 67.0839 28.7914C67.3102 28.7914 67.5081 28.7488 67.692 28.6635C67.8758 28.5782 68.0455 28.4502 68.1728 28.2654L67.8192 27.981C67.7485 28.0805 67.6496 28.1801 67.5223 28.2512C67.395 28.3223 67.2536 28.3649 67.0839 28.3649C66.9708 28.3649 66.8718 28.3507 66.7728 28.308C66.6738 28.2796 66.589 28.2227 66.5183 28.1516C66.4334 28.0805 66.3769 28.0094 66.3345 27.9099C66.292 27.8104 66.2638 27.7109 66.2638 27.6114H68.2576V27.4407ZM67.692 26.9573C67.7344 27.0426 67.7485 27.1421 67.7485 27.2417H66.2638C66.2638 27.1421 66.292 27.0426 66.3345 26.9573C66.3769 26.872 66.4334 26.7867 66.5041 26.7298C66.5748 26.6587 66.6456 26.6161 66.7445 26.5734C66.8294 26.5308 66.9425 26.5166 67.0415 26.5166C67.1688 26.5166 67.2677 26.5308 67.3526 26.5734C67.4374 26.6161 67.5081 26.673 67.5647 26.7298C67.6213 26.8009 67.6637 26.872 67.692 26.9573Z" fill="#797E8A"/>
<path fill-rule="evenodd" clip-rule="evenodd" d="M69.1484 29.1469C69.2616 29.2749 69.3888 29.3744 69.5585 29.4455C69.7282 29.5166 69.8979 29.5592 70.0676 29.5592C70.2373 29.5592 70.3787 29.5308 70.4918 29.4881C70.6049 29.4455 70.6898 29.3744 70.7605 29.2891C70.8312 29.2038 70.8736 29.1042 70.9019 28.9905C70.9302 28.8768 70.9443 28.7488 70.9443 28.6208V28.2938H70.9302C70.8453 28.436 70.7181 28.5497 70.5484 28.6208C70.3928 28.6919 70.2231 28.7346 70.0393 28.7346C69.8555 28.7346 69.6717 28.7061 69.5161 28.635C69.3606 28.564 69.2191 28.4786 69.1202 28.3649C69.007 28.2512 68.9222 28.109 68.8656 27.9526C68.8091 27.7962 68.7808 27.6256 68.7808 27.4407C68.7808 27.2559 68.8091 27.0853 68.8656 26.9289C68.9222 26.7725 69.007 26.6303 69.1202 26.5166C69.2333 26.4028 69.3606 26.3033 69.5161 26.2322C69.6717 26.1611 69.8413 26.1327 70.0393 26.1327C70.2231 26.1327 70.3928 26.1753 70.5484 26.2464C70.7181 26.3175 70.8453 26.4455 70.9443 26.6019H70.9585V26.2038H71.4393V28.5924C71.4393 28.7772 71.411 28.9478 71.3686 29.1185C71.3261 29.2891 71.2413 29.4312 71.1423 29.5592C71.0292 29.6872 70.8878 29.7867 70.7181 29.872C70.5484 29.9431 70.3221 29.9858 70.0676 29.9858C69.8555 29.9858 69.6292 29.9431 69.403 29.872C69.1767 29.7867 68.9929 29.673 68.8373 29.5308L69.1484 29.1469ZM69.2898 27.4407C69.2898 27.5545 69.304 27.6682 69.3464 27.782C69.3888 27.8957 69.4313 27.981 69.5161 28.0663C69.5868 28.1516 69.6717 28.2085 69.7848 28.2654C69.8838 28.308 70.011 28.3365 70.1383 28.3365C70.2656 28.3365 70.3787 28.308 70.4918 28.2654C70.6049 28.2227 70.6898 28.1516 70.7605 28.0805C70.8312 27.9952 70.8878 27.9099 70.9302 27.7962C70.9726 27.6824 70.9867 27.5687 70.9867 27.4407C70.9867 27.327 70.9726 27.2132 70.9302 27.0995C70.8878 27 70.8312 26.9004 70.7605 26.8151C70.6898 26.7298 70.5908 26.673 70.4918 26.6161C70.3928 26.5734 70.2656 26.545 70.1383 26.545C70.011 26.545 69.8838 26.5734 69.7848 26.6161C69.6858 26.6587 69.601 26.7298 69.5161 26.8009C69.4454 26.8862 69.3888 26.9715 69.3464 27.0853C69.3181 27.199 69.2898 27.3128 69.2898 27.4407Z" fill="#797E8A"/>
<path fill-rule="evenodd" clip-rule="evenodd" d="M74.7341 27.9952C74.8048 27.8246 74.8331 27.654 74.8331 27.455C74.8331 27.2559 74.8048 27.0853 74.7341 26.9147C74.6634 26.7583 74.5786 26.6161 74.4513 26.5023C74.3382 26.3886 74.1967 26.3033 74.0271 26.2322C73.8574 26.1611 73.6735 26.1327 73.4897 26.1327C73.2917 26.1327 73.1221 26.1611 72.9524 26.2322C72.7968 26.2891 72.6413 26.3886 72.5281 26.5023C72.415 26.6161 72.316 26.7583 72.2453 26.9147C72.1746 27.0853 72.1463 27.2559 72.1463 27.455C72.1463 27.654 72.1746 27.8388 72.2453 27.9952C72.316 28.1659 72.415 28.308 72.5281 28.4218C72.6413 28.5355 72.7827 28.6208 72.9524 28.6919C73.1221 28.763 73.3059 28.7914 73.4897 28.7914C73.6877 28.7914 73.8574 28.763 74.0271 28.6919C74.1826 28.635 74.324 28.5355 74.4513 28.4218C74.5644 28.2938 74.6634 28.1516 74.7341 27.9952ZM74.2675 27.1137C74.3099 27.2132 74.324 27.3412 74.324 27.455C74.324 27.5829 74.2957 27.6967 74.2675 27.7962C74.2392 27.9099 74.1826 28.0094 74.1119 28.0948C74.0412 28.1801 73.9422 28.2512 73.8432 28.2938C73.7442 28.3365 73.6311 28.3649 73.4897 28.3649C73.3624 28.3649 73.2352 28.3365 73.1362 28.2938C73.0231 28.2512 72.9382 28.1801 72.8675 28.0948C72.7968 28.0094 72.7544 27.9099 72.712 27.7962C72.6695 27.6967 72.6554 27.5687 72.6554 27.455C72.6554 27.3412 72.6695 27.2275 72.712 27.1137C72.7402 27.0142 72.7968 26.9147 72.8675 26.8294C72.9382 26.7441 73.0372 26.673 73.1362 26.6303C73.2352 26.5876 73.3483 26.5592 73.4897 26.5592C73.617 26.5592 73.7442 26.5876 73.8432 26.6303C73.9564 26.673 74.0412 26.7441 74.1119 26.8294C74.1826 26.9147 74.225 27 74.2675 27.1137Z" fill="#797E8A"/>
<path d="M77.2794 26.8436C77.2228 26.7583 77.1521 26.6872 77.039 26.6446C76.94 26.5877 76.8269 26.5592 76.6996 26.5592C76.5724 26.5592 76.4593 26.5877 76.3461 26.6303C76.2471 26.673 76.1623 26.7441 76.0916 26.8294C76.0209 26.9147 75.9643 27.0142 75.936 27.1137C75.8936 27.2275 75.8795 27.3412 75.8795 27.455C75.8795 27.5687 75.8936 27.6967 75.936 27.7962C75.9785 27.91 76.0209 28.0095 76.0916 28.0806C76.1623 28.1659 76.2471 28.237 76.3461 28.2796C76.4451 28.3223 76.5582 28.3507 76.6996 28.3507C76.8269 28.3507 76.94 28.3223 77.0532 28.2796C77.1522 28.237 77.237 28.1659 77.3077 28.0806L77.6471 28.3791C77.5481 28.5071 77.4067 28.6066 77.2511 28.6635C77.0956 28.7346 76.9118 28.763 76.7138 28.763C76.5158 28.763 76.3461 28.7346 76.1764 28.6635C76.0067 28.6066 75.8653 28.5071 75.7522 28.3934C75.6391 28.2796 75.5401 28.1374 75.4694 27.9811C75.3987 27.8246 75.3704 27.6398 75.3704 27.4265C75.3704 27.2275 75.3987 27.0426 75.4694 26.8863C75.5401 26.7299 75.6249 26.5877 75.7522 26.4597C75.8653 26.346 76.0209 26.2464 76.1764 26.1896C76.3461 26.1327 76.5158 26.09 76.7138 26.09C76.8835 26.09 77.0673 26.1327 77.237 26.1896C77.4067 26.2607 77.5481 26.3602 77.6471 26.5024L77.2794 26.8436Z" fill="#797E8A"/>
<path d="M78.6228 25.5213C78.6935 25.4645 78.7218 25.3934 78.7218 25.2938C78.7218 25.1943 78.6935 25.1232 78.6228 25.0521C78.5521 24.981 78.4672 24.9526 78.3824 24.9526C78.2976 24.9526 78.2127 24.9953 78.1561 25.0521C78.0854 25.109 78.0572 25.1943 78.0572 25.2796C78.0572 25.3649 78.0996 25.436 78.1561 25.5071C78.2127 25.5782 78.2976 25.6066 78.3824 25.6066C78.4814 25.6066 78.5521 25.5782 78.6228 25.5213Z" fill="#797E8A"/>
<path d="M78.142 28.7204H78.6369V26.2038H78.142V28.7204Z" fill="#797E8A"/>
<path fill-rule="evenodd" clip-rule="evenodd" d="M82.0449 27.455C82.0449 27.654 82.0166 27.8246 81.9459 27.9952C81.8752 28.1516 81.7762 28.2938 81.6631 28.4218C81.5358 28.5355 81.3944 28.635 81.2389 28.6919C81.0692 28.763 80.8995 28.7914 80.7015 28.7914C80.5177 28.7914 80.3339 28.763 80.1642 28.6919C79.9945 28.6208 79.8531 28.5355 79.7399 28.4218C79.6268 28.308 79.5278 28.1659 79.4571 27.9952C79.3864 27.8388 79.3581 27.654 79.3581 27.455C79.3581 27.2559 79.3864 27.0853 79.4571 26.9147C79.5278 26.7583 79.6268 26.6161 79.7399 26.5023C79.8531 26.3886 80.0086 26.2891 80.1642 26.2322C80.3339 26.1611 80.5035 26.1327 80.7015 26.1327C80.8853 26.1327 81.0692 26.1611 81.2389 26.2322C81.4086 26.3033 81.55 26.3886 81.6631 26.5023C81.7904 26.6161 81.8752 26.7583 81.9459 26.9147C82.0166 27.0853 82.0449 27.2559 82.0449 27.455ZM81.5358 27.455C81.5358 27.3412 81.5217 27.2132 81.4793 27.1137C81.4368 27 81.3944 26.9147 81.3237 26.8294C81.253 26.7441 81.1682 26.673 81.055 26.6303C80.956 26.5876 80.8288 26.5592 80.7015 26.5592C80.5601 26.5592 80.447 26.5876 80.348 26.6303C80.249 26.673 80.15 26.7441 80.0793 26.8294C80.0086 26.9147 79.952 27.0142 79.9238 27.1137C79.8813 27.2275 79.8672 27.3412 79.8672 27.455C79.8672 27.5687 79.8813 27.6967 79.9238 27.7962C79.9662 27.9099 80.0086 28.0094 80.0793 28.0948C80.15 28.1801 80.2349 28.2512 80.348 28.2938C80.447 28.3365 80.5742 28.3649 80.7015 28.3649C80.8429 28.3649 80.956 28.3365 81.055 28.2938C81.154 28.2512 81.253 28.1801 81.3237 28.0948C81.3944 28.0094 81.451 27.9099 81.4793 27.7962C81.5075 27.6967 81.5358 27.5829 81.5358 27.455Z" fill="#797E8A"/>
<path d="M83.1903 28.6493C83.261 28.5783 83.2892 28.5072 83.2892 28.4076C83.2892 28.3081 83.261 28.2228 83.1903 28.1659C83.1196 28.0948 83.0347 28.0664 82.9357 28.0664C82.8367 28.0664 82.7519 28.0948 82.6812 28.1659C82.6105 28.2228 82.5822 28.3081 82.5822 28.4076C82.5822 28.4929 82.6105 28.5783 82.6812 28.6493C82.7519 28.7204 82.8367 28.7489 82.9357 28.7489C83.0347 28.7489 83.1196 28.7204 83.1903 28.6493Z" fill="#797E8A"/>
</svg>
