<svg xmlns="http://www.w3.org/2000/svg" width="100" height="30" viewBox="0 0 100 30"><rect width="100%" height="100%" fill="#DDDDDD"/><path fill="#999999" d="M25.765 19.03h1.95v1.39h-6v-1.39h2.2v-6.32q0-.37.02-.77l-1.56 1.3q-.14.11-.27.13-.13.03-.25.01-.11-.02-.2-.08-.09-.06-.14-.13l-.58-.8 3.31-2.81h1.52v9.47ZM36.975 15q0 1.42-.3 2.46-.31 1.05-.84 1.73-.54.68-1.27 1.02-.73.33-1.58.33-.85 0-1.57-.33-.72-.34-1.26-1.02-.53-.68-.83-1.73-.3-1.04-.3-2.46 0-1.43.3-2.47.3-1.04.83-1.73.54-.68 1.26-1.01.72-.33 1.57-.33.85 0 1.58.33.73.33 1.27 1.01.53.69.84 1.73.3 1.04.3 2.47Zm-1.91 0q0-1.18-.17-1.95-.18-.77-.47-1.23-.28-.46-.66-.64-.37-.19-.78-.19-.4 0-.77.19-.37.18-.65.64-.29.46-.46 1.23-.17.77-.17 1.95 0 1.17.17 1.95.17.77.46 1.23.28.46.65.64t.77.18q.41 0 .78-.18.38-.18.66-.64.29-.46.47-1.23.17-.78.17-1.95Zm10.61 0q0 1.42-.3 2.46-.31 1.05-.84 1.73-.54.68-1.27 1.02-.73.33-1.58.33-.85 0-1.57-.33-.72-.34-1.26-1.02-.53-.68-.83-1.73-.3-1.04-.3-2.46 0-1.43.3-2.47.3-1.04.83-1.73.54-.68 1.26-1.01.72-.33 1.57-.33.85 0 1.58.33.73.33 1.27 1.01.53.69.84 1.73.3 1.04.3 2.47Zm-1.91 0q0-1.18-.17-1.95-.18-.77-.47-1.23-.28-.46-.66-.64-.37-.19-.78-.19-.4 0-.77.19-.37.18-.65.64-.29.46-.46 1.23-.17.77-.17 1.95 0 1.17.17 1.95.17.77.46 1.23.28.46.65.64t.77.18q.41 0 .78-.18.38-.18.66-.64.29-.46.47-1.23.17-.78.17-1.95Zm13.82 2.94-.98.97-2.54-2.55-2.57 2.56-.98-.97 2.56-2.57-2.44-2.44.97-.98 2.45 2.45 2.43-2.44.99.98-2.44 2.44 2.55 2.55Zm6.24-5.17-.98-.17q.12-.78.44-1.37.32-.59.81-.98.48-.4 1.11-.6.62-.19 1.34-.19.75 0 1.36.21.6.21 1.03.59.42.38.65.89.23.51.23 1.1 0 .52-.11.91-.12.4-.34.69-.22.29-.54.49-.32.21-.73.34.98.31 1.46.94.48.63.48 1.58 0 .81-.3 1.44-.3.62-.81 1.04-.51.42-1.18.64-.67.22-1.42.22-.82 0-1.43-.19t-1.06-.55q-.45-.37-.76-.9-.32-.53-.54-1.23l.82-.34q.32-.14.6-.07.28.06.41.3.13.27.3.52.16.26.38.45.23.2.53.33.3.12.72.12.48 0 .83-.15.35-.16.59-.4.23-.25.35-.56.12-.3.12-.61 0-.39-.09-.71-.08-.31-.34-.54-.26-.22-.75-.35-.5-.13-1.32-.13v-1.32q.68-.01 1.13-.13.45-.12.72-.33.26-.21.37-.51.1-.3.1-.66 0-.77-.42-1.17-.43-.39-1.14-.39-.33 0-.61.09-.28.09-.5.26-.22.17-.37.4-.15.22-.23.49-.12.35-.33.46-.21.11-.58.05ZM79.065 15q0 1.42-.3 2.46-.31 1.05-.84 1.73-.54.68-1.27 1.02-.73.33-1.58.33-.85 0-1.57-.33-.73-.34-1.26-1.02-.53-.68-.83-1.73-.3-1.04-.3-2.46 0-1.43.3-2.47.3-1.04.83-1.73.53-.68 1.26-1.01.72-.33 1.57-.33.85 0 1.58.33.73.33 1.27 1.01.53.69.84 1.73.3 1.04.3 2.47Zm-1.91 0q0-1.18-.18-1.95-.17-.77-.46-1.23-.29-.46-.66-.64-.38-.19-.78-.19t-.77.19q-.37.18-.66.64-.28.46-.45 1.23-.17.77-.17 1.95 0 1.17.17 1.95.17.77.45 1.23.29.46.66.64.37.18.77.18t.78-.18q.37-.18.66-.64.29-.46.46-1.23.18-.78.18-1.95Z"/></svg>