<svg width="45" height="45" viewBox="0 0 45 45" fill="none" xmlns="http://www.w3.org/2000/svg">
<path d="M38.9911 10.5231H35.1406V38.9919H40.9269V12.4674C40.9269 11.3976 40.0609 10.5231 38.9911 10.5231Z" fill="#0B0B0E"/>
<path d="M40.9276 39.4165H35.1413C34.9067 39.4165 34.7168 39.2267 34.7168 38.992V10.5229C34.7168 10.2883 34.9067 10.0984 35.1413 10.0984H38.9919C40.2933 10.0984 41.3521 11.161 41.3521 12.4673V38.992C41.3521 39.2267 41.1622 39.4165 40.9276 39.4165ZM35.5659 38.5675H40.5031V12.4673C40.5031 11.6294 39.8252 10.9474 38.9919 10.9474H35.5659V38.5675Z" fill="#0B0B0E"/>
<path d="M41.7656 38.994H36.4941V42.7469H41.7656C42.3769 42.7469 42.8779 42.2459 42.8779 41.6346V40.1148C42.8779 39.495 42.3769 38.994 41.7656 38.994Z" fill="#0B0B0E"/>
<path d="M41.7662 43.1713H36.4948C36.2602 43.1713 36.0703 42.9814 36.0703 42.7468V38.994C36.0703 38.7593 36.2602 38.5695 36.4948 38.5695H41.7662C42.6136 38.5695 43.303 39.2626 43.303 40.1146V41.6344C43.303 42.4818 42.6136 43.1713 41.7662 43.1713ZM36.9194 42.3222H41.7662C42.1455 42.3222 42.454 42.0138 42.454 41.6344V40.1146C42.454 39.7307 42.1455 39.4185 41.7662 39.4185H36.9194V42.3222Z" fill="#0B0B0E"/>
<path d="M40.2098 40.1148V41.6346C40.2098 42.2459 39.7088 42.7469 39.0975 42.7469H3.24185C2.62201 42.7469 2.12109 42.2459 2.12109 41.6346V40.1148C2.12109 39.495 2.62201 38.994 3.24185 38.994H39.0975C39.7088 38.994 40.2098 39.495 40.2098 40.1148Z" fill="#0B0B0E"/>
<path d="M39.098 43.1713H3.2424C2.39044 43.1713 1.69727 42.4818 1.69727 41.6344V40.1146C1.69727 39.2626 2.39044 38.5695 3.2424 38.5695H39.098C39.9454 38.5695 40.6349 39.2626 40.6349 40.1146V41.6344C40.6349 42.4818 39.9454 43.1713 39.098 43.1713ZM3.2424 39.4185C2.8585 39.4185 2.54632 39.7307 2.54632 40.1146V41.6344C2.54632 42.0138 2.8585 42.3222 3.2424 42.3222H39.098C39.4774 42.3222 39.7858 42.0138 39.7858 41.6344V40.1146C39.7858 39.7307 39.4774 39.4185 39.098 39.4185H3.2424Z" fill="#0B0B0E"/>
<path d="M25.1603 7.42398V38.9919H3.83203V7.42398C3.83203 6.35416 4.69809 5.48816 5.76791 5.48816H23.2245C24.2943 5.48816 25.1603 6.35416 25.1603 7.42398Z" fill="white"/>
<path d="M25.1611 39.4165H3.83273C3.59808 39.4165 3.4082 39.2266 3.4082 38.992V7.42392C3.4082 6.12255 4.46704 5.06372 5.76881 5.06372H23.2251C24.5268 5.06372 25.5857 6.12255 25.5857 7.42392V38.992C25.5857 39.2266 25.3958 39.4165 25.1611 39.4165ZM4.25726 38.5675H24.7366V7.42392C24.7366 6.59061 24.0584 5.91278 23.2251 5.91278H5.76881C4.93551 5.91278 4.25726 6.59061 4.25726 7.42392V38.5675Z" fill="#0B0B0E"/>
<path d="M38.38 12.4674V38.9919H25.1602V10.5231H36.4441C37.5139 10.5231 38.38 11.3976 38.38 12.4674Z" fill="#DDDDDD"/>
<path d="M38.3805 39.4165H25.1609C24.9262 39.4165 24.7363 39.2267 24.7363 38.992V10.5229C24.7363 10.2883 24.9262 10.0984 25.1609 10.0984H36.4449C37.7462 10.0984 38.805 11.161 38.805 12.4673V38.992C38.805 39.2267 38.6152 39.4165 38.3805 39.4165ZM25.5854 38.5675H37.956V12.4673C37.956 11.6294 37.2782 10.9474 36.4449 10.9474H25.5854V38.5675Z" fill="#0B0B0E"/>
<path d="M23.31 4.05317V5.48808H5.9043V4.05317C5.9043 3.05974 6.71091 2.25317 7.70429 2.25317H21.5015C22.5033 2.25317 23.31 3.05974 23.31 4.05317Z" fill="#DDDDDD"/>
<path d="M23.3107 5.91275H5.905C5.67035 5.91275 5.48047 5.72287 5.48047 5.48822V4.05336C5.48047 2.82663 6.47836 1.82874 7.7051 1.82874H21.5023C22.7336 1.82874 23.7352 2.82663 23.7352 4.05336V5.48822C23.7352 5.72287 23.5453 5.91275 23.3107 5.91275ZM6.32953 5.06369H22.8861V4.05336C22.8861 3.29468 22.2655 2.67779 21.5023 2.67779H7.7051C6.94642 2.67779 6.32953 3.29468 6.32953 4.05336V5.06369Z" fill="#0B0B0E"/>
<path d="M21.7636 10.0136V11.9749C21.7636 12.5948 21.2627 13.1042 20.6343 13.1042H16.9749C16.3551 13.1042 15.8457 12.5948 15.8457 11.9749V10.0136C15.8457 9.38531 16.3551 8.8844 16.9749 8.8844H20.6343C21.2627 8.8844 21.7636 9.38531 21.7636 10.0136Z" fill="#FF5C00"/>
<path d="M20.6352 13.5286H16.9757C16.1188 13.5286 15.4219 12.8317 15.4219 11.9748V10.0138C15.4219 9.15687 16.1188 8.45996 16.9757 8.45996H20.6352C21.4921 8.45996 22.189 9.15687 22.189 10.0138V11.9748C22.189 12.8317 21.4921 13.5286 20.6352 13.5286ZM16.9757 9.30902C16.5873 9.30902 16.2709 9.62534 16.2709 10.0138V11.9748C16.2709 12.3632 16.5873 12.6795 16.9757 12.6795H20.6352C21.0237 12.6795 21.34 12.3632 21.34 11.9748V10.0138C21.34 9.61871 21.0303 9.30902 20.6352 9.30902H16.9757Z" fill="#0B0B0E"/>
<path d="M13.1464 10.0136V11.9749C13.1464 12.5948 12.637 13.1042 12.0172 13.1042H8.35778C7.72948 13.1042 7.22852 12.5948 7.22852 11.9749V10.0136C7.22852 9.38531 7.72948 8.8844 8.35778 8.8844H12.0172C12.637 8.8844 13.1464 9.38531 13.1464 10.0136Z" fill="#FF5C00"/>
<path d="M12.018 13.5286H8.35853C7.50159 13.5286 6.80469 12.8317 6.80469 11.9748V10.0138C6.80469 9.15687 7.50159 8.45996 8.35853 8.45996H12.018C12.8749 8.45996 13.5719 9.15687 13.5719 10.0138V11.9748C13.5719 12.8317 12.8749 13.5286 12.018 13.5286ZM8.35853 9.30902C7.96343 9.30902 7.65374 9.61871 7.65374 10.0138V11.9748C7.65374 12.3632 7.97007 12.6795 8.35853 12.6795H12.018C12.4065 12.6795 12.7228 12.3632 12.7228 11.9748V10.0138C12.7228 9.62534 12.4065 9.30902 12.018 9.30902H8.35853Z" fill="#0B0B0E"/>
<path d="M21.7636 16.5407V18.502C21.7636 19.1219 21.2627 19.6313 20.6343 19.6313H16.9749C16.3551 19.6313 15.8457 19.1219 15.8457 18.502V16.5407C15.8457 15.9124 16.3551 15.4115 16.9749 15.4115H20.6343C21.2627 15.4115 21.7636 15.9124 21.7636 16.5407Z" fill="#FF5C00"/>
<path d="M20.6352 20.0557H16.9757C16.1188 20.0557 15.4219 19.3588 15.4219 18.5019V16.5409C15.4219 15.684 16.1188 14.9871 16.9757 14.9871H20.6352C21.4921 14.9871 22.189 15.684 22.189 16.5409V18.5019C22.189 19.3588 21.4921 20.0557 20.6352 20.0557ZM16.9757 15.8361C16.5873 15.8361 16.2709 16.1524 16.2709 16.5409V18.5019C16.2709 18.8903 16.5873 19.2066 16.9757 19.2066H20.6352C21.0237 19.2066 21.34 18.8903 21.34 18.5019V16.5409C21.34 16.1458 21.0303 15.8361 20.6352 15.8361H16.9757Z" fill="#0B0B0E"/>
<path d="M34.7284 16.5407V18.502C34.7284 19.1219 34.2275 19.6313 33.5992 19.6313H29.9398C29.32 19.6313 28.8105 19.1219 28.8105 18.502V16.5407C28.8105 15.9124 29.32 15.4115 29.9398 15.4115H33.5992C34.2275 15.4115 34.7284 15.9124 34.7284 16.5407Z" fill="#FF5C00"/>
<path d="M33.6 20.0557H29.9406C29.0836 20.0557 28.3867 19.3588 28.3867 18.5019V16.5409C28.3867 15.684 29.0836 14.9871 29.9406 14.9871H33.6C34.457 14.9871 35.1539 15.684 35.1539 16.5409V18.5019C35.1539 19.3588 34.457 20.0557 33.6 20.0557ZM29.9406 15.8361C29.5521 15.8361 29.2358 16.1524 29.2358 16.5409V18.5019C29.2358 18.8903 29.5521 19.2066 29.9406 19.2066H33.6C33.9885 19.2066 34.3048 18.8903 34.3048 18.5019V16.5409C34.3048 16.1458 33.9951 15.8361 33.6 15.8361H29.9406Z" fill="#0B0B0E"/>
<path d="M34.7284 23.7768V25.7381C34.7284 26.358 34.2275 26.8674 33.5992 26.8674H29.9398C29.32 26.8674 28.8105 26.358 28.8105 25.7381V23.7768C28.8105 23.1485 29.32 22.6476 29.9398 22.6476H33.5992C34.2275 22.6476 34.7284 23.1485 34.7284 23.7768Z" fill="#FF5C00"/>
<path d="M33.6 27.2918H29.9406C29.0836 27.2918 28.3867 26.5949 28.3867 25.7379V23.777C28.3867 22.9201 29.0836 22.2231 29.9406 22.2231H33.6C34.457 22.2231 35.1539 22.9201 35.1539 23.777V25.7379C35.1539 26.5949 34.457 27.2918 33.6 27.2918ZM29.9406 23.0722C29.5521 23.0722 29.2358 23.3885 29.2358 23.777V25.7379C29.2358 26.1264 29.5521 26.4427 29.9406 26.4427H33.6C33.9885 26.4427 34.3048 26.1264 34.3048 25.7379V23.777C34.3048 23.3819 33.9951 23.0722 33.6 23.0722H29.9406Z" fill="#0B0B0E"/>
<path d="M34.7284 31.0128V32.9741C34.7284 33.5939 34.2275 34.1033 33.5992 34.1033H29.9398C29.32 34.1033 28.8105 33.5939 28.8105 32.9741V31.0128C28.8105 30.3845 29.32 29.8835 29.9398 29.8835H33.5992C34.2275 29.8835 34.7284 30.3845 34.7284 31.0128Z" fill="#FF5C00"/>
<path d="M33.6 34.5277H29.9406C29.0836 34.5277 28.3867 33.8308 28.3867 32.9743V31.0129C28.3867 30.156 29.0836 29.4591 29.9406 29.4591H33.6C34.457 29.4591 35.1539 30.156 35.1539 31.0129V32.9743C35.1539 33.8308 34.457 34.5277 33.6 34.5277ZM29.9406 30.3082C29.5521 30.3082 29.2358 30.6245 29.2358 31.0129V32.9743C29.2358 33.3628 29.5521 33.6787 29.9406 33.6787H33.6C33.9885 33.6787 34.3048 33.3628 34.3048 32.9743V31.0129C34.3048 30.6179 33.9951 30.3082 33.6 30.3082H29.9406Z" fill="#0B0B0E"/>
<path d="M13.1464 16.5407V18.502C13.1464 19.1219 12.637 19.6313 12.0172 19.6313H8.35778C7.72948 19.6313 7.22852 19.1219 7.22852 18.502V16.5407C7.22852 15.9124 7.72948 15.4115 8.35778 15.4115H12.0172C12.637 15.4115 13.1464 15.9124 13.1464 16.5407Z" fill="#FF5C00"/>
<path d="M12.018 20.0557H8.35853C7.50159 20.0557 6.80469 19.3588 6.80469 18.5019V16.5409C6.80469 15.684 7.50159 14.9871 8.35853 14.9871H12.018C12.8749 14.9871 13.5719 15.684 13.5719 16.5409V18.5019C13.5719 19.3588 12.8749 20.0557 12.018 20.0557ZM8.35853 15.8361C7.96343 15.8361 7.65374 16.1458 7.65374 16.5409V18.5019C7.65374 18.8903 7.97007 19.2066 8.35853 19.2066H12.018C12.4065 19.2066 12.7228 18.8903 12.7228 18.5019V16.5409C12.7228 16.1524 12.4065 15.8361 12.018 15.8361H8.35853Z" fill="#0B0B0E"/>
<path d="M21.7636 23.0678V25.0291C21.7636 25.649 21.2627 26.1584 20.6343 26.1584H16.9749C16.3551 26.1584 15.8457 25.649 15.8457 25.0291V23.0678C15.8457 22.4395 16.3551 21.9386 16.9749 21.9386H20.6343C21.2627 21.9386 21.7636 22.4395 21.7636 23.0678Z" fill="#FF5C00"/>
<path d="M20.6352 26.5828H16.9757C16.1188 26.5828 15.4219 25.8859 15.4219 25.029V23.068C15.4219 22.2111 16.1188 21.5142 16.9757 21.5142H20.6352C21.4921 21.5142 22.189 22.2111 22.189 23.068V25.029C22.189 25.8859 21.4921 26.5828 20.6352 26.5828ZM16.9757 22.3632C16.5873 22.3632 16.2709 22.6795 16.2709 23.068V25.029C16.2709 25.4174 16.5873 25.7337 16.9757 25.7337H20.6352C21.0237 25.7337 21.34 25.4174 21.34 25.029V23.068C21.34 22.6729 21.0303 22.3632 20.6352 22.3632H16.9757Z" fill="#0B0B0E"/>
<path d="M13.1464 23.0678V25.0291C13.1464 25.649 12.637 26.1584 12.0172 26.1584H8.35778C7.72948 26.1584 7.22852 25.649 7.22852 25.0291V23.0678C7.22852 22.4395 7.72948 21.9386 8.35778 21.9386H12.0172C12.637 21.9386 13.1464 22.4395 13.1464 23.0678Z" fill="#FF5C00"/>
<path d="M12.018 26.5828H8.35853C7.50159 26.5828 6.80469 25.8859 6.80469 25.029V23.068C6.80469 22.2111 7.50159 21.5142 8.35853 21.5142H12.018C12.8749 21.5142 13.5719 22.2111 13.5719 23.068V25.029C13.5719 25.8859 12.8749 26.5828 12.018 26.5828ZM8.35853 22.3632C7.96343 22.3632 7.65374 22.6729 7.65374 23.068V25.029C7.65374 25.4174 7.97007 25.7337 8.35853 25.7337H12.018C12.4065 25.7337 12.7228 25.4174 12.7228 25.029V23.068C12.7228 22.6795 12.4065 22.3632 12.018 22.3632H8.35853Z" fill="#0B0B0E"/>
<path d="M18.4947 31.6561V38.9919H10.3438V31.6561C10.3438 30.7561 11.0824 30.0173 11.9824 30.0173H16.8561C17.7645 30.0173 18.4947 30.7561 18.4947 31.6561Z" fill="#DDDDDD"/>
<path d="M18.4955 39.4165H10.3445C10.1098 39.4165 9.91992 39.2266 9.91992 38.992V31.656C9.91992 30.5184 10.8457 29.5927 11.9833 29.5927H16.8566C17.9943 29.5927 18.92 30.5184 18.92 31.656V38.992C18.92 39.2266 18.7301 39.4165 18.4955 39.4165ZM10.769 38.5674H18.0709V31.656C18.0709 30.9865 17.5262 30.4417 16.8566 30.4417H11.9833C11.3137 30.4417 10.769 30.9865 10.769 31.656V38.5674Z" fill="#0B0B0E"/>
</svg>
