<svg width="1920" height="449" viewBox="0 0 1920 449" fill="none" xmlns="http://www.w3.org/2000/svg">
   <g clip-path="url(#clip0_522_370)">
      <path
         d="M768.778 613.452H767.967V181.529L816.279 153.607L912.515 209.192V458.45H911.703V209.679L816.279 154.548L768.778 181.984V613.452Z"
         fill="#628DFE" />
      <path d="M816.701 154.093H815.89V613.452H816.701V154.093Z" fill="#628DFE" />
      <path
         d="M1056.22 613.452H1055.41V126.658L1007.91 99.2223L888.553 168.152V195.588H887.741V167.698L887.936 167.568L1007.91 98.2808L1056.22 126.203V613.452Z"
         fill="#628DFE" />
      <path d="M1008.33 98.7349H1007.51V613.419H1008.33V98.7349Z" fill="#628DFE" />
      <path
         d="M625.073 403.123H624.262V292.212L720.465 236.627L768.582 264.42L768.193 265.134L720.465 237.569L625.073 292.667V403.123Z"
         fill="#628DFE" />
      <path d="M720.889 237.114H720.077V613.452H720.889V237.114Z" fill="#628DFE" />
      <path
         d="M505.3 613.452H504.488V195.36L600.724 139.775L696.927 195.36V250.946H696.115V195.815L600.724 140.716L505.3 195.815V613.452Z"
         fill="#628DFE" />
      <path d="M601.112 140.262H600.3V389.292H601.112V140.262Z" fill="#628DFE" />
      <path
         d="M361.597 613.452H360.785V333.707L456.988 278.154L505.106 305.914L504.716 306.628L456.988 279.063L361.597 334.161V613.452Z"
         fill="#628DFE" />
      <path d="M457.41 278.609H456.599V611.634H457.41V278.609Z" fill="#628DFE" />
      <path
         d="M433.448 292.44H432.637V98.508L480.949 70.6179L577.185 126.203V154.093H576.373V126.658L480.949 71.5595L433.448 98.995V292.44Z"
         fill="#628DFE" />
      <path d="M481.371 71.0723H480.56V292.44H481.371V71.0723Z" fill="#628DFE" />
      <path
         d="M289.745 613.452H288.934V181.529L337.246 153.607L433.254 209.062L432.832 209.776L337.246 154.548L289.745 181.984V613.452Z"
         fill="#628DFE" />
      <path d="M337.636 154.093H336.824V613.452H337.636V154.093Z" fill="#628DFE" />
      <path
         d="M169.969 613.451H169.157V361.369L241.431 319.648L289.549 347.44L289.127 348.122L241.431 320.589L169.969 361.856V613.451Z"
         fill="#628DFE" />
      <path d="M241.823 320.103H241.012V613.419H241.823V320.103Z" fill="#628DFE" />
      <path
         d="M193.934 347.766H193.122V264.55L265.396 222.796L289.552 237.991L289.13 238.673L265.364 223.738L193.934 265.005V347.766Z"
         fill="#628DFE" />
      <path d="M265.785 223.25H264.974V333.934H265.785V223.25Z" fill="#628DFE" />
      <path
         d="M74.1564 613.452H73.3447V306.044L121.657 278.154L121.885 278.251L193.736 320.135L193.314 320.849L121.657 279.063L74.1564 306.498V613.452Z"
         fill="#628DFE" />
      <path d="M122.077 278.609H121.266V613.452H122.077V278.609Z" fill="#628DFE" />
      <path
         d="M146.042 292.57H145.23V126.203L169.582 112.112L217.894 140.035V250.946H217.082V140.489L169.582 113.054L146.042 126.658V292.57Z"
         fill="#628DFE" />
      <path d="M169.969 112.599H169.157V306.531H169.969V112.599Z" fill="#628DFE" />
      <path
         d="M2.30487 613.451H1.49316V292.342L1.72044 292.212L49.8057 264.29L50.0005 264.419L97.6961 292.212L97.3065 292.926L49.8057 265.231L2.30487 292.797V613.451Z"
         fill="#628DFE" />
      <path d="M50.2258 264.777H49.4141V613.452H50.2258V264.777Z" fill="#628DFE" />
      <path
         d="M1223.88 613.451H1223.07V361.856L1103.72 292.894L1056.02 320.459L1055.6 319.745L1103.72 291.952L1103.91 292.082L1223.88 361.369V613.451Z"
         fill="#628DFE" />
      <path d="M1104.11 292.44H1103.3V613.452H1104.11V292.44Z" fill="#628DFE" />
      <path
         d="M1175.99 333.934H1175.18V168.152L1127.68 140.716L1056.02 182.113L1055.6 181.399L1127.68 139.775L1175.99 167.697V333.934Z"
         fill="#628DFE" />
      <path d="M1128.07 140.262H1127.26V306.271H1128.07V140.262Z" fill="#628DFE" />
      <path
         d="M1319.7 389.292H1318.89V306.498L1247.42 265.231L1199.92 292.667V347.765H1199.11V292.212L1247.42 264.29L1319.7 306.044V389.292Z"
         fill="#628DFE" />
      <path d="M1247.85 264.777H1247.03V613.452H1247.85V264.777Z" fill="#628DFE" />
      <path
         d="M1415.51 613.452H1414.7V389.519L1367.2 362.084L1295.74 403.351V613.452H1294.92V402.896L1367.2 361.142L1415.51 389.065V613.452Z"
         fill="#628DFE" />
      <path d="M1367.59 361.629H1366.78V613.451H1367.59V361.629Z" fill="#628DFE" />
      <path
         d="M1439.47 613.451H1438.66V348.025L1391.16 320.589L1319.5 361.954L1319.08 361.272L1391.16 319.648L1439.47 347.538V613.451Z"
         fill="#628DFE" />
      <path d="M1391.55 320.103H1390.74V375.428H1391.55V320.103Z" fill="#628DFE" />
      <path
         d="M1511.32 613.452H1510.51V251.173L1486.97 237.569L1415.51 278.835V333.934H1414.7V278.381L1486.97 236.627L1511.32 250.686V613.452Z"
         fill="#628DFE" />
      <path d="M1487.36 237.114H1486.55V613.452H1487.36V237.114Z" fill="#628DFE" />
      <path
         d="M1678.99 613.452H1678.18V292.667L1582.75 237.569L1511.13 278.965L1510.71 278.251L1582.75 236.627L1678.99 292.212V613.452Z"
         fill="#628DFE" />
      <path d="M1583.18 237.114H1582.36V613.452H1583.18V237.114Z" fill="#628DFE" />
      <path
         d="M1750.84 613.452H1750.03V168.152L1702.53 140.716L1631.07 181.983V264.777H1630.25V181.529L1702.53 139.775L1750.84 167.697V613.452Z"
         fill="#628DFE" />
      <path d="M1702.95 140.262H1702.14V613.452H1702.95V140.262Z" fill="#628DFE" />
      <path
         d="M1870.61 613.452H1869.8V292.667L1798.34 251.4L1750.64 278.965L1750.22 278.251L1798.34 250.458L1870.61 292.212V613.452Z"
         fill="#628DFE" />
      <path d="M1798.73 250.946H1797.92V613.452H1798.73V250.946Z" fill="#628DFE" />
      <path
         d="M1918.5 613.452H1917.69V237.342L1894.15 223.738L1846.65 251.173V278.609H1845.84V250.686L1894.15 222.796L1918.5 236.855V613.452Z"
         fill="#628DFE" />
      <path d="M1894.55 223.25H1893.73V613.419H1894.55V223.25Z" fill="#628DFE" />
      <path
         d="M1295.74 292.44H1294.92V153.866L1343.24 125.944L1439.47 181.529V264.777H1438.66V181.984L1343.24 126.885L1295.74 154.321V292.44Z"
         fill="#628DFE" />
      <path d="M1343.66 126.43H1342.85V347.895H1343.66V126.43Z" fill="#628DFE" />
      <path
         d="M1415.51 167.925H1414.7V57.4682L1367.2 30.0326L1319.67 57.4682V140.132H1318.85V57.0136L1367.2 29.0911L1415.51 57.0136V167.925Z"
         fill="#628DFE" />
      <path d="M1367.59 29.5784H1366.78V140.262H1367.59V29.5784Z" fill="#628DFE" />
      <path
         d="M792.739 167.925H791.927V140.489L672.574 71.5595L625.073 98.995V154.093H624.262V98.508L672.574 70.6179L672.769 70.7478L792.739 140.035V167.925Z"
         fill="#628DFE" />
      <path d="M672.964 71.0723H672.152V181.756H672.964V71.0723Z" fill="#628DFE" />
      <path
         d="M768.781 126.657H767.969V43.6365L696.539 2.36955L649.038 29.8051V84.9034H648.227V29.3505L696.539 1.42798L768.781 43.1819V126.657Z"
         fill="#628DFE" />
      <path d="M696.927 1.91553H696.115V84.9364H696.927V1.91553Z" fill="#628DFE" />
      <path
         d="M649.035 613.452H648.223V417.182L576.761 375.915L529.26 403.351V613.452H528.448V402.896L576.761 374.974L649.035 416.728V613.452Z"
         fill="#628DFE" />
      <path d="M577.183 375.461H576.371V613.452H577.183V375.461Z" fill="#628DFE" />
      <path
         d="M960.405 613.452H959.594V486.372L888.132 445.105L840.663 472.54V613.452H839.852V472.053L888.132 444.163L960.405 485.885V613.452Z"
         fill="#628DFE" />
      <path d="M888.553 444.617H887.741V613.451H888.553V444.617Z" fill="#628DFE" />
      <path
         d="M3.83123 292.57C3.83563 292.823 3.78909 293.074 3.69437 293.308C3.59966 293.542 3.45872 293.755 3.27996 293.934C3.10119 294.113 2.88826 294.254 2.65386 294.348C2.41946 294.443 2.16839 294.49 1.91562 294.485C1.40756 294.485 0.920318 294.283 0.56107 293.924C0.201823 293.565 0 293.078 0 292.57C0.00835617 292.064 0.212862 291.582 0.570315 291.224C0.927767 290.867 1.41017 290.662 1.91562 290.654C2.42367 290.654 2.91091 290.856 3.27016 291.215C3.62941 291.574 3.83123 292.062 3.83123 292.57Z"
         fill="#628DFE" />
      <path
         d="M49.7066 266.693C50.7646 266.693 51.6222 265.835 51.6222 264.777C51.6222 263.719 50.7646 262.861 49.7066 262.861C48.6487 262.861 47.791 263.719 47.791 264.777C47.791 265.835 48.6487 266.693 49.7066 266.693Z"
         fill="#628DFE" />
      <path
         d="M99.4191 292.57C99.4191 292.949 99.3068 293.319 99.0963 293.634C98.8858 293.949 98.5866 294.195 98.2366 294.34C97.8865 294.484 97.5014 294.522 97.1298 294.449C96.7582 294.375 96.4169 294.192 96.149 293.924C95.8811 293.656 95.6986 293.315 95.6247 292.943C95.5508 292.572 95.5887 292.187 95.7337 291.837C95.8787 291.487 96.1242 291.187 96.4392 290.977C96.7543 290.766 97.1246 290.654 97.5035 290.654C98.0116 290.654 98.4988 290.856 98.8581 291.215C99.2173 291.574 99.4191 292.062 99.4191 292.57Z"
         fill="#628DFE" />
      <path
         d="M73.7672 308.447C74.8251 308.447 75.6828 307.589 75.6828 306.531C75.6828 305.473 74.8251 304.615 73.7672 304.615C72.7092 304.615 71.8516 305.473 71.8516 306.531C71.8516 307.589 72.7092 308.447 73.7672 308.447Z"
         fill="#628DFE" />
      <path
         d="M121.558 280.524C122.616 280.524 123.474 279.666 123.474 278.608C123.474 277.551 122.616 276.693 121.558 276.693C120.5 276.693 119.643 277.551 119.643 278.608C119.643 279.666 120.5 280.524 121.558 280.524Z"
         fill="#628DFE" />
      <path
         d="M147.533 292.57C147.533 292.949 147.421 293.319 147.211 293.634C147 293.949 146.701 294.195 146.351 294.34C146.001 294.484 145.616 294.522 145.244 294.449C144.872 294.375 144.531 294.192 144.263 293.924C143.995 293.656 143.813 293.315 143.739 292.943C143.665 292.572 143.703 292.187 143.848 291.837C143.993 291.487 144.238 291.187 144.554 290.977C144.869 290.766 145.239 290.654 145.618 290.654C146.126 290.654 146.613 290.856 146.972 291.215C147.332 291.574 147.533 292.062 147.533 292.57Z"
         fill="#628DFE" />
      <path
         d="M169.579 308.252C170.637 308.252 171.494 307.394 171.494 306.336C171.494 305.278 170.637 304.42 169.579 304.42C168.521 304.42 167.663 305.278 167.663 306.336C167.663 307.394 168.521 308.252 169.579 308.252Z"
         fill="#628DFE" />
      <path
         d="M169.579 114.515C170.637 114.515 171.494 113.657 171.494 112.599C171.494 111.541 170.637 110.684 169.579 110.684C168.521 110.684 167.663 111.541 167.663 112.599C167.663 113.657 168.521 114.515 169.579 114.515Z"
         fill="#628DFE" />
      <path
         d="M217.468 142.08C218.526 142.08 219.384 141.223 219.384 140.165C219.384 139.107 218.526 138.249 217.468 138.249C216.41 138.249 215.553 139.107 215.553 140.165C215.553 141.223 216.41 142.08 217.468 142.08Z"
         fill="#628DFE" />
      <path
         d="M267.311 223.283C267.311 223.662 267.198 224.032 266.988 224.347C266.777 224.662 266.478 224.908 266.128 225.053C265.778 225.198 265.393 225.236 265.021 225.162C264.65 225.088 264.308 224.905 264.041 224.637C263.773 224.369 263.59 224.028 263.516 223.656C263.442 223.285 263.48 222.9 263.625 222.55C263.77 222.2 264.016 221.9 264.331 221.69C264.646 221.48 265.016 221.367 265.395 221.367C265.903 221.367 266.39 221.569 266.75 221.928C267.109 222.288 267.311 222.775 267.311 223.283Z"
         fill="#628DFE" />
      <path
         d="M267.311 333.967C267.311 334.346 267.198 334.716 266.988 335.031C266.777 335.346 266.478 335.592 266.128 335.737C265.778 335.882 265.393 335.92 265.021 335.846C264.65 335.772 264.308 335.589 264.041 335.321C263.773 335.054 263.59 334.712 263.516 334.341C263.442 333.969 263.48 333.584 263.625 333.234C263.77 332.884 264.016 332.585 264.331 332.374C264.646 332.164 265.016 332.051 265.395 332.051C265.903 332.051 266.39 332.253 266.75 332.612C267.109 332.972 267.311 333.459 267.311 333.967Z"
         fill="#628DFE" />
      <path
         d="M241.43 322.018C242.488 322.018 243.346 321.16 243.346 320.102C243.346 319.044 242.488 318.187 241.43 318.187C240.372 318.187 239.515 319.044 239.515 320.102C239.515 321.16 240.372 322.018 241.43 322.018Z"
         fill="#628DFE" />
      <path
         d="M217.468 252.894C218.526 252.894 219.384 252.036 219.384 250.978C219.384 249.92 218.526 249.062 217.468 249.062C216.41 249.062 215.553 249.92 215.553 250.978C215.553 252.036 216.41 252.894 217.468 252.894Z"
         fill="#628DFE" />
      <path
         d="M193.541 266.66C194.599 266.66 195.456 265.802 195.456 264.744C195.456 263.687 194.599 262.829 193.541 262.829C192.483 262.829 191.625 263.687 191.625 264.744C191.625 265.802 192.483 266.66 193.541 266.66Z"
         fill="#628DFE" />
      <path
         d="M193.541 322.018C194.599 322.018 195.456 321.16 195.456 320.102C195.456 319.044 194.599 318.187 193.541 318.187C192.483 318.187 191.625 319.044 191.625 320.102C191.625 321.16 192.483 322.018 193.541 322.018Z"
         fill="#628DFE" />
      <path
         d="M193.541 349.681C194.599 349.681 195.456 348.824 195.456 347.766C195.456 346.708 194.599 345.85 193.541 345.85C192.483 345.85 191.625 346.708 191.625 347.766C191.625 348.824 192.483 349.681 193.541 349.681Z"
         fill="#628DFE" />
      <path
         d="M169.579 363.578C170.637 363.578 171.494 362.72 171.494 361.662C171.494 360.604 170.637 359.746 169.579 359.746C168.521 359.746 167.663 360.604 167.663 361.662C167.663 362.72 168.521 363.578 169.579 363.578Z"
         fill="#628DFE" />
      <path
         d="M291.173 238.348C291.173 238.728 291.06 239.1 290.848 239.415C290.636 239.731 290.335 239.976 289.983 240.12C289.631 240.264 289.244 240.3 288.872 240.224C288.499 240.147 288.158 239.962 287.891 239.69C287.625 239.419 287.445 239.075 287.375 238.701C287.305 238.327 287.347 237.941 287.497 237.592C287.647 237.242 287.898 236.946 288.217 236.739C288.536 236.533 288.91 236.426 289.29 236.432C289.54 236.432 289.787 236.482 290.018 236.579C290.249 236.675 290.458 236.817 290.633 236.995C290.808 237.173 290.946 237.385 291.039 237.617C291.132 237.849 291.177 238.098 291.173 238.348Z"
         fill="#628DFE" />
      <path
         d="M289.32 183.671C290.378 183.671 291.236 182.814 291.236 181.756C291.236 180.698 290.378 179.84 289.32 179.84C288.262 179.84 287.404 180.698 287.404 181.756C287.404 182.814 288.262 183.671 289.32 183.671Z"
         fill="#628DFE" />
      <path
         d="M337.246 156.009C338.304 156.009 339.161 155.152 339.161 154.094C339.161 153.036 338.304 152.178 337.246 152.178C336.188 152.178 335.33 153.036 335.33 154.094C335.33 155.152 336.188 156.009 337.246 156.009Z"
         fill="#628DFE" />
      <path
         d="M433.059 211.465C434.117 211.465 434.975 210.607 434.975 209.549C434.975 208.491 434.117 207.633 433.059 207.633C432.001 207.633 431.144 208.491 431.144 209.549C431.144 210.607 432.001 211.465 433.059 211.465Z"
         fill="#628DFE" />
      <path
         d="M433.059 294.355C434.117 294.355 434.975 293.497 434.975 292.44C434.975 291.382 434.117 290.524 433.059 290.524C432.001 290.524 431.144 291.382 431.144 292.44C431.144 293.497 432.001 294.355 433.059 294.355Z"
         fill="#628DFE" />
      <path
         d="M363.124 333.967C363.115 334.473 362.911 334.955 362.553 335.313C362.196 335.67 361.713 335.875 361.208 335.883C360.7 335.883 360.213 335.681 359.853 335.322C359.494 334.962 359.292 334.475 359.292 333.967C359.288 333.714 359.334 333.463 359.429 333.229C359.524 332.995 359.665 332.782 359.844 332.603C360.022 332.424 360.235 332.283 360.47 332.188C360.704 332.094 360.955 332.047 361.208 332.052C361.716 332.052 362.203 332.253 362.562 332.613C362.922 332.972 363.124 333.459 363.124 333.967Z"
         fill="#628DFE" />
      <path
         d="M433.059 101.008C434.117 101.008 434.975 100.15 434.975 99.0924C434.975 98.0344 434.117 97.1768 433.059 97.1768C432.001 97.1768 431.144 98.0344 431.144 99.0924C431.144 100.15 432.001 101.008 433.059 101.008Z"
         fill="#628DFE" />
      <path
         d="M458.936 278.608C458.936 279.117 458.734 279.604 458.375 279.963C458.016 280.322 457.528 280.524 457.02 280.524C456.768 280.528 456.517 280.482 456.282 280.387C456.048 280.293 455.835 280.152 455.656 279.973C455.477 279.794 455.336 279.581 455.242 279.347C455.147 279.112 455.1 278.861 455.105 278.608C455.105 278.1 455.307 277.613 455.666 277.254C456.025 276.895 456.512 276.693 457.02 276.693C457.526 276.701 458.008 276.906 458.366 277.263C458.723 277.621 458.928 278.103 458.936 278.608Z"
         fill="#628DFE" />
      <path
         d="M480.95 294.355C482.008 294.355 482.865 293.497 482.865 292.44C482.865 291.382 482.008 290.524 480.95 290.524C479.892 290.524 479.034 291.382 479.034 292.44C479.034 293.497 479.892 294.355 480.95 294.355Z"
         fill="#628DFE" />
      <path
         d="M504.91 308.154C505.968 308.154 506.825 307.296 506.825 306.238C506.825 305.18 505.968 304.323 504.91 304.323C503.852 304.323 502.994 305.18 502.994 306.238C502.994 307.296 503.852 308.154 504.91 308.154Z"
         fill="#628DFE" />
      <path
         d="M480.95 72.9882C482.008 72.9882 482.865 72.1306 482.865 71.0726C482.865 70.0146 482.008 69.157 480.95 69.157C479.892 69.157 479.034 70.0146 479.034 71.0726C479.034 72.1306 479.892 72.9882 480.95 72.9882Z"
         fill="#628DFE" />
      <path
         d="M576.763 128.476C577.821 128.476 578.679 127.618 578.679 126.56C578.679 125.502 577.821 124.645 576.763 124.645C575.705 124.645 574.848 125.502 574.848 126.56C574.848 127.618 575.705 128.476 576.763 128.476Z"
         fill="#628DFE" />
      <path
         d="M624.683 100.651C625.741 100.651 626.599 99.7937 626.599 98.7357C626.599 97.6777 625.741 96.8201 624.683 96.8201C623.625 96.8201 622.768 97.6777 622.768 98.7357C622.768 99.7937 623.625 100.651 624.683 100.651Z"
         fill="#628DFE" />
      <path
         d="M624.683 156.009C625.741 156.009 626.599 155.152 626.599 154.094C626.599 153.036 625.741 152.178 624.683 152.178C623.625 152.178 622.768 153.036 622.768 154.094C622.768 155.152 623.625 156.009 624.683 156.009Z"
         fill="#628DFE" />
      <path
         d="M672.575 72.9882C673.633 72.9882 674.49 72.1306 674.49 71.0726C674.49 70.0146 673.633 69.157 672.575 69.157C671.517 69.157 670.659 70.0146 670.659 71.0726C670.659 72.1306 671.517 72.9882 672.575 72.9882Z"
         fill="#628DFE" />
      <path
         d="M672.575 183.671C673.633 183.671 674.49 182.814 674.49 181.756C674.49 180.698 673.633 179.84 672.575 179.84C671.517 179.84 670.659 180.698 670.659 181.756C670.659 182.814 671.517 183.671 672.575 183.671Z"
         fill="#628DFE" />
      <path
         d="M696.539 197.503C697.597 197.503 698.454 196.645 698.454 195.587C698.454 194.529 697.597 193.671 696.539 193.671C695.481 193.671 694.623 194.529 694.623 195.587C694.623 196.645 695.481 197.503 696.539 197.503Z"
         fill="#628DFE" />
      <path
         d="M696.539 252.894C697.597 252.894 698.454 252.036 698.454 250.978C698.454 249.92 697.597 249.062 696.539 249.062C695.481 249.062 694.623 249.92 694.623 250.978C694.623 252.036 695.481 252.894 696.539 252.894Z"
         fill="#628DFE" />
      <path
         d="M624.683 294.355C625.741 294.355 626.599 293.497 626.599 292.44C626.599 291.382 625.741 290.524 624.683 290.524C623.625 290.524 622.768 291.382 622.768 292.44C622.768 293.497 623.625 294.355 624.683 294.355Z"
         fill="#628DFE" />
      <path
         d="M624.683 405.039C625.741 405.039 626.599 404.182 626.599 403.124C626.599 402.066 625.741 401.208 624.683 401.208C623.625 401.208 622.768 402.066 622.768 403.124C622.768 404.182 623.625 405.039 624.683 405.039Z"
         fill="#628DFE" />
      <path
         d="M600.722 391.208C601.78 391.208 602.638 390.35 602.638 389.292C602.638 388.234 601.78 387.377 600.722 387.377C599.664 387.377 598.807 388.234 598.807 389.292C598.807 390.35 599.664 391.208 600.722 391.208Z"
         fill="#628DFE" />
      <path
         d="M576.763 377.376C577.821 377.376 578.679 376.519 578.679 375.461C578.679 374.403 577.821 373.545 576.763 373.545C575.705 373.545 574.848 374.403 574.848 375.461C574.848 376.519 575.705 377.376 576.763 377.376Z"
         fill="#628DFE" />
      <path
         d="M528.871 405.039C529.929 405.039 530.786 404.182 530.786 403.124C530.786 402.066 529.929 401.208 528.871 401.208C527.813 401.208 526.955 402.066 526.955 403.124C526.955 404.182 527.813 405.039 528.871 405.039Z"
         fill="#628DFE" />
      <path
         d="M720.464 239.03C721.522 239.03 722.38 238.172 722.38 237.114C722.38 236.056 721.522 235.198 720.464 235.198C719.406 235.198 718.549 236.056 718.549 237.114C718.549 238.172 719.406 239.03 720.464 239.03Z"
         fill="#628DFE" />
      <path
         d="M768.391 266.628C769.449 266.628 770.307 265.77 770.307 264.712C770.307 263.654 769.449 262.796 768.391 262.796C767.333 262.796 766.476 263.654 766.476 264.712C766.476 265.77 767.333 266.628 768.391 266.628Z"
         fill="#628DFE" />
      <path
         d="M648.613 86.8195C649.671 86.8195 650.529 85.9619 650.529 84.9039C650.529 83.8459 649.671 82.9883 648.613 82.9883C647.555 82.9883 646.697 83.8459 646.697 84.9039C646.697 85.9619 647.555 86.8195 648.613 86.8195Z"
         fill="#628DFE" />
      <path
         d="M648.613 30.9421C649.671 30.9421 650.529 30.0844 650.529 29.0265C650.529 27.9685 649.671 27.1108 648.613 27.1108C647.555 27.1108 646.697 27.9685 646.697 29.0265C646.697 30.0844 647.555 30.9421 648.613 30.9421Z"
         fill="#628DFE" />
      <path
         d="M696.539 3.83123C697.597 3.83123 698.454 2.97358 698.454 1.91562C698.454 0.857651 697.597 0 696.539 0C695.481 0 694.623 0.857651 694.623 1.91562C694.623 2.97358 695.481 3.83123 696.539 3.83123Z"
         fill="#628DFE" />
      <path
         d="M696.539 86.8195C697.597 86.8195 698.454 85.9619 698.454 84.9039C698.454 83.8459 697.597 82.9883 696.539 82.9883C695.481 82.9883 694.623 83.8459 694.623 84.9039C694.623 85.9619 695.481 86.8195 696.539 86.8195Z"
         fill="#628DFE" />
      <path
         d="M768.391 45.3256C769.449 45.3256 770.307 44.468 770.307 43.41C770.307 42.352 769.449 41.4944 768.391 41.4944C767.333 41.4944 766.476 42.352 766.476 43.41C766.476 44.468 767.333 45.3256 768.391 45.3256Z"
         fill="#628DFE" />
      <path
         d="M768.391 128.347C769.449 128.347 770.307 127.489 770.307 126.431C770.307 125.373 769.449 124.515 768.391 124.515C767.333 124.515 766.476 125.373 766.476 126.431C766.476 127.489 767.333 128.347 768.391 128.347Z"
         fill="#628DFE" />
      <path
         d="M792.35 142.178C793.408 142.178 794.266 141.32 794.266 140.262C794.266 139.204 793.408 138.347 792.35 138.347C791.292 138.347 790.435 139.204 790.435 140.262C790.435 141.32 791.292 142.178 792.35 142.178Z"
         fill="#628DFE" />
      <path
         d="M888.131 169.84C889.189 169.84 890.047 168.982 890.047 167.924C890.047 166.866 889.189 166.009 888.131 166.009C887.073 166.009 886.216 166.866 886.216 167.924C886.216 168.982 887.073 169.84 888.131 169.84Z"
         fill="#628DFE" />
      <path
         d="M1009.82 98.768C1009.86 99.0382 1009.83 99.313 1009.76 99.5738C1009.68 99.8346 1009.54 100.075 1009.36 100.28C1009.18 100.485 1008.96 100.649 1008.71 100.762C1008.46 100.874 1008.2 100.932 1007.92 100.932C1007.65 100.932 1007.38 100.874 1007.13 100.762C1006.88 100.649 1006.66 100.485 1006.48 100.28C1006.3 100.075 1006.17 99.8346 1006.09 99.5738C1006.01 99.313 1005.99 99.0382 1006.02 98.768C1005.99 98.4977 1006.01 98.223 1006.09 97.9622C1006.17 97.7014 1006.3 97.4605 1006.48 97.2556C1006.66 97.0508 1006.88 96.8866 1007.13 96.7741C1007.38 96.6617 1007.65 96.6035 1007.92 96.6035C1008.2 96.6035 1008.46 96.6617 1008.71 96.7741C1008.96 96.8866 1009.18 97.0508 1009.36 97.2556C1009.54 97.4605 1009.68 97.7014 1009.76 97.9622C1009.83 98.223 1009.86 98.4977 1009.82 98.768Z"
         fill="#628DFE" />
      <path
         d="M1055.83 128.573C1056.89 128.573 1057.74 127.716 1057.74 126.658C1057.74 125.6 1056.89 124.742 1055.83 124.742C1054.77 124.742 1053.91 125.6 1053.91 126.658C1053.91 127.716 1054.77 128.573 1055.83 128.573Z"
         fill="#628DFE" />
      <path
         d="M1055.83 183.671C1056.89 183.671 1057.74 182.814 1057.74 181.756C1057.74 180.698 1056.89 179.84 1055.83 179.84C1054.77 179.84 1053.91 180.698 1053.91 181.756C1053.91 182.814 1054.77 183.671 1055.83 183.671Z"
         fill="#628DFE" />
      <path
         d="M1127.68 142.178C1128.74 142.178 1129.6 141.32 1129.6 140.262C1129.6 139.204 1128.74 138.347 1127.68 138.347C1126.63 138.347 1125.77 139.204 1125.77 140.262C1125.77 141.32 1126.63 142.178 1127.68 142.178Z"
         fill="#628DFE" />
      <path
         d="M1177.55 167.957C1177.55 168.337 1177.44 168.709 1177.23 169.025C1177.01 169.34 1176.71 169.586 1176.36 169.73C1176.01 169.874 1175.62 169.91 1175.25 169.833C1174.88 169.757 1174.54 169.571 1174.27 169.3C1174 169.029 1173.82 168.684 1173.75 168.311C1173.68 167.937 1173.73 167.551 1173.88 167.201C1174.03 166.852 1174.28 166.555 1174.6 166.348C1174.92 166.142 1175.29 166.035 1175.67 166.042C1176.17 166.05 1176.65 166.256 1177 166.614C1177.35 166.972 1177.55 167.455 1177.55 167.957Z"
         fill="#628DFE" />
      <path
         d="M1177.55 333.967C1177.55 334.347 1177.44 334.719 1177.23 335.035C1177.01 335.35 1176.71 335.596 1176.36 335.74C1176.01 335.884 1175.62 335.92 1175.25 335.843C1174.88 335.767 1174.54 335.581 1174.27 335.31C1174 335.039 1173.82 334.694 1173.75 334.321C1173.68 333.947 1173.73 333.561 1173.88 333.211C1174.03 332.862 1174.28 332.565 1174.6 332.359C1174.92 332.152 1175.29 332.045 1175.67 332.052C1175.92 332.052 1176.17 332.101 1176.4 332.198C1176.63 332.295 1176.84 332.436 1177.01 332.615C1177.19 332.793 1177.33 333.004 1177.42 333.237C1177.51 333.469 1177.56 333.717 1177.55 333.967Z"
         fill="#628DFE" />
      <path
         d="M1199.53 349.779C1200.59 349.779 1201.45 348.921 1201.45 347.863C1201.45 346.805 1200.59 345.948 1199.53 345.948C1198.47 345.948 1197.62 346.805 1197.62 347.863C1197.62 348.921 1198.47 349.779 1199.53 349.779Z"
         fill="#628DFE" />
      <path
         d="M1199.53 294.355C1200.59 294.355 1201.45 293.497 1201.45 292.44C1201.45 291.382 1200.59 290.524 1199.53 290.524C1198.47 290.524 1197.62 291.382 1197.62 292.44C1197.62 293.497 1198.47 294.355 1199.53 294.355Z"
         fill="#628DFE" />
      <path
         d="M1247.42 266.693C1248.48 266.693 1249.34 265.835 1249.34 264.777C1249.34 263.719 1248.48 262.861 1247.42 262.861C1246.37 262.861 1245.51 263.719 1245.51 264.777C1245.51 265.835 1246.37 266.693 1247.42 266.693Z"
         fill="#628DFE" />
      <path
         d="M1319.28 308.187C1320.33 308.187 1321.19 307.329 1321.19 306.271C1321.19 305.213 1320.33 304.356 1319.28 304.356C1318.22 304.356 1317.36 305.213 1317.36 306.271C1317.36 307.329 1318.22 308.187 1319.28 308.187Z"
         fill="#628DFE" />
      <path
         d="M1297.26 292.44C1297.27 292.692 1297.22 292.943 1297.12 293.178C1297.03 293.412 1296.89 293.625 1296.71 293.804C1296.53 293.983 1296.32 294.124 1296.08 294.218C1295.85 294.313 1295.6 294.36 1295.35 294.355C1295.07 294.391 1294.8 294.368 1294.54 294.289C1294.28 294.21 1294.04 294.076 1293.83 293.896C1293.63 293.716 1293.46 293.495 1293.35 293.246C1293.24 292.998 1293.18 292.729 1293.18 292.456C1293.18 292.183 1293.24 291.914 1293.35 291.666C1293.46 291.417 1293.63 291.196 1293.83 291.016C1294.04 290.836 1294.28 290.702 1294.54 290.623C1294.8 290.544 1295.07 290.521 1295.35 290.557C1295.6 290.552 1295.84 290.598 1296.08 290.69C1296.31 290.783 1296.52 290.921 1296.7 291.097C1296.88 291.272 1297.02 291.481 1297.11 291.711C1297.21 291.942 1297.26 292.19 1297.26 292.44Z"
         fill="#628DFE" />
      <path
         d="M1297.26 154.093C1297.27 154.346 1297.22 154.597 1297.13 154.831C1297.03 155.066 1296.89 155.278 1296.71 155.457C1296.53 155.636 1296.32 155.777 1296.08 155.872C1295.85 155.966 1295.6 156.013 1295.35 156.009C1294.84 156.009 1294.35 155.807 1293.99 155.447C1293.63 155.088 1293.43 154.601 1293.43 154.093C1293.44 153.587 1293.64 153.105 1294 152.748C1294.36 152.39 1294.84 152.186 1295.35 152.177C1295.85 152.177 1296.34 152.379 1296.7 152.738C1297.06 153.098 1297.26 153.585 1297.26 154.093Z"
         fill="#628DFE" />
      <path
         d="M1319.28 142.178C1320.33 142.178 1321.19 141.32 1321.19 140.262C1321.19 139.204 1320.33 138.347 1319.28 138.347C1318.22 138.347 1317.36 139.204 1317.36 140.262C1317.36 141.32 1318.22 142.178 1319.28 142.178Z"
         fill="#628DFE" />
      <path
         d="M1343.24 128.347C1344.29 128.347 1345.15 127.489 1345.15 126.431C1345.15 125.373 1344.29 124.515 1343.24 124.515C1342.18 124.515 1341.32 125.373 1341.32 126.431C1341.32 127.489 1342.18 128.347 1343.24 128.347Z"
         fill="#628DFE" />
      <path
         d="M1367.2 141.658C1368.26 141.658 1369.11 140.8 1369.11 139.742C1369.11 138.684 1368.26 137.827 1367.2 137.827C1366.14 137.827 1365.28 138.684 1365.28 139.742C1365.28 140.8 1366.14 141.658 1367.2 141.658Z"
         fill="#628DFE" />
      <path
         d="M1369.11 29.5778C1369.12 29.958 1369.01 30.3315 1368.81 30.6508C1368.6 30.97 1368.3 31.2206 1367.95 31.3706C1367.6 31.5205 1367.22 31.5631 1366.84 31.4929C1366.47 31.4227 1366.13 31.2429 1365.85 30.9763C1365.58 30.7097 1365.4 30.3685 1365.32 29.9961C1365.24 29.6236 1365.28 29.2368 1365.42 28.8849C1365.57 28.5329 1365.81 28.2318 1366.13 28.0199C1366.45 27.8079 1366.82 27.6947 1367.2 27.6946C1367.45 27.6903 1367.7 27.7358 1367.93 27.8285C1368.16 27.9212 1368.37 28.0593 1368.55 28.2346C1368.73 28.4099 1368.87 28.6189 1368.97 28.8495C1369.06 29.0802 1369.11 29.3277 1369.11 29.5778Z"
         fill="#628DFE" />
      <path
         d="M1415.09 59.2216C1416.15 59.2216 1417.01 58.364 1417.01 57.306C1417.01 56.248 1416.15 55.3904 1415.09 55.3904C1414.03 55.3904 1413.17 56.248 1413.17 57.306C1413.17 58.364 1414.03 59.2216 1415.09 59.2216Z"
         fill="#628DFE" />
      <path
         d="M1415.09 169.84C1416.15 169.84 1417.01 168.982 1417.01 167.924C1417.01 166.866 1416.15 166.009 1415.09 166.009C1414.03 166.009 1413.17 166.866 1413.17 167.924C1413.17 168.982 1414.03 169.84 1415.09 169.84Z"
         fill="#628DFE" />
      <path
         d="M1440.97 181.626C1440.97 182.005 1440.85 182.376 1440.64 182.691C1440.43 183.006 1440.13 183.251 1439.78 183.396C1439.43 183.541 1439.05 183.579 1438.68 183.505C1438.3 183.431 1437.96 183.249 1437.69 182.981C1437.43 182.713 1437.24 182.372 1437.17 182C1437.1 181.628 1437.13 181.243 1437.28 180.893C1437.42 180.543 1437.67 180.244 1437.99 180.034C1438.3 179.823 1438.67 179.711 1439.05 179.711C1439.3 179.706 1439.55 179.753 1439.79 179.848C1440.02 179.942 1440.23 180.083 1440.41 180.262C1440.59 180.441 1440.73 180.654 1440.83 180.888C1440.92 181.123 1440.97 181.374 1440.97 181.626Z"
         fill="#628DFE" />
      <path
         d="M1439.05 266.693C1440.11 266.693 1440.96 265.835 1440.96 264.777C1440.96 263.719 1440.11 262.861 1439.05 262.861C1437.99 262.861 1437.13 263.719 1437.13 264.777C1437.13 265.835 1437.99 266.693 1439.05 266.693Z"
         fill="#628DFE" />
      <path
         d="M1415.09 280.524C1416.15 280.524 1417.01 279.666 1417.01 278.608C1417.01 277.551 1416.15 276.693 1415.09 276.693C1414.03 276.693 1413.17 277.551 1413.17 278.608C1413.17 279.666 1414.03 280.524 1415.09 280.524Z"
         fill="#628DFE" />
      <path
         d="M1415.09 335.752C1416.15 335.752 1417.01 334.895 1417.01 333.837C1417.01 332.779 1416.15 331.921 1415.09 331.921C1414.03 331.921 1413.17 332.779 1413.17 333.837C1413.17 334.895 1414.03 335.752 1415.09 335.752Z"
         fill="#628DFE" />
      <path
         d="M1439.05 349.681C1440.11 349.681 1440.96 348.824 1440.96 347.766C1440.96 346.708 1440.11 345.85 1439.05 345.85C1437.99 345.85 1437.13 346.708 1437.13 347.766C1437.13 348.824 1437.99 349.681 1439.05 349.681Z"
         fill="#628DFE" />
      <path
         d="M1391.16 322.018C1392.22 322.018 1393.08 321.16 1393.08 320.102C1393.08 319.044 1392.22 318.187 1391.16 318.187C1390.1 318.187 1389.24 319.044 1389.24 320.102C1389.24 321.16 1390.1 322.018 1391.16 322.018Z"
         fill="#628DFE" />
      <path
         d="M1391.16 377.376C1392.22 377.376 1393.08 376.519 1393.08 375.461C1393.08 374.403 1392.22 373.545 1391.16 373.545C1390.1 373.545 1389.24 374.403 1389.24 375.461C1389.24 376.519 1390.1 377.376 1391.16 377.376Z"
         fill="#628DFE" />
      <path
         d="M1369.11 361.629C1369.15 361.9 1369.13 362.174 1369.05 362.435C1368.97 362.696 1368.83 362.937 1368.65 363.142C1368.47 363.347 1368.25 363.511 1368 363.623C1367.76 363.736 1367.49 363.794 1367.21 363.794C1366.94 363.794 1366.67 363.736 1366.42 363.623C1366.17 363.511 1365.95 363.347 1365.77 363.142C1365.59 362.937 1365.46 362.696 1365.38 362.435C1365.3 362.174 1365.28 361.9 1365.31 361.629C1365.28 361.359 1365.3 361.084 1365.38 360.824C1365.46 360.563 1365.59 360.322 1365.77 360.117C1365.95 359.912 1366.17 359.748 1366.42 359.635C1366.67 359.523 1366.94 359.465 1367.21 359.465C1367.49 359.465 1367.76 359.523 1368 359.635C1368.25 359.748 1368.47 359.912 1368.65 360.117C1368.83 360.322 1368.97 360.563 1369.05 360.824C1369.13 361.084 1369.15 361.359 1369.11 361.629Z"
         fill="#628DFE" />
      <path
         d="M1343.24 349.681C1344.29 349.681 1345.15 348.824 1345.15 347.766C1345.15 346.708 1344.29 345.85 1343.24 345.85C1342.18 345.85 1341.32 346.708 1341.32 347.766C1341.32 348.824 1342.18 349.681 1343.24 349.681Z"
         fill="#628DFE" />
      <path
         d="M1319.28 363.545C1320.33 363.545 1321.19 362.687 1321.19 361.629C1321.19 360.572 1320.33 359.714 1319.28 359.714C1318.22 359.714 1317.36 360.572 1317.36 361.629C1317.36 362.687 1318.22 363.545 1319.28 363.545Z"
         fill="#628DFE" />
      <path
         d="M1319.28 391.208C1320.33 391.208 1321.19 390.35 1321.19 389.292C1321.19 388.234 1320.33 387.377 1319.28 387.377C1318.22 387.377 1317.36 388.234 1317.36 389.292C1317.36 390.35 1318.22 391.208 1319.28 391.208Z"
         fill="#628DFE" />
      <path
         d="M1297.26 403.156C1297.27 403.409 1297.22 403.66 1297.12 403.894C1297.03 404.128 1296.89 404.341 1296.71 404.52C1296.53 404.699 1296.32 404.84 1296.08 404.935C1295.85 405.029 1295.6 405.076 1295.35 405.071C1295.07 405.107 1294.8 405.084 1294.54 405.005C1294.28 404.926 1294.04 404.792 1293.83 404.612C1293.63 404.432 1293.46 404.211 1293.35 403.962C1293.24 403.714 1293.18 403.445 1293.18 403.172C1293.18 402.899 1293.24 402.63 1293.35 402.382C1293.46 402.133 1293.63 401.912 1293.83 401.732C1294.04 401.552 1294.28 401.418 1294.54 401.339C1294.8 401.26 1295.07 401.237 1295.35 401.273C1295.6 401.268 1295.84 401.314 1296.08 401.407C1296.31 401.499 1296.52 401.637 1296.7 401.813C1296.88 401.988 1297.02 402.197 1297.11 402.428C1297.21 402.658 1297.26 402.906 1297.26 403.156Z"
         fill="#628DFE" />
      <path
         d="M1488.89 237.114C1488.88 237.62 1488.67 238.102 1488.32 238.46C1487.96 238.817 1487.48 239.022 1486.97 239.03C1486.46 239.03 1485.98 238.828 1485.62 238.469C1485.26 238.11 1485.06 237.622 1485.06 237.114C1485.05 236.862 1485.1 236.611 1485.19 236.376C1485.29 236.142 1485.43 235.929 1485.61 235.75C1485.79 235.571 1486 235.43 1486.23 235.336C1486.47 235.241 1486.72 235.194 1486.97 235.199C1487.48 235.199 1487.97 235.401 1488.33 235.76C1488.69 236.119 1488.89 236.606 1488.89 237.114Z"
         fill="#628DFE" />
      <path
         d="M1512.82 250.913C1512.82 251.293 1512.7 251.665 1512.49 251.981C1512.28 252.296 1511.98 252.542 1511.63 252.686C1511.28 252.83 1510.89 252.866 1510.52 252.789C1510.14 252.713 1509.8 252.527 1509.54 252.256C1509.27 251.985 1509.09 251.64 1509.02 251.267C1508.95 250.893 1508.99 250.507 1509.14 250.157C1509.29 249.808 1509.54 249.511 1509.86 249.305C1510.18 249.098 1510.55 248.991 1510.93 248.998C1511.44 249.006 1511.92 249.212 1512.27 249.57C1512.62 249.928 1512.82 250.411 1512.82 250.913Z"
         fill="#628DFE" />
      <path
         d="M1512.82 278.608C1512.85 278.879 1512.83 279.153 1512.75 279.414C1512.67 279.675 1512.54 279.916 1512.36 280.121C1512.18 280.326 1511.96 280.49 1511.71 280.602C1511.46 280.715 1511.19 280.773 1510.92 280.773C1510.64 280.773 1510.37 280.715 1510.13 280.602C1509.88 280.49 1509.66 280.326 1509.48 280.121C1509.3 279.916 1509.16 279.675 1509.08 279.414C1509 279.153 1508.98 278.879 1509.02 278.608C1508.98 278.338 1509 278.063 1509.08 277.803C1509.16 277.542 1509.3 277.301 1509.48 277.096C1509.66 276.891 1509.88 276.727 1510.13 276.614C1510.37 276.502 1510.64 276.444 1510.92 276.444C1511.19 276.444 1511.46 276.502 1511.71 276.614C1511.96 276.727 1512.18 276.891 1512.36 277.096C1512.54 277.301 1512.67 277.542 1512.75 277.803C1512.83 278.063 1512.85 278.338 1512.82 278.608Z"
         fill="#628DFE" />
      <path
         d="M1582.75 239.03C1583.81 239.03 1584.67 238.172 1584.67 237.114C1584.67 236.056 1583.81 235.198 1582.75 235.198C1581.69 235.198 1580.84 236.056 1580.84 237.114C1580.84 238.172 1581.69 239.03 1582.75 239.03Z"
         fill="#628DFE" />
      <path
         d="M1630.68 266.66C1631.73 266.66 1632.59 265.802 1632.59 264.744C1632.59 263.687 1631.73 262.829 1630.68 262.829C1629.62 262.829 1628.76 263.687 1628.76 264.744C1628.76 265.802 1629.62 266.66 1630.68 266.66Z"
         fill="#628DFE" />
      <path
         d="M1632.59 181.626C1632.59 182.005 1632.48 182.376 1632.27 182.691C1632.06 183.006 1631.76 183.251 1631.41 183.396C1631.06 183.541 1630.67 183.579 1630.3 183.505C1629.93 183.431 1629.59 183.249 1629.32 182.981C1629.05 182.713 1628.87 182.372 1628.8 182C1628.72 181.628 1628.76 181.243 1628.91 180.893C1629.05 180.543 1629.3 180.244 1629.61 180.034C1629.93 179.823 1630.3 179.711 1630.68 179.711C1630.93 179.706 1631.18 179.753 1631.41 179.848C1631.65 179.942 1631.86 180.083 1632.04 180.262C1632.22 180.441 1632.36 180.654 1632.46 180.888C1632.55 181.123 1632.6 181.374 1632.59 181.626Z"
         fill="#628DFE" />
      <path
         d="M1704.44 140.034C1704.45 140.415 1704.34 140.788 1704.14 141.107C1703.93 141.427 1703.63 141.677 1703.28 141.827C1702.93 141.977 1702.55 142.02 1702.18 141.949C1701.8 141.879 1701.46 141.699 1701.19 141.433C1700.91 141.166 1700.73 140.825 1700.65 140.453C1700.58 140.08 1700.61 139.693 1700.76 139.341C1700.9 138.989 1701.15 138.688 1701.46 138.476C1701.78 138.264 1702.15 138.151 1702.53 138.151C1702.78 138.147 1703.03 138.192 1703.26 138.285C1703.49 138.378 1703.7 138.516 1703.88 138.691C1704.06 138.866 1704.2 139.075 1704.3 139.306C1704.39 139.537 1704.44 139.784 1704.44 140.034Z"
         fill="#628DFE" />
      <path
         d="M1750.42 169.84C1751.48 169.84 1752.34 168.982 1752.34 167.924C1752.34 166.866 1751.48 166.009 1750.42 166.009C1749.36 166.009 1748.5 166.866 1748.5 167.924C1748.5 168.982 1749.36 169.84 1750.42 169.84Z"
         fill="#628DFE" />
      <path
         d="M1750.42 280.491C1751.48 280.491 1752.34 279.634 1752.34 278.576C1752.34 277.518 1751.48 276.66 1750.42 276.66C1749.36 276.66 1748.5 277.518 1748.5 278.576C1748.5 279.634 1749.36 280.491 1750.42 280.491Z"
         fill="#628DFE" />
      <path
         d="M1798.34 252.861C1799.4 252.861 1800.26 252.004 1800.26 250.946C1800.26 249.888 1799.4 249.03 1798.34 249.03C1797.28 249.03 1796.43 249.888 1796.43 250.946C1796.43 252.004 1797.28 252.861 1798.34 252.861Z"
         fill="#628DFE" />
      <path
         d="M1846.23 280.524C1847.29 280.524 1848.15 279.666 1848.15 278.608C1848.15 277.551 1847.29 276.693 1846.23 276.693C1845.17 276.693 1844.32 277.551 1844.32 278.608C1844.32 279.666 1845.17 280.524 1846.23 280.524Z"
         fill="#628DFE" />
      <path
         d="M1846.23 252.861C1847.29 252.861 1848.15 252.004 1848.15 250.946C1848.15 249.888 1847.29 249.03 1846.23 249.03C1845.17 249.03 1844.32 249.888 1844.32 250.946C1844.32 252.004 1845.17 252.861 1846.23 252.861Z"
         fill="#628DFE" />
      <path
         d="M1896.07 223.283C1896.07 223.533 1896.02 223.78 1895.92 224.011C1895.83 224.241 1895.69 224.45 1895.51 224.626C1895.33 224.801 1895.12 224.939 1894.89 225.032C1894.65 225.125 1894.4 225.17 1894.15 225.166C1893.77 225.166 1893.4 225.052 1893.09 224.84C1892.77 224.629 1892.53 224.327 1892.38 223.975C1892.24 223.624 1892.2 223.237 1892.28 222.864C1892.36 222.492 1892.54 222.151 1892.81 221.884C1893.08 221.617 1893.43 221.438 1893.8 221.367C1894.17 221.297 1894.56 221.34 1894.91 221.49C1895.26 221.64 1895.56 221.89 1895.76 222.21C1895.97 222.529 1896.08 222.902 1896.07 223.283Z"
         fill="#628DFE" />
      <path
         d="M1920.03 237.016C1920.02 237.522 1919.82 238.004 1919.46 238.362C1919.1 238.719 1918.62 238.924 1918.12 238.932C1917.61 238.932 1917.12 238.73 1916.76 238.371C1916.4 238.012 1916.2 237.524 1916.2 237.016C1916.2 236.508 1916.4 236.021 1916.76 235.662C1917.12 235.303 1917.61 235.101 1918.12 235.101C1918.62 235.109 1919.1 235.314 1919.46 235.671C1919.82 236.029 1920.02 236.511 1920.03 237.016Z"
         fill="#628DFE" />
      <path
         d="M1870.19 294.355C1871.25 294.355 1872.11 293.497 1872.11 292.44C1872.11 291.382 1871.25 290.524 1870.19 290.524C1869.14 290.524 1868.28 291.382 1868.28 292.44C1868.28 293.497 1869.14 294.355 1870.19 294.355Z"
         fill="#628DFE" />
      <path
         d="M1680.48 292.667C1680.49 293.048 1680.38 293.423 1680.17 293.743C1679.97 294.063 1679.67 294.313 1679.32 294.462C1678.97 294.611 1678.58 294.652 1678.2 294.579C1677.83 294.506 1677.48 294.323 1677.21 294.053C1676.94 293.784 1676.76 293.439 1676.69 293.065C1676.62 292.69 1676.66 292.302 1676.81 291.951C1676.95 291.6 1677.2 291.301 1677.52 291.093C1677.84 290.885 1678.22 290.777 1678.6 290.783C1679.1 290.783 1679.58 290.982 1679.93 291.335C1680.29 291.688 1680.48 292.167 1680.48 292.667Z"
         fill="#628DFE" />
      <path
         d="M1319.28 59.2216C1320.33 59.2216 1321.19 58.364 1321.19 57.306C1321.19 56.248 1320.33 55.3904 1319.28 55.3904C1318.22 55.3904 1317.36 56.248 1317.36 57.306C1317.36 58.364 1318.22 59.2216 1319.28 59.2216Z"
         fill="#628DFE" />
      <path
         d="M1223.49 363.545C1224.55 363.545 1225.41 362.687 1225.41 361.629C1225.41 360.572 1224.55 359.714 1223.49 359.714C1222.44 359.714 1221.58 360.572 1221.58 361.629C1221.58 362.687 1222.44 363.545 1223.49 363.545Z"
         fill="#628DFE" />
      <path
         d="M1127.68 308.187C1128.74 308.187 1129.6 307.329 1129.6 306.271C1129.6 305.213 1128.74 304.356 1127.68 304.356C1126.63 304.356 1125.77 305.213 1125.77 306.271C1125.77 307.329 1126.63 308.187 1127.68 308.187Z"
         fill="#628DFE" />
      <path
         d="M1103.72 294.355C1104.78 294.355 1105.63 293.497 1105.63 292.44C1105.63 291.382 1104.78 290.524 1103.72 290.524C1102.66 290.524 1101.8 291.382 1101.8 292.44C1101.8 293.497 1102.66 294.355 1103.72 294.355Z"
         fill="#628DFE" />
      <path
         d="M1055.83 322.018C1056.89 322.018 1057.74 321.16 1057.74 320.102C1057.74 319.044 1056.89 318.187 1055.83 318.187C1054.77 318.187 1053.91 319.044 1053.91 320.102C1053.91 321.16 1054.77 322.018 1055.83 322.018Z"
         fill="#628DFE" />
      <path
         d="M888.131 197.633C889.189 197.633 890.047 196.775 890.047 195.717C890.047 194.659 889.189 193.802 888.131 193.802C887.073 193.802 886.216 194.659 886.216 195.717C886.216 196.775 887.073 197.633 888.131 197.633Z"
         fill="#628DFE" />
      <path
         d="M914.008 209.322C914.044 209.592 914.021 209.867 913.942 210.128C913.863 210.389 913.729 210.63 913.549 210.835C913.369 211.039 913.148 211.204 912.899 211.316C912.651 211.428 912.382 211.487 912.109 211.487C911.836 211.487 911.567 211.428 911.319 211.316C911.07 211.204 910.849 211.039 910.669 210.835C910.489 210.63 910.355 210.389 910.276 210.128C910.197 209.867 910.174 209.592 910.21 209.322C910.174 209.052 910.197 208.777 910.276 208.516C910.355 208.256 910.489 208.015 910.669 207.81C910.849 207.605 911.07 207.441 911.319 207.328C911.567 207.216 911.836 207.158 912.109 207.158C912.382 207.158 912.651 207.216 912.899 207.328C913.148 207.441 913.369 207.605 913.549 207.81C913.729 208.015 913.863 208.256 913.942 208.516C914.021 208.777 914.044 209.052 914.008 209.322Z"
         fill="#628DFE" />
      <path
         d="M888.131 446.534C889.189 446.534 890.047 445.676 890.047 444.618C890.047 443.56 889.189 442.702 888.131 442.702C887.073 442.702 886.216 443.56 886.216 444.618C886.216 445.676 887.073 446.534 888.131 446.534Z"
         fill="#628DFE" />
      <path
         d="M792.35 169.84C793.408 169.84 794.266 168.982 794.266 167.924C794.266 166.866 793.408 166.009 792.35 166.009C791.292 166.009 790.435 166.866 790.435 167.924C790.435 168.982 791.292 169.84 792.35 169.84Z"
         fill="#628DFE" />
      <path
         d="M768.391 183.671C769.449 183.671 770.307 182.814 770.307 181.756C770.307 180.698 769.449 179.84 768.391 179.84C767.333 179.84 766.476 180.698 766.476 181.756C766.476 182.814 767.333 183.671 768.391 183.671Z"
         fill="#628DFE" />
      <path
         d="M816.28 156.009C817.338 156.009 818.195 155.152 818.195 154.094C818.195 153.036 817.338 152.178 816.28 152.178C815.222 152.178 814.364 153.036 814.364 154.094C814.364 155.152 815.222 156.009 816.28 156.009Z"
         fill="#628DFE" />
      <path
         d="M578.679 153.931C578.685 154.311 578.578 154.684 578.372 155.003C578.165 155.323 577.868 155.573 577.519 155.723C577.169 155.873 576.783 155.916 576.41 155.846C576.036 155.776 575.692 155.596 575.42 155.329C575.149 155.063 574.963 154.721 574.887 154.349C574.81 153.976 574.846 153.59 574.99 153.238C575.134 152.886 575.38 152.585 575.695 152.373C576.011 152.161 576.383 152.047 576.763 152.047C577.013 152.043 577.261 152.089 577.494 152.181C577.726 152.274 577.937 152.412 578.116 152.587C578.294 152.763 578.436 152.972 578.532 153.202C578.629 153.433 578.679 153.68 578.679 153.931Z"
         fill="#628DFE" />
      <path
         d="M504.91 197.503C505.968 197.503 506.825 196.645 506.825 195.587C506.825 194.529 505.968 193.671 504.91 193.671C503.852 193.671 502.994 194.529 502.994 195.587C502.994 196.645 503.852 197.503 504.91 197.503Z"
         fill="#628DFE" />
      <path
         d="M600.722 142.178C601.78 142.178 602.638 141.32 602.638 140.262C602.638 139.204 601.78 138.347 600.722 138.347C599.664 138.347 598.807 139.204 598.807 140.262C598.807 141.32 599.664 142.178 600.722 142.178Z"
         fill="#628DFE" />
      <path
         d="M289.32 349.681C290.378 349.681 291.236 348.824 291.236 347.766C291.236 346.708 290.378 345.85 289.32 345.85C288.262 345.85 287.404 346.708 287.404 347.766C287.404 348.824 288.262 349.681 289.32 349.681Z"
         fill="#628DFE" />
      <path
         d="M145.618 128.314C146.676 128.314 147.533 127.456 147.533 126.399C147.533 125.341 146.676 124.483 145.618 124.483C144.56 124.483 143.702 125.341 143.702 126.399C143.702 127.456 144.56 128.314 145.618 128.314Z"
         fill="#628DFE" />
   </g>
   <defs>
      <clipPath id="clip0_522_370">
         <rect width="1920" height="449" fill="white" />
      </clipPath>
   </defs>
</svg>