<svg width="20" height="20" viewBox="0 0 20 20" fill="none" xmlns="http://www.w3.org/2000/svg">
<g clip-path="url(#clip0_392_736)">
<path d="M15.1112 19.1115H4.4445C1.9945 19.1115 0 17.117 0 14.667V10.667H19.5555V14.667C19.5555 17.117 17.561 19.1115 15.1112 19.1115ZM0.888833 11.5558V14.667C0.888833 16.6281 2.48342 18.2225 4.4445 18.2225H15.1112C17.0723 18.2225 18.6667 16.6281 18.6667 14.667V11.5558H0.888833Z" fill="#969BA9"/>
<path d="M5.33268 18.6667H6.22152V20H5.33268V18.6667ZM13.3327 18.6667H14.2215V20H13.3327V18.6667ZM3.55485 11.1112H2.66602V3.11117C2.66602 1.39438 4.06039 0 5.77718 0C7.49385 0 8.88818 1.39438 8.88818 3.11117V3.5555H7.99935V3.11117C7.99935 1.88329 7.00489 0.888833 5.77718 0.888833C4.54931 0.888833 3.55485 1.88329 3.55485 3.11117V11.1112Z" fill="#969BA9"/>
<path d="M11.5562 7.11133H5.33398V6.22233C5.33398 4.50566 6.72836 3.11133 8.44515 3.11133C10.1618 3.11133 11.5562 4.5057 11.5562 6.22233V7.11133ZM6.22282 6.22233H10.6673C10.6673 4.99462 9.67286 4.00016 8.44515 4.00016C7.21728 4.00016 6.22282 4.99462 6.22282 6.22233Z" fill="#969BA9"/>
</g>
<defs>
<clipPath id="clip0_392_736">
<rect width="20" height="20" fill="white"/>
</clipPath>
</defs>
</svg>
