<svg width="17" height="17" viewBox="0 0 17 17" fill="none" xmlns="http://www.w3.org/2000/svg">
<path d="M1.34375 12.6398V11.6398H15.3438V12.6711C15.3438 13.5461 14.9375 14.3273 14.3438 14.8898V16.1398C14.3438 16.4211 14.0938 16.6398 13.8438 16.6398H12.8438C12.5625 16.6398 12.3438 16.4211 12.3438 16.1398V15.6711H4.34375V16.1398C4.34375 16.4211 4.09375 16.6398 3.84375 16.6398H2.84375C2.5625 16.6398 2.34375 16.4211 2.34375 16.1398V14.8898C1.71875 14.3273 1.34375 13.5461 1.34375 12.6398ZM15.8438 8.63983C16.0938 8.63983 16.3438 8.88983 16.3438 9.13983V10.1398C16.3438 10.4211 16.0938 10.6398 15.8438 10.6398H0.84375C0.5625 10.6398 0.34375 10.4211 0.34375 10.1398V9.13983C0.34375 8.88983 0.5625 8.63983 0.84375 8.63983L1.34375 8.67108V3.07733C1.34375 1.73358 2.40625 0.639832 3.75 0.639832C4.375 0.639832 5 0.921082 5.4375 1.35858L5.875 1.79608C6.71875 1.51483 7.53125 1.70233 8.125 2.13983C8.3125 1.95233 8.625 1.95233 8.84375 2.13983L9.1875 2.51483C9.375 2.70233 9.375 3.01483 9.1875 3.20233L5.875 6.51483C5.6875 6.70233 5.375 6.70233 5.1875 6.51483L4.84375 6.13983C4.625 5.95233 4.625 5.63983 4.84375 5.45233C4.375 4.85858 4.1875 4.04608 4.46875 3.20233L4.03125 2.76483C3.8125 2.54608 3.3125 2.73358 3.34375 3.07733V8.63983H15.8438Z" fill="#0B0B0E"/>
</svg>
