<svg width="21" height="15" viewBox="0 0 21 15" fill="none" xmlns="http://www.w3.org/2000/svg">
   <path
      d="M5.8418 8.63788C4.43555 8.63788 3.3418 7.54413 3.3418 6.13788C3.3418 4.76288 4.43555 3.63788 5.8418 3.63788C7.2168 3.63788 8.3418 4.76288 8.3418 6.13788C8.3418 7.54413 7.2168 8.63788 5.8418 8.63788ZM17.3418 3.63788C18.998 3.63788 20.3418 4.98163 20.3418 6.63788V14.1379C20.3418 14.4191 20.0918 14.6379 19.8418 14.6379H18.8418C18.5605 14.6379 18.3418 14.4191 18.3418 14.1379V12.6379H2.3418V14.1379C2.3418 14.4191 2.0918 14.6379 1.8418 14.6379H0.841797C0.560547 14.6379 0.341797 14.4191 0.341797 14.1379V1.13788C0.341797 0.887878 0.560547 0.637878 0.841797 0.637878H1.8418C2.0918 0.637878 2.3418 0.887878 2.3418 1.13788V9.63788H9.3418V4.13788C9.3418 3.88788 9.56055 3.63788 9.8418 3.63788H17.3418Z"
      fill="#0B0B0E" />
</svg>