<svg width="34" height="34" viewBox="0 0 34 34" fill="none" xmlns="http://www.w3.org/2000/svg">
   <path
      d="M32.9875 9.65765L17.2836 0.147669C17.1965 0.0945226 17.0964 0.0664062 16.9943 0.0664062C16.8923 0.0664063 16.7922 0.0945226 16.7051 0.147669L1.0113 9.65765C0.930773 9.70876 0.865032 9.78007 0.820623 9.86449C0.776214 9.9489 0.754685 10.0435 0.758179 10.1388V33.3677C0.758179 33.6784 0.977765 33.9436 1.28841 33.9436H4.63718C4.78651 33.9401 4.92834 33.8775 5.03158 33.7695C5.13481 33.6616 5.19102 33.5171 5.18787 33.3677V17.4201H28.8129V33.3677C28.8097 33.5171 28.8659 33.6616 28.9692 33.7695C29.0724 33.8775 29.2142 33.9401 29.3636 33.9436H32.7123C33.023 33.9436 33.2426 33.6784 33.2426 33.3677V10.1389C33.2457 10.0434 33.2238 9.94877 33.1791 9.86434C33.1343 9.77991 33.0683 9.70865 32.9875 9.65765ZM5.18787 16.2951V14.0451H28.8129V16.2951H5.18787ZM32.1176 32.8186H29.9379V13.4878C29.9354 13.3368 29.8739 13.1929 29.7665 13.0868C29.6592 12.9807 29.5145 12.9208 29.3636 12.9201H4.63718C4.48623 12.9208 4.34156 12.9807 4.2342 13.0868C4.12684 13.1929 4.06533 13.3368 4.06287 13.4878V32.8186H1.88318V10.456L17.0004 1.28638L32.1176 10.456V32.8186Z"
      fill="#FF5C00" />
   <path
      d="M25.7378 23.7404L24.2512 19.7173C24.1169 19.3552 23.8758 19.0425 23.5597 18.8205C23.2437 18.5986 22.8676 18.478 22.4815 18.4746H11.7838C11.3976 18.478 11.0216 18.5987 10.7055 18.8206C10.3895 19.0425 10.1483 19.3552 10.014 19.7173L8.54812 23.679L7.97057 24.2238C7.6919 24.4638 7.46853 24.7613 7.31584 25.0959C7.16314 25.4305 7.08475 25.7942 7.08604 26.1619V33.3675C7.08319 33.517 7.13968 33.6615 7.24314 33.7694C7.3466 33.8773 7.4886 33.9399 7.63806 33.9434H11.3917C11.4654 33.9415 11.538 33.9251 11.6053 33.8952C11.6727 33.8652 11.7335 33.8222 11.7842 33.7687C11.8349 33.7153 11.8746 33.6523 11.9009 33.5834C11.9272 33.5146 11.9397 33.4412 11.9376 33.3675V31.3418H22.0626V33.3675C22.0605 33.4412 22.073 33.5146 22.0993 33.5834C22.1256 33.6523 22.1653 33.7153 22.216 33.7687C22.2667 33.8222 22.3275 33.8652 22.3949 33.8952C22.4622 33.9251 22.5348 33.9415 22.6085 33.9434H26.3621C26.5116 33.9399 26.6536 33.8773 26.7571 33.7694C26.8605 33.6615 26.917 33.517 26.9142 33.3675V26.0102C26.9145 25.6666 26.8456 25.3265 26.7115 25.0102C26.5774 24.6939 26.3809 24.4078 26.1337 24.1692L25.7378 23.7404ZM11.0689 20.1199C11.1223 19.9716 11.219 19.8427 11.3464 19.75C11.4739 19.6572 11.6262 19.6048 11.7838 19.5996H22.4815C22.639 19.6048 22.7914 19.6572 22.9188 19.75C23.0462 19.8427 23.1429 19.9716 23.1963 20.1199L24.4278 23.4668H9.83737L11.0689 20.1199ZM10.8126 32.8184H8.21104V31.3418H10.8126V32.8184ZM23.1876 32.8184V31.3418H25.7892V32.8184H23.1876ZM25.7892 30.2168H8.21104V26.1619C8.20991 25.9555 8.25386 25.7514 8.33983 25.5637C8.42581 25.3761 8.55172 25.2095 8.70878 25.0755C8.71525 25.0701 8.71898 25.0763 8.72524 25.0705L9.25026 24.5918H24.9714L25.3287 24.9616C25.3366 24.9701 25.3395 24.9724 25.348 24.9803C25.4879 25.1128 25.5992 25.2725 25.6751 25.4497C25.7509 25.6268 25.7898 25.8175 25.7892 26.0102V30.2168Z"
      fill="#FF5C00" />
   <path
      d="M10.9885 25.9277H10.6641C10.2258 25.9277 9.80555 26.1018 9.49568 26.4117C9.1858 26.7216 9.01172 27.1418 9.01172 27.5801C9.01172 28.0183 9.1858 28.4386 9.49568 28.7485C9.80555 29.0583 10.2258 29.2324 10.6641 29.2324H10.9885C11.4267 29.2324 11.847 29.0583 12.1569 28.7485C12.4667 28.4386 12.6408 28.0183 12.6408 27.5801C12.6408 27.1418 12.4667 26.7216 12.1569 26.4117C11.847 26.1018 11.4267 25.9277 10.9885 25.9277ZM10.9885 28.1074H10.6641C10.5242 28.1074 10.3901 28.0519 10.2912 27.953C10.1923 27.8541 10.1367 27.7199 10.1367 27.5801C10.1367 27.4402 10.1923 27.3061 10.2912 27.2072C10.3901 27.1083 10.5242 27.0527 10.6641 27.0527H10.9885C11.1283 27.0527 11.2625 27.1083 11.3614 27.2072C11.4603 27.3061 11.5158 27.4402 11.5158 27.5801C11.5158 27.7199 11.4603 27.8541 11.3614 27.953C11.2625 28.0519 11.1283 28.1074 10.9885 28.1074ZM23.3382 25.9277H23.0138C22.5755 25.9277 22.1552 26.1018 21.8454 26.4117C21.5355 26.7216 21.3614 27.1418 21.3614 27.5801C21.3614 28.0183 21.5355 28.4386 21.8454 28.7485C22.1552 29.0583 22.5755 29.2324 23.0138 29.2324H23.3382C23.7764 29.2324 24.1967 29.0583 24.5066 28.7485C24.8164 28.4386 24.9905 28.0183 24.9905 27.5801C24.9905 27.1418 24.8164 26.7216 24.5066 26.4117C24.1967 26.1018 23.7764 25.9277 23.3382 25.9277ZM23.3382 28.1074H23.0138C22.8739 28.1074 22.7398 28.0519 22.6409 27.953C22.542 27.8541 22.4864 27.7199 22.4864 27.5801C22.4864 27.4402 22.542 27.3061 22.6409 27.2072C22.7398 27.1083 22.8739 27.0527 23.0138 27.0527H23.3382C23.478 27.0527 23.6122 27.1083 23.7111 27.2072C23.81 27.3061 23.8655 27.4402 23.8655 27.5801C23.8655 27.7199 23.81 27.8541 23.7111 27.953C23.6122 28.0519 23.478 28.1074 23.3382 28.1074ZM20.3761 26.5605C20.3761 26.4114 20.3169 26.2683 20.2114 26.1628C20.1059 26.0573 19.9628 25.998 19.8136 25.998H14.1183C13.9691 25.998 13.826 26.0573 13.7206 26.1628C13.6151 26.2683 13.5558 26.4114 13.5558 26.5605V28.6699C13.5558 28.8191 13.6151 28.9622 13.7206 29.0677C13.826 29.1732 13.9691 29.2324 14.1183 29.2324H19.8136C19.9628 29.2324 20.1059 29.1732 20.2114 29.0677C20.3169 28.9622 20.3761 28.8191 20.3761 28.6699V26.5605ZM19.3214 28.1074H14.6808V27.123H19.3214V28.1074Z"
      fill="#FF5C00" />
</svg>