<svg width="45" height="45" viewBox="0 0 45 45" fill="none" xmlns="http://www.w3.org/2000/svg">
<path d="M16.5605 33.0164H30.744V37.8653H16.5605V33.0164Z" fill="#0B0B0E"/>
<path d="M30.7456 38.2893H16.5612C16.3266 38.2893 16.1367 38.0995 16.1367 37.8648V33.0163C16.1367 32.7817 16.3266 32.5918 16.5612 32.5918H30.7456C30.9803 32.5918 31.1702 32.7817 31.1702 33.0163V37.8648C31.1702 38.0995 30.9803 38.2893 30.7456 38.2893ZM16.9858 37.4403H30.3211V33.4409H16.9858V37.4403Z" fill="#0B0B0E"/>
<path d="M34.4499 40.0677V40.3337C34.4499 40.6487 34.1986 40.9 33.8834 40.9H13.4198C13.1096 40.9 12.8535 40.6487 12.8535 40.3337V40.0677C12.8535 38.8511 13.8484 37.8661 15.055 37.8661H32.2483C33.4649 37.8661 34.4499 38.8511 34.4499 40.0677Z" fill="#0B0B0E"/>
<path d="M33.8841 41.3245H13.4205C12.8741 41.3245 12.4297 40.88 12.4297 40.3336V40.0679C12.4297 38.6198 13.6079 37.4415 15.0556 37.4415H32.249C33.6967 37.4415 34.875 38.6198 34.875 40.0679V40.3336C34.875 40.88 34.4305 41.3245 33.8841 41.3245ZM15.0556 38.2906C14.0756 38.2906 13.2787 39.0878 13.2787 40.0679V40.3336C13.2787 40.412 13.3426 40.4754 13.4205 40.4754H33.8841C33.9645 40.4754 34.0259 40.4145 34.0259 40.3336V40.0679C34.0259 39.0878 33.2291 38.2906 32.249 38.2906H15.0556Z" fill="#0B0B0E"/>
<path d="M42.8765 6.26336V30.8531C42.8765 32.0497 41.9063 33.015 40.7144 33.015H6.59873C5.40198 33.015 4.43164 32.0497 4.43164 30.8531V6.26336C4.43164 5.06649 5.40198 4.1012 6.59873 4.1012H40.7144C41.9063 4.1012 42.8765 5.06649 42.8765 6.26336Z" fill="#0B0B0E"/>
<path d="M40.7146 33.4396H6.59893C5.17029 33.4396 4.00781 32.2792 4.00781 30.8531V6.26319C4.00781 4.83704 5.17029 3.67664 6.59893 3.67664H40.7146C42.1407 3.67664 43.3016 4.83704 43.3016 6.26319V30.8531C43.3016 32.2792 42.1407 33.4396 40.7146 33.4396ZM6.59893 4.52569C5.63876 4.52569 4.85687 5.3051 4.85687 6.26319V30.8531C4.85687 31.8112 5.63876 32.5906 6.59893 32.5906H40.7146C41.6731 32.5906 42.4525 31.8112 42.4525 30.8531V6.26319C42.4525 5.3051 41.6731 4.52569 40.7146 4.52569H6.59893Z" fill="#0B0B0E"/>
<path d="M40.5683 6.26506V30.8537C40.5683 32.0509 39.5919 33.0188 38.4032 33.0188H4.29663C3.09093 33.0188 2.12305 32.0509 2.12305 30.8537V6.26506C2.12305 5.06786 3.09093 4.09998 4.29663 4.09998H38.4032C39.5919 4.09998 40.5683 5.06786 40.5683 6.26506Z" fill="white"/>
<path d="M38.4043 33.4434H4.2978C2.86501 33.4434 1.69922 32.2817 1.69922 30.8539V6.26529C1.69922 4.83706 2.86501 3.67542 4.2978 3.67542H38.4043C39.8321 3.67542 40.9938 4.83706 40.9938 6.26529V30.8539C40.9938 32.2817 39.8321 33.4434 38.4043 33.4434ZM4.2978 4.52447C3.33349 4.52447 2.54828 5.30554 2.54828 6.26529V30.8539C2.54828 31.8137 3.33349 32.5943 4.2978 32.5943H38.4043C39.3637 32.5943 40.1447 31.8137 40.1447 30.8539V6.26529C40.1447 5.30554 39.3637 4.52447 38.4043 4.52447H4.2978Z" fill="#0B0B0E"/>
<path d="M40.5683 6.26506V9.69523H2.12305V6.26506C2.12305 5.06786 3.09093 4.09998 4.29663 4.09998H38.4032C39.5919 4.09998 40.5683 5.06786 40.5683 6.26506Z" fill="#0B0B0E"/>
<path d="M40.5693 10.1196H2.12375C1.8891 10.1196 1.69922 9.92975 1.69922 9.69509V6.26529C1.69922 4.83706 2.86501 3.67542 4.2978 3.67542H38.4043C39.8321 3.67542 40.9938 4.83706 40.9938 6.26529V9.69509C40.9938 9.92975 40.8039 10.1196 40.5693 10.1196ZM2.54828 9.27057H40.1447V6.26529C40.1447 5.30554 39.3637 4.52447 38.4043 4.52447H4.2978C3.33349 4.52447 2.54828 5.30554 2.54828 6.26529V9.27057Z" fill="#0B0B0E"/>
<path d="M14.2539 33.0164H28.4374V37.8653H14.2539V33.0164Z" fill="#DDDDDD"/>
<path d="M28.4362 38.2893H14.2527C14.018 38.2893 13.8281 38.0995 13.8281 37.8648V33.0163C13.8281 32.7817 14.018 32.5918 14.2527 32.5918H28.4362C28.6709 32.5918 28.8607 32.7817 28.8607 33.0163V37.8648C28.8607 38.0995 28.6709 38.2893 28.4362 38.2893ZM14.6772 37.4403H28.0117V33.4409H14.6772V37.4403Z" fill="#0B0B0E"/>
<path d="M32.1449 40.066V40.3292C32.1449 40.6434 31.8902 40.8981 31.5761 40.8981H11.1138C10.7996 40.8981 10.5449 40.6434 10.5449 40.3292V40.066C10.5449 38.8519 11.5383 37.8669 12.7439 37.8669H29.9373C31.1515 37.8669 32.1449 38.8519 32.1449 40.066Z" fill="white"/>
<path d="M31.5772 41.3224H11.1144C10.5664 41.3224 10.1211 40.8768 10.1211 40.3291V40.0658C10.1211 38.6194 11.2977 37.4424 12.7445 37.4424H29.9379C31.3898 37.4424 32.5705 38.6194 32.5705 40.0658V40.3291C32.5705 40.8768 32.1253 41.3224 31.5772 41.3224ZM12.7445 38.2914C11.7661 38.2914 10.9702 39.0874 10.9702 40.0658V40.3291C10.9702 40.4087 11.0348 40.4734 11.1144 40.4734H31.5772C31.6568 40.4734 31.7215 40.4087 31.7215 40.3291V40.0658C31.7215 39.0874 30.9213 38.2914 29.9379 38.2914H12.7445Z" fill="#0B0B0E"/>
<path d="M5.3915 7.83C5.90544 7.83 6.32207 7.41338 6.32207 6.89944C6.32207 6.3855 5.90544 5.96887 5.3915 5.96887C4.87757 5.96887 4.46094 6.3855 4.46094 6.89944C4.46094 7.41338 4.87757 7.83 5.3915 7.83Z" fill="white"/>
<path d="M8.40908 7.83C8.92302 7.83 9.33965 7.41338 9.33965 6.89944C9.33965 6.3855 8.92302 5.96887 8.40908 5.96887C7.89514 5.96887 7.47852 6.3855 7.47852 6.89944C7.47852 7.41338 7.89514 7.83 8.40908 7.83Z" fill="white"/>
<path d="M11.4286 7.83C11.9426 7.83 12.3592 7.41338 12.3592 6.89944C12.3592 6.3855 11.9426 5.96887 11.4286 5.96887C10.9147 5.96887 10.498 6.3855 10.498 6.89944C10.498 7.41338 10.9147 7.83 11.4286 7.83Z" fill="white"/>
<path d="M17.7376 16.3112V24.5535C17.7376 24.9468 17.4181 25.2663 17.0248 25.2663H6.93898C6.54572 25.2663 6.23438 24.9468 6.23438 24.5535V16.3112L11.986 11.9524L17.7376 16.3112Z" fill="#FF5C00"/>
<path d="M17.0257 25.6907H6.93986C6.31716 25.6907 5.81055 25.1804 5.81055 24.5536V16.3113C5.81055 16.1782 5.87273 16.053 5.97887 15.973L11.7307 11.6141C11.8816 11.4989 12.0922 11.4989 12.2431 11.6141L17.9942 15.973C18.1003 16.053 18.1625 16.1787 18.1625 16.3113V24.5536C18.1625 25.1804 17.6526 25.6907 17.0257 25.6907ZM6.6596 16.5223V24.5536C6.6596 24.7152 6.78232 24.8417 6.93986 24.8417H17.0257C17.1841 24.8417 17.3134 24.7123 17.3134 24.5536V16.5223L11.9869 12.4852L6.6596 16.5223Z" fill="#0B0B0E"/>
<path d="M18.449 17.2736C18.3595 17.2736 18.2691 17.2454 18.1928 17.1873L11.7271 12.2908C11.5397 12.1494 11.5032 11.8832 11.645 11.6963C11.7876 11.5089 12.0546 11.4736 12.2395 11.6142L18.7052 16.5108C18.8926 16.6521 18.9291 16.9183 18.7873 17.1053C18.7036 17.2155 18.5767 17.2736 18.449 17.2736Z" fill="#0B0B0E"/>
<path d="M5.51843 17.2737C5.39074 17.2737 5.26388 17.2157 5.18013 17.1054C5.03835 16.9184 5.07483 16.6522 5.26222 16.5109L11.728 11.6143C11.9129 11.4737 12.1807 11.509 12.3225 11.6964C12.4643 11.8834 12.4278 12.1495 12.2404 12.2909L5.77464 17.1875C5.69835 17.2455 5.60798 17.2737 5.51843 17.2737Z" fill="#0B0B0E"/>
<path d="M14.2875 22.5209V25.2633H9.67773V22.5209C9.67773 21.2434 10.7051 20.207 11.9826 20.207C12.6258 20.207 13.1976 20.4661 13.6174 20.886C14.0284 21.3059 14.2875 21.8777 14.2875 22.5209Z" fill="#0B0B0E"/>
<path d="M14.2885 25.6878H9.67843C9.44378 25.6878 9.25391 25.498 9.25391 25.2633V22.5209C9.25391 21.011 10.4786 19.7826 11.9835 19.7826C12.7123 19.7826 13.3997 20.0678 13.9187 20.5852C14.432 21.1109 14.7131 21.797 14.7131 22.5209V25.2633C14.7131 25.498 14.5232 25.6878 14.2885 25.6878ZM10.103 24.8388H13.864V22.5209C13.864 22.0201 13.6692 21.545 13.3151 21.1826C12.9602 20.8286 12.486 20.6316 11.9835 20.6316C10.9462 20.6316 10.103 21.479 10.103 22.5209V24.8388Z" fill="#0B0B0E"/>
<path d="M11.9844 18.0704C13.0329 18.0704 13.8829 17.2204 13.8829 16.1719C13.8829 15.1234 13.0329 14.2734 11.9844 14.2734C10.9359 14.2734 10.0859 15.1234 10.0859 16.1719C10.0859 17.2204 10.9359 18.0704 11.9844 18.0704Z" fill="white"/>
<path d="M33.6396 14.2111H26.4226C26.1879 14.2111 25.998 14.0212 25.998 13.7866C25.998 13.5519 26.1879 13.3621 26.4226 13.3621H33.6396C33.8742 13.3621 34.0641 13.5519 34.0641 13.7866C34.0641 14.0212 33.8742 14.2111 33.6396 14.2111Z" fill="#0B0B0E"/>
<path d="M37.2481 17.0103H26.78C26.5453 17.0103 26.3555 16.8204 26.3555 16.5858C26.3555 16.3511 26.5453 16.1613 26.78 16.1613H37.2481C37.4828 16.1613 37.6726 16.3511 37.6726 16.5858C37.6726 16.8204 37.4828 17.0103 37.2481 17.0103Z" fill="#0B0B0E"/>
<path d="M24.9358 17.0103H22.8132C22.5785 17.0103 22.3887 16.8204 22.3887 16.5858C22.3887 16.3511 22.5785 16.1613 22.8132 16.1613H24.9358C25.1705 16.1613 25.3604 16.3511 25.3604 16.5858C25.3604 16.8204 25.1705 17.0103 24.9358 17.0103Z" fill="#0B0B0E"/>
<path d="M37.2477 19.8095H34.9128C34.6782 19.8095 34.4883 19.6196 34.4883 19.385C34.4883 19.1503 34.6782 18.9604 34.9128 18.9604H37.2477C37.4824 18.9604 37.6722 19.1503 37.6722 19.385C37.6722 19.6196 37.4824 19.8095 37.2477 19.8095Z" fill="#0B0B0E"/>
<path d="M33.0549 19.8095H22.8132C22.5785 19.8095 22.3887 19.6196 22.3887 19.385C22.3887 19.1503 22.5785 18.9604 22.8132 18.9604H33.0549C33.2896 18.9604 33.4795 19.1503 33.4795 19.385C33.4795 19.6196 33.2896 19.8095 33.0549 19.8095Z" fill="#0B0B0E"/>
<path d="M37.247 22.6088H30.03C29.7953 22.6088 29.6055 22.4189 29.6055 22.1843C29.6055 21.9496 29.7953 21.7598 30.03 21.7598H37.247C37.4816 21.7598 37.6715 21.9496 37.6715 22.1843C37.6715 22.4189 37.4816 22.6088 37.247 22.6088Z" fill="#0B0B0E"/>
<path d="M28.4365 22.6088H22.8132C22.5785 22.6088 22.3887 22.4189 22.3887 22.1843C22.3887 21.9496 22.5785 21.7598 22.8132 21.7598H28.4365C28.6712 21.7598 28.8611 21.9496 28.8611 22.1843C28.8611 22.4189 28.6712 22.6088 28.4365 22.6088Z" fill="#0B0B0E"/>
<path d="M30.7457 25.408H22.8132C22.5785 25.408 22.3887 25.2181 22.3887 24.9835C22.3887 24.7488 22.5785 24.559 22.8132 24.559H30.7457C30.9804 24.559 31.1703 24.7488 31.1703 24.9835C31.1703 25.2181 30.9804 25.408 30.7457 25.408Z" fill="#0B0B0E"/>
<path d="M24.6329 28.4051V29.857C24.6329 30.1966 24.3612 30.4768 24.013 30.4768H18.2819C17.9423 30.4768 17.6621 30.1966 17.6621 29.857V28.4051C17.6621 28.057 17.9423 27.7853 18.2819 27.7853H24.013C24.3612 27.7853 24.6329 28.057 24.6329 28.4051Z" fill="#0B0B0E"/>
<path d="M24.0133 30.9012H18.2822C17.7068 30.9012 17.2383 30.4327 17.2383 29.8569V28.405C17.2383 27.8292 17.7068 27.3607 18.2822 27.3607H24.0133C24.5995 27.3607 25.0581 27.8192 25.0581 28.405V29.8569C25.0581 30.4327 24.5896 30.9012 24.0133 30.9012ZM18.2822 28.2098C18.1727 28.2098 18.0873 28.2956 18.0873 28.405V29.8569C18.0873 29.9626 18.1769 30.0522 18.2822 30.0522H24.0133C24.1228 30.0522 24.209 29.9663 24.209 29.8569V28.405C24.209 28.2919 24.1269 28.2098 24.0133 28.2098H18.2822Z" fill="#0B0B0E"/>
</svg>
