<svg width="45" height="45" viewBox="0 0 45 45" fill="none" xmlns="http://www.w3.org/2000/svg">
<path d="M42.5293 12.0132L39.3878 10.5104V4.99152H39.685C40.0501 4.99152 40.3473 4.69432 40.3473 4.32073V2.79244C40.3473 2.41885 40.0501 2.1217 39.685 2.1217H34.5312V33.7844H36.6185V32.9H39.7671V30.5297H41.8331V14.8661H41.8756C42.436 14.8661 42.9794 14.5519 43.2341 14.017C43.5907 13.2698 43.2765 12.3698 42.5293 12.0132Z" fill="#0B0B0E"/>
<path d="M36.6194 34.2089H34.532C34.2973 34.2089 34.1074 34.019 34.1074 33.7844V2.12179C34.1074 1.88714 34.2973 1.69727 34.532 1.69727H39.6856C40.2851 1.69727 40.7726 2.18854 40.7726 2.79258V4.32072C40.7726 4.88123 40.3526 5.34473 39.8133 5.40857V10.243L42.7128 11.6301C43.6701 12.087 44.076 13.2395 43.6179 14.1997C43.3579 14.7465 42.8467 15.1338 42.2584 15.2523V30.5295C42.2584 30.7642 42.0686 30.9541 41.8339 30.9541H40.1922V32.9001C40.1922 33.1347 40.0023 33.3246 39.7677 33.3246H37.0439V33.7844C37.0439 34.019 36.854 34.2089 36.6194 34.2089ZM34.9565 33.3599H36.1948V32.9001C36.1948 32.6654 36.3847 32.4756 36.6194 32.4756H39.3431V30.5295C39.3431 30.2949 39.533 30.105 39.7677 30.105H41.4094V14.8659C41.4094 14.6313 41.5993 14.4414 41.8339 14.4414C42.2933 14.4414 42.6759 14.203 42.8513 13.8345C42.9757 13.5745 42.991 13.2814 42.8957 13.009C42.8003 12.7371 42.6055 12.5194 42.3472 12.3963L39.2055 10.8934C39.0579 10.823 38.9642 10.6737 38.9642 10.5104V4.99151C38.9642 4.75685 39.1541 4.56698 39.3887 4.56698H39.6856C39.8191 4.56698 39.9235 4.45877 39.9235 4.32072V2.79258C39.9235 2.65453 39.8191 2.54632 39.6856 2.54632H34.9565V33.3599Z" fill="#0B0B0E"/>
<path d="M31.5703 3.72815H36.8413V11.3213H31.5703V3.72815Z" fill="white"/>
<path d="M36.8415 11.7458H31.571C31.3364 11.7458 31.1465 11.5559 31.1465 11.3212V3.72824C31.1465 3.49359 31.3364 3.30371 31.571 3.30371H36.8415C37.0762 3.30371 37.2661 3.49359 37.2661 3.72824V11.3212C37.2661 11.5559 37.0762 11.7458 36.8415 11.7458ZM31.9955 10.8967H36.417V4.15277H31.9955V10.8967Z" fill="#0B0B0E"/>
<path d="M37.8046 2.79188V4.32182C37.8046 4.69337 37.5059 4.992 37.1344 4.992H31.2698C30.9056 4.992 30.5996 4.69337 30.5996 4.32182V2.79188C30.5996 2.42033 30.9056 2.1217 31.2698 2.1217H37.1344C37.5059 2.1217 37.8046 2.42033 37.8046 2.79188Z" fill="#FF5C00"/>
<path d="M37.1349 5.41645H31.2703C30.6666 5.41645 30.1758 4.92559 30.1758 4.32196V2.79175C30.1758 2.18813 30.6666 1.69727 31.2703 1.69727H37.1349C37.7385 1.69727 38.2298 2.18813 38.2298 2.79175V4.32196C38.2298 4.92559 37.7385 5.41645 37.1349 5.41645ZM31.2703 2.54632C31.1372 2.54632 31.0248 2.65867 31.0248 2.79175V4.32196C31.0248 4.45504 31.1372 4.56739 31.2703 4.56739H37.1349C37.2729 4.56739 37.3807 4.4596 37.3807 4.32196V2.79175C37.3807 2.65411 37.2729 2.54632 37.1349 2.54632H31.2703Z" fill="#0B0B0E"/>
<path d="M39.2865 13.3461V31.431C39.2865 32.1782 38.794 32.8405 38.0808 33.0442C30.295 35.2858 22.2544 35.8801 14.0355 35.2858C13.161 35.2263 12.4902 34.4876 12.4902 33.6216V13.3461L25.8884 6.92725L39.2865 13.3461Z" fill="white"/>
<path d="M19.9542 35.9294C18.0139 35.9294 16.0339 35.856 14.0054 35.7092C12.9188 35.635 12.0664 34.718 12.0664 33.6214V13.346C12.0664 13.1827 12.1601 13.0339 12.3077 12.9634L25.7056 6.54447C25.8209 6.48892 25.9569 6.48892 26.0721 6.54447L39.4705 12.9634C39.618 13.0339 39.7117 13.1827 39.7117 13.346V31.4312C39.7117 32.3665 39.0895 33.1977 38.1985 33.4527C32.4409 35.1102 26.4274 35.9294 19.9542 35.9294ZM12.9155 13.6134V33.6214C12.9155 34.2731 13.4204 34.8183 14.0651 34.8623C22.7625 35.4899 30.5782 34.7628 37.9643 32.6364C38.4933 32.4851 38.8627 31.9896 38.8627 31.4312V13.6134L25.8889 7.39768L12.9155 13.6134Z" fill="#0B0B0E"/>
<path d="M39.3345 14.868C39.117 14.868 38.8965 14.8211 38.6878 14.7208L25.8894 8.59401L13.091 14.7208C12.3455 15.0789 11.4491 14.7633 11.091 14.0155C10.7329 13.2685 11.0485 12.3729 11.7963 12.0155L25.242 5.57823C25.6507 5.38196 26.1282 5.38196 26.5368 5.57823L39.9826 12.0155C40.7303 12.3729 41.046 13.2685 40.6878 14.0155C40.4301 14.5538 39.8933 14.868 39.3345 14.868Z" fill="#FF5C00"/>
<path d="M12.445 15.2937C12.2303 15.2937 12.0143 15.2573 11.8053 15.1835C11.3199 15.0127 10.9297 14.6632 10.7075 14.1988C10.4853 13.7353 10.4571 13.213 10.6279 12.7283C10.7992 12.2433 11.1486 11.8544 11.613 11.6326L25.0582 5.19502C25.5863 4.94213 26.1916 4.94171 26.7198 5.19544L40.1654 11.6326C40.6293 11.8544 40.9788 12.2437 41.15 12.7287C41.3208 13.2134 41.2922 13.7358 41.07 14.1993C40.6264 15.1246 39.4262 15.5466 38.5034 15.1034L25.889 9.0647L13.2738 15.1039C13.0109 15.2299 12.7286 15.2937 12.445 15.2937ZM25.889 5.85627C25.7294 5.85627 25.5702 5.8911 25.4251 5.96075L11.979 12.3987C11.7195 12.5227 11.5242 12.7399 11.4289 13.0107C11.3335 13.2814 11.3493 13.5728 11.4733 13.8319C11.5976 14.0919 11.8157 14.2871 12.0872 14.3825C12.3571 14.477 12.6486 14.4617 12.9065 14.3381L25.7057 8.21108C25.8218 8.15553 25.9561 8.15553 26.0722 8.21108L38.8707 14.3377C39.3876 14.5877 40.0564 14.3493 40.3047 13.8319C40.4287 13.5732 40.4444 13.2814 40.3491 13.0111C40.2537 12.7399 40.0584 12.5227 39.7989 12.3987L26.3529 5.96116C26.2074 5.8911 26.0482 5.85627 25.889 5.85627Z" fill="#0B0B0E"/>
<path d="M25.6918 19.4688C27.6908 19.4688 29.3113 17.8483 29.3113 15.8493C29.3113 13.8503 27.6908 12.2297 25.6918 12.2297C23.6928 12.2297 22.0723 13.8503 22.0723 15.8493C22.0723 17.8483 23.6928 19.4688 25.6918 19.4688Z" fill="#DDDDDD"/>
<path d="M25.6907 19.8939C23.4607 19.8939 21.6465 18.0797 21.6465 15.8497C21.6465 13.6197 23.4607 11.8051 25.6907 11.8051C27.9207 11.8051 29.7353 13.6197 29.7353 15.8497C29.7353 18.0797 27.9207 19.8939 25.6907 19.8939ZM25.6907 12.6541C23.9287 12.6541 22.4955 14.0877 22.4955 15.8497C22.4955 17.6116 23.9287 19.0448 25.6907 19.0448C27.4527 19.0448 28.8863 17.6116 28.8863 15.8497C28.8863 14.0877 27.4527 12.6541 25.6907 12.6541Z" fill="#0B0B0E"/>
<path d="M36.8425 23.8166V30.0162C36.8425 30.6282 36.3398 31.1236 35.7279 31.1236H28.8945C28.2825 31.1236 27.7871 30.6282 27.7871 30.0162V23.8166C27.7871 23.2047 28.2825 22.702 28.8945 22.702H35.7279C36.3398 22.702 36.8425 23.2047 36.8425 23.8166Z" fill="#FF5C00"/>
<path d="M35.7286 31.5481H28.8951C28.0507 31.5481 27.3633 30.8607 27.3633 30.0162V23.8166C27.3633 22.968 28.0507 22.2777 28.8951 22.2777H35.7286C36.5773 22.2777 37.2676 22.968 37.2676 23.8166V30.0162C37.2676 30.8607 36.5773 31.5481 35.7286 31.5481ZM28.8951 23.1268C28.5187 23.1268 28.2123 23.436 28.2123 23.8166V30.0162C28.2123 30.3927 28.5187 30.699 28.8951 30.699H35.7286C36.1092 30.699 36.4185 30.3927 36.4185 30.0162V23.8166C36.4185 23.436 36.1092 23.1268 35.7286 23.1268H28.8951Z" fill="#0B0B0E"/>
<path d="M32.3152 31.5481C32.0805 31.5481 31.8906 31.3582 31.8906 31.1236V22.7022C31.8906 22.4676 32.0805 22.2777 32.3152 22.2777C32.5498 22.2777 32.7397 22.4676 32.7397 22.7022V31.1236C32.7397 31.3582 32.5498 31.5481 32.3152 31.5481Z" fill="#0B0B0E"/>
<path d="M36.843 27.3377H27.7878C27.5532 27.3377 27.3633 27.1478 27.3633 26.9132C27.3633 26.6785 27.5532 26.4886 27.7878 26.4886H36.843C37.0777 26.4886 37.2676 26.6785 37.2676 26.9132C37.2676 27.1478 37.0777 27.3377 36.843 27.3377Z" fill="#0B0B0E"/>
<path d="M24.6918 24.4577V35.3614H15.3086V24.4577C15.3086 23.4888 16.0954 22.702 17.0643 22.702H22.9361C23.905 22.702 24.6918 23.4888 24.6918 24.4577Z" fill="#0B0B0E"/>
<path d="M24.6929 35.7859H15.3093C15.0746 35.7859 14.8848 35.596 14.8848 35.3614V24.4576C14.8848 23.2557 15.8628 22.2777 17.065 22.2777H22.9371C24.1394 22.2777 25.1174 23.2557 25.1174 24.4576V35.3614C25.1174 35.596 24.9275 35.7859 24.6929 35.7859ZM15.7338 34.9369H24.2683V24.4576C24.2683 23.7238 23.6713 23.1268 22.9371 23.1268H17.065C16.3308 23.1268 15.7338 23.7238 15.7338 24.4576V34.9369Z" fill="#0B0B0E"/>
<path d="M41.4876 31.9471C37.514 34.3669 32.5216 36.965 28.4206 38.765C26.2216 39.7329 21.3395 40.599 18.7838 41.0065C17.7565 41.1678 16.7206 41.2612 15.6848 41.2782L6.52344 41.4395V30.9877H10.2678C16.3046 25.7659 22.5112 28.7122 22.5112 28.7122L28.0216 28.4999H28.0895C28.9895 28.4999 29.7537 29.1622 29.881 30.0537C30.0254 31.0555 29.3206 31.981 28.3188 32.1084L20.915 33.0084C28.2933 35.7848 34.1008 32.6688 39.4499 28.8735C39.7725 28.6442 40.1461 28.5254 40.5197 28.5254C41.1055 28.5254 41.6744 28.8056 42.031 29.315C42.6508 30.181 42.4046 31.3952 41.4876 31.9471Z" fill="#FF5C00"/>
<path d="M6.52414 41.8641C6.41303 41.8641 6.30607 41.8205 6.22647 41.7422C6.14521 41.6626 6.09961 41.5535 6.09961 41.4395V30.9876C6.09961 30.7529 6.28949 30.5631 6.52414 30.5631H10.1119C15.8244 25.7241 21.7479 27.9309 22.592 28.2841L28.0059 28.0756C29.1945 28.0756 30.1456 28.9002 30.3023 29.9934C30.3881 30.5913 30.2339 31.1858 29.8678 31.6667C29.5021 32.1468 28.9711 32.4535 28.3728 32.5294L22.9203 33.1923C29.5071 34.8403 34.754 31.6849 39.2049 28.5275C40.2178 27.809 41.6841 28.0781 42.3794 29.0714C42.7421 29.5776 42.8785 30.2227 42.7517 30.8371C42.6248 31.4503 42.2442 31.9876 41.7077 32.3105C37.7659 34.7109 32.7408 37.3327 28.5921 39.154C26.3638 40.1344 21.5327 40.998 18.8512 41.4254C17.7903 41.5925 16.7277 41.6858 15.6925 41.7028L6.5316 41.8641C6.52911 41.8641 6.52663 41.8641 6.52414 41.8641ZM6.94867 31.4121V41.0075L15.678 40.8537C16.6743 40.8376 17.697 40.7476 18.7185 40.5867C20.8437 40.248 26.0292 39.3538 28.2505 38.3766C32.3677 36.5691 37.3555 33.9668 41.2675 31.5842C41.2683 31.5838 41.2691 31.5838 41.2695 31.5833C41.6091 31.379 41.84 31.0531 41.92 30.6655C42.0004 30.2766 41.9175 29.8848 41.6862 29.5619C41.2472 28.9354 40.3392 28.7621 39.6966 29.2198C34.657 32.7952 28.622 36.361 20.7661 33.4054C20.5833 33.3366 20.471 33.1517 20.4942 32.9577C20.5178 32.7637 20.6704 32.6103 20.8644 32.5866L28.2679 31.6866C28.6365 31.6401 28.9657 31.4499 29.1925 31.1522C29.4196 30.8537 29.515 30.4851 29.4615 30.1141C29.3645 29.4354 28.775 28.9242 28.0901 28.9242L22.5281 29.1361C22.4593 29.1386 22.3921 29.1245 22.3304 29.0959C22.0862 28.9802 16.2912 26.3389 10.5464 31.3085C10.4693 31.3752 10.3706 31.4121 10.2686 31.4121H6.94867Z" fill="#0B0B0E"/>
<path d="M8.06345 30.2272V41.4008C8.06345 42.2159 7.40121 42.8782 6.5861 42.8782H3.09649C2.27288 42.8782 1.61914 42.2159 1.61914 41.4008V30.2272C1.61914 29.4122 2.27288 28.7499 3.09649 28.7499H6.5861C7.40121 28.7499 8.06345 29.4122 8.06345 30.2272Z" fill="#0B0B0E"/>
<path d="M6.58691 43.3027H3.09698C2.04851 43.3027 1.19531 42.4495 1.19531 41.401V30.2273C1.19531 29.1784 2.04851 28.3252 3.09698 28.3252H6.58691C7.63537 28.3252 8.48858 29.1784 8.48858 30.2273V41.401C8.48858 42.4495 7.63537 43.3027 6.58691 43.3027ZM3.09698 29.1743C2.51657 29.1743 2.04437 29.6465 2.04437 30.2273V41.401C2.04437 41.9814 2.51657 42.4536 3.09698 42.4536H6.58691C7.16731 42.4536 7.63952 41.9814 7.63952 41.401V30.2273C7.63952 29.6465 7.16731 29.1743 6.58691 29.1743H3.09698Z" fill="#0B0B0E"/>
<path d="M5.25095 40.8354C5.82209 40.8354 6.2851 40.3724 6.2851 39.8012C6.2851 39.2301 5.82209 38.7671 5.25095 38.7671C4.6798 38.7671 4.2168 39.2301 4.2168 39.8012C4.2168 40.3724 4.6798 40.8354 5.25095 40.8354Z" fill="white"/>
</svg>
