<svg width="45" height="45" viewBox="0 0 45 45" fill="none" xmlns="http://www.w3.org/2000/svg">
<path d="M27.8183 25.8399C27.4979 26.2493 27.1507 26.6409 26.768 27.0236C26.3852 27.4064 25.9936 27.7535 25.5842 28.074C20.021 32.5334 11.8677 32.1773 6.70508 27.0236C1.16862 21.4872 1.16862 12.5061 6.70508 6.96966C12.2504 1.42434 21.2316 1.42434 26.768 6.96966C31.9217 12.1233 32.2777 20.2768 27.8183 25.8399Z" fill="#DDDDDD"/>
<path d="M16.7437 31.6092C12.9914 31.6092 9.25106 30.1648 6.4058 27.3241C0.711155 21.6294 0.711155 12.364 6.40539 6.66936C9.16773 3.90744 12.838 2.38635 16.7404 2.38635C20.6433 2.38635 24.3114 3.90744 27.0692 6.66936C32.3406 11.9411 32.8053 20.2957 28.1513 26.1036C27.8184 26.5293 27.4643 26.9286 27.0688 27.3237C26.6745 27.7183 26.2745 28.0732 25.8462 28.4086C23.1714 30.5524 19.9534 31.6092 16.7437 31.6092ZM16.7404 3.23541C13.0648 3.23541 9.60759 4.66819 7.0057 7.26967C1.64271 12.6331 1.64271 21.3599 7.0057 26.7233C11.9782 31.6871 19.8514 32.1257 25.3193 27.7428C25.7239 27.4261 26.0987 27.0936 26.4685 26.7233C26.84 26.3519 27.172 25.9775 27.4846 25.5783C27.4855 25.577 27.4867 25.5758 27.4875 25.5746C31.8721 20.1046 31.4339 12.2355 26.4685 7.26967C23.8707 4.66819 20.4161 3.23541 16.7404 3.23541Z" fill="#0B0B0E"/>
<path d="M16.7389 27.4798C22.5296 27.4798 27.2239 22.7855 27.2239 16.9948C27.2239 11.2041 22.5296 6.50977 16.7389 6.50977C10.9482 6.50977 6.25391 11.2041 6.25391 16.9948C6.25391 22.7855 10.9482 27.4798 16.7389 27.4798Z" fill="white"/>
<path d="M16.7382 27.899C13.9448 27.899 11.151 26.8357 9.02417 24.7089C4.77059 20.4553 4.77059 13.5339 9.02417 9.28075C13.279 5.02717 20.2 5.02883 24.4523 9.28075C28.7059 13.5339 28.7059 20.4553 24.4523 24.7089C22.3255 26.8357 19.5321 27.899 16.7382 27.899ZM16.7382 6.93921C14.162 6.93921 11.5863 7.91968 9.62447 9.88106C5.70215 13.8034 5.70215 20.1858 9.62447 24.1086C13.5472 28.0313 19.9301 28.0305 23.852 24.1086C27.7743 20.1858 27.7743 13.8034 23.852 9.88106C21.891 7.9201 19.3144 6.93921 16.7382 6.93921Z" fill="#0B0B0E"/>
<path d="M30.0986 28.2319L27.9675 30.3545L25.6387 28.0256C26.0292 27.7199 26.4028 27.3888 26.7679 27.0236C27.133 26.6586 27.4641 26.2851 27.7698 25.8945L30.0986 28.2319Z" fill="#0B0B0E"/>
<path d="M27.968 30.7791C27.8594 30.7791 27.7508 30.7376 27.6679 30.6547L25.3392 28.3256C25.2534 28.2398 25.2082 28.1208 25.2156 27.9998C25.2231 27.8783 25.282 27.766 25.3777 27.6909C25.7575 27.3941 26.1144 27.0773 26.4685 26.7233C26.8221 26.3697 27.1389 26.0127 27.4357 25.6329C27.5107 25.5372 27.6235 25.4779 27.745 25.4708C27.8656 25.4659 27.9854 25.509 28.0708 25.5948L30.3999 27.9322C30.4795 28.0122 30.5243 28.12 30.5239 28.2328C30.5235 28.3455 30.4787 28.4533 30.3991 28.5329L28.2678 30.6556C28.1849 30.7381 28.0762 30.7791 27.968 30.7791ZM26.272 28.0578L27.9689 29.7547L29.4991 28.2307L27.8022 26.528C27.5721 26.7996 27.33 27.0624 27.0688 27.3236C26.8072 27.5852 26.544 27.8277 26.272 28.0578Z" fill="#0B0B0E"/>
<path d="M28.209 33.3416L33.0779 28.4727L40.1438 35.5386L35.2749 40.4075L28.209 33.3416Z" fill="#DDDDDD"/>
<path d="M35.2829 40.833C35.1742 40.833 35.0656 40.7916 34.9827 40.7086L27.9154 33.6413C27.7496 33.4755 27.7496 33.2068 27.9154 33.041L32.785 28.1714C32.9509 28.0055 33.2195 28.0055 33.3853 28.1714L40.4527 35.2387C40.6185 35.4045 40.6185 35.6732 40.4527 35.839L35.583 40.7086C35.5001 40.7916 35.3915 40.833 35.2829 40.833ZM28.8159 33.3412L35.2829 39.8082L39.5522 35.5388L33.0852 29.0718L28.8159 33.3412Z" fill="#0B0B0E"/>
<path d="M33.3782 26.5659C33.8197 27.0074 33.8197 27.7376 33.3782 28.1791L27.9273 33.63C27.4773 34.08 26.7556 34.08 26.3141 33.63C25.8641 33.1885 25.8641 32.4668 26.3141 32.0168L31.765 26.5659C32.2065 26.1244 32.9282 26.1244 33.3782 26.5659Z" fill="#FF5C00"/>
<path d="M27.1182 34.3922C27.1157 34.3922 27.1132 34.3922 27.1107 34.3922C26.6941 34.3901 26.304 34.2251 26.0117 33.9275C25.7198 33.6414 25.5544 33.2509 25.5528 32.8342C25.5507 32.4134 25.7144 32.0167 26.0146 31.7165L31.4655 26.2656C32.0699 25.6616 33.0624 25.6603 33.676 26.2627C33.6772 26.2636 33.6781 26.2648 33.6789 26.2656C34.2892 26.8759 34.2892 27.8688 33.6789 28.4791L28.228 33.9304C27.9299 34.2284 27.5365 34.3922 27.1182 34.3922ZM32.5691 26.6595C32.3858 26.6595 32.2038 26.7283 32.0658 26.8659L26.6149 32.3168C26.4764 32.4553 26.4006 32.6377 26.4018 32.8301C26.4026 33.0183 26.4773 33.1949 26.612 33.3271C26.7513 33.4685 26.9072 33.5319 27.1182 33.5431C27.3093 33.5431 27.4901 33.4673 27.6277 33.33L33.0786 27.8788C33.3526 27.6047 33.353 27.1425 33.0803 26.8676C32.9381 26.7287 32.7532 26.6595 32.5691 26.6595Z" fill="#0B0B0E"/>
<path d="M42.0554 36.8649L36.6045 42.3158C36.163 42.7573 35.4328 42.7573 34.9913 42.3158C34.5498 41.8658 34.5498 41.1441 34.9913 40.7026L40.4422 35.2517C40.8837 34.8017 41.6139 34.8017 42.0554 35.2517C42.5054 35.6932 42.5054 36.4149 42.0554 36.8649Z" fill="#FF5C00"/>
<path d="M35.7987 43.0738C35.3978 43.0738 34.9969 42.9213 34.6918 42.6161C34.0865 41.9984 34.0877 41.0067 34.6918 40.4023L40.1431 34.9514C40.726 34.3577 41.7724 34.3557 42.3594 34.9543C42.6513 35.2408 42.8163 35.6309 42.8183 36.0476C42.82 36.4684 42.6562 36.8651 42.3565 37.1648L36.9056 42.6161C36.6005 42.9213 36.1996 43.0738 35.7987 43.0738ZM41.2496 35.3386C41.058 35.3386 40.8794 35.4132 40.7463 35.5488L35.2921 41.0026C35.016 41.2791 35.0172 41.7352 35.295 42.0187C35.567 42.2907 36.0309 42.2903 36.3053 42.0158L41.7562 36.5645C41.8942 36.4261 41.9701 36.2441 41.9693 36.0517C41.9685 35.8635 41.8938 35.6869 41.7591 35.5546C41.6202 35.4132 41.4415 35.3386 41.2496 35.3386Z" fill="#0B0B0E"/>
<path d="M36.698 3.06406V5.56029C36.698 5.95932 36.3754 6.28197 35.9848 6.28197H33.4886C33.0895 6.28197 32.7754 5.95932 32.7754 5.56029V3.06406C32.7754 2.67348 33.0895 2.35083 33.4886 2.35083H35.9848C36.3754 2.35083 36.698 2.67348 36.698 3.06406Z" fill="#DDDDDD"/>
<path d="M35.9858 6.70624H33.4896C32.8619 6.70624 32.3516 6.19216 32.3516 5.56034V3.06417C32.3516 2.43649 32.8619 1.92615 33.4896 1.92615H35.9858C36.613 1.92615 37.1234 2.43649 37.1234 3.06417V5.56034C37.1234 6.19216 36.613 6.70624 35.9858 6.70624ZM33.4896 2.7752C33.3304 2.7752 33.2006 2.90497 33.2006 3.06417V5.56034C33.2006 5.72659 33.3275 5.85718 33.4896 5.85718H35.9858C36.145 5.85718 36.2743 5.7241 36.2743 5.56034V3.06417C36.2743 2.90745 36.1421 2.7752 35.9858 2.7752H33.4896Z" fill="#0B0B0E"/>
<path d="M42.4406 3.60724H39.2214C38.9868 3.60724 38.7969 3.41736 38.7969 3.18271C38.7969 2.94806 38.9868 2.75818 39.2214 2.75818H42.4406C42.6753 2.75818 42.8651 2.94806 42.8651 3.18271C42.8651 3.41736 42.6753 3.60724 42.4406 3.60724Z" fill="#0B0B0E"/>
<path d="M40.7777 5.87164H39.2214C38.9868 5.87164 38.7969 5.68176 38.7969 5.44711C38.7969 5.21246 38.9868 5.02258 39.2214 5.02258H40.7777C41.0124 5.02258 41.2023 5.21246 41.2023 5.44711C41.2023 5.68176 41.0124 5.87164 40.7777 5.87164Z" fill="#0B0B0E"/>
<path d="M36.698 8.73569V11.2319C36.698 11.631 36.3754 11.9451 35.9848 11.9451H33.4886C33.0895 11.9451 32.7754 11.631 32.7754 11.2319V8.73569C32.7754 8.34511 33.0895 8.02246 33.4886 8.02246H35.9848C36.3754 8.02246 36.698 8.34511 36.698 8.73569Z" fill="#FF5C00"/>
<path d="M35.9858 12.3698H33.4896C32.8515 12.3698 32.3516 11.8698 32.3516 11.2318V8.73563C32.3516 8.10837 32.8619 7.59802 33.4896 7.59802H35.9858C36.613 7.59802 37.1234 8.10837 37.1234 8.73563V11.2318C37.1234 11.8595 36.613 12.3698 35.9858 12.3698ZM33.4896 8.44708C33.3304 8.44708 33.2006 8.57643 33.2006 8.73563V11.2318C33.2006 11.3964 33.325 11.5208 33.4896 11.5208H35.9858C36.145 11.5208 36.2743 11.391 36.2743 11.2318V8.73563C36.2743 8.57933 36.1421 8.44708 35.9858 8.44708H33.4896Z" fill="#0B0B0E"/>
<path d="M42.4406 9.27667H39.2214C38.9868 9.27667 38.7969 9.08679 38.7969 8.85214C38.7969 8.61749 38.9868 8.42761 39.2214 8.42761H42.4406C42.6753 8.42761 42.8651 8.61749 42.8651 8.85214C42.8651 9.08679 42.6753 9.27667 42.4406 9.27667Z" fill="#0B0B0E"/>
<path d="M40.7777 11.5407H39.2214C38.9868 11.5407 38.7969 11.3508 38.7969 11.1162C38.7969 10.8815 38.9868 10.6917 39.2214 10.6917H40.7777C41.0124 10.6917 41.2023 10.8815 41.2023 11.1162C41.2023 11.3508 41.0124 11.5407 40.7777 11.5407Z" fill="#0B0B0E"/>
<path d="M36.698 14.4073V16.9036C36.698 17.2941 36.3754 17.6167 35.9848 17.6167H33.4886C33.0895 17.6167 32.7754 17.2941 32.7754 16.9036V14.4073C32.7754 14.0082 33.0895 13.6941 33.4886 13.6941H35.9848C36.3754 13.6941 36.698 14.0082 36.698 14.4073Z" fill="#0B0B0E"/>
<path d="M35.9858 18.0412H33.4896C32.8619 18.0412 32.3516 17.5309 32.3516 16.9036V14.4074C32.3516 13.7694 32.8515 13.2694 33.4896 13.2694H35.9858C36.613 13.2694 37.1234 13.7798 37.1234 14.4074V16.9036C37.1234 17.5309 36.613 18.0412 35.9858 18.0412ZM33.4896 14.1185C33.325 14.1185 33.2006 14.2428 33.2006 14.4074V16.9036C33.2006 17.0628 33.3304 17.1922 33.4896 17.1922H35.9858C36.1421 17.1922 36.2743 17.0599 36.2743 16.9036V14.4074C36.2743 14.2482 36.145 14.1185 35.9858 14.1185H33.4896Z" fill="#0B0B0E"/>
<path d="M42.4406 14.946H39.2214C38.9868 14.946 38.7969 14.7561 38.7969 14.5215C38.7969 14.2868 38.9868 14.0969 39.2214 14.0969H42.4406C42.6753 14.0969 42.8651 14.2868 42.8651 14.5215C42.8651 14.7561 42.6753 14.946 42.4406 14.946Z" fill="#0B0B0E"/>
<path d="M40.7777 17.21H39.2214C38.9868 17.21 38.7969 17.0201 38.7969 16.7855C38.7969 16.5508 38.9868 16.361 39.2214 16.361H40.7777C41.0124 16.361 41.2023 16.5508 41.2023 16.7855C41.2023 17.0201 41.0124 17.21 40.7777 17.21Z" fill="#0B0B0E"/>
<path d="M22.3386 14.7575V22.7812C22.3386 23.164 22.0276 23.4751 21.6447 23.4751H11.8265C11.4437 23.4751 11.1406 23.164 11.1406 22.7812V14.7575L16.7397 10.5144L22.3386 14.7575Z" fill="#FF5C00"/>
<path d="M21.6451 23.8997H11.827C11.2147 23.8997 10.7168 23.398 10.7168 22.7811V14.7574C10.7168 14.6243 10.779 14.4991 10.8851 14.4191L16.484 10.1763C16.6349 10.061 16.8455 10.061 16.9964 10.1763L22.5953 14.4191C22.7014 14.4991 22.7636 14.6243 22.7636 14.7574V22.7811C22.7636 23.398 22.262 23.8997 21.6451 23.8997ZM11.5659 14.9684V22.7811C11.5659 22.932 11.6807 23.0506 11.827 23.0506H21.6451C21.7935 23.0506 21.9146 22.9295 21.9146 22.7811V14.9684L16.7402 11.0473L11.5659 14.9684Z" fill="#0B0B0E"/>
<path d="M23.7708 16.2656C23.6817 16.2656 23.5917 16.2374 23.515 16.1794L16.4808 10.8529C16.2939 10.7115 16.257 10.4453 16.3988 10.2584C16.5397 10.071 16.8055 10.0341 16.9933 10.1763L24.0274 15.5028C24.2144 15.6442 24.2513 15.9103 24.1095 16.0973C24.0262 16.2076 23.8993 16.2656 23.7708 16.2656Z" fill="#0B0B0E"/>
<path d="M9.70427 16.2656C9.57575 16.2656 9.44889 16.2076 9.36556 16.0973C9.22377 15.9103 9.26067 15.6442 9.44764 15.5028L16.4814 10.1763C16.6684 10.0341 16.9341 10.071 17.0759 10.2584C17.2177 10.4453 17.1808 10.7115 16.9938 10.8529L9.96006 16.1794C9.88336 16.2374 9.7934 16.2656 9.70427 16.2656Z" fill="#0B0B0E"/>
<path d="M18.9815 20.8024V23.472H14.4941V20.8024C14.4941 19.5588 15.4943 18.5499 16.7379 18.5499C17.364 18.5499 17.9206 18.8022 18.3293 19.2109C18.7294 19.6196 18.9815 20.1762 18.9815 20.8024Z" fill="#0B0B0E"/>
<path d="M18.9822 23.8967H14.4948C14.2602 23.8967 14.0703 23.7068 14.0703 23.4722V20.8023C14.0703 19.3264 15.2672 18.1254 16.7385 18.1254C17.4516 18.1254 18.1232 18.404 18.6303 18.9106C19.1323 19.4234 19.4068 20.0938 19.4068 20.8023V23.4722C19.4068 23.7068 19.2169 23.8967 18.9822 23.8967ZM14.9194 23.0477H18.5577V20.8023C18.5577 20.3172 18.3691 19.8575 18.0266 19.5076C17.6838 19.1651 17.2248 18.9744 16.7385 18.9744C15.7353 18.9744 14.9194 19.7945 14.9194 20.8023V23.0477Z" fill="#0B0B0E"/>
<path d="M16.7371 16.47C17.7579 16.47 18.5855 15.6424 18.5855 14.6216C18.5855 13.6007 17.7579 12.7732 16.7371 12.7732C15.7162 12.7732 14.8887 13.6007 14.8887 14.6216C14.8887 15.6424 15.7162 16.47 16.7371 16.47Z" fill="white"/>
</svg>
