<svg width="40" height="36" viewBox="0 0 40 36" fill="currentColor" xmlns="http://www.w3.org/2000/svg">
   <path
      d="M34.0935 11.6955L39.6508 16.5394C40.3622 17.1767 39.9176 18.2815 38.9395 18.2815H36.183L20 3.83476L3.81696 18.2815H1.0605C0.0824085 18.2815 -0.36218 17.1343 0.349162 16.5394L18.6662 0.478017C19.422 -0.159339 20.5335 -0.159339 21.2893 0.478017L28.3138 6.68162V3.23989C28.3138 2.94246 28.5806 2.73001 28.8473 2.73001H33.56C33.8712 2.73001 34.0935 2.98495 34.0935 3.23989V11.6955Z"
      fill="currentColor" />
   <path fill-rule="evenodd" clip-rule="evenodd"
      d="M34.049 32.0909H34.3158C34.7159 32.0909 34.9827 32.3883 34.9382 32.7282V35.3626C34.9382 35.7026 34.627 36 34.2713 36H5.37302C5.01735 36 4.70613 35.7026 4.70613 35.3626V32.7282C4.70613 32.3883 5.01735 32.0909 5.37302 32.0909H5.90652V18.409L20 5.8743L34.049 18.409V32.0909ZM24 21C24 23.2091 22.2091 25 20 25C17.7909 25 16 23.2091 16 21C16 18.7909 17.7909 17 20 17C22.2091 17 24 18.7909 24 21ZM12 28C12 27.4477 12.4477 27 13 27H16.9458C17.2905 27 17.611 27.1776 17.7938 27.47L19.152 29.6432C19.5437 30.2699 20.4563 30.2699 20.848 29.6432L22.2062 27.47C22.389 27.1776 22.7095 27 23.0542 27H27C27.5523 27 28 27.4477 28 28V33H12V28Z"
      fill="currentColor" />
</svg>