<svg width="40" height="38" viewBox="0 0 40 38" fill="currentColor" xmlns="http://www.w3.org/2000/svg">
   <path
      d="M39.3282 16.8827L21.3815 0.538121C20.5938 -0.1794 19.4059 -0.179322 18.6185 0.538043L0.67172 16.8828C0.0407064 17.4575 -0.16773 18.3429 0.14055 19.1385C0.448908 19.9341 1.19969 20.4482 2.05336 20.4482H4.91975V36.8242C4.91975 37.4735 5.44647 37.9999 6.09608 37.9999H15.9331C16.5827 37.9999 17.1094 37.4736 17.1094 36.8242V26.8812H22.8908V36.8243C22.8908 37.4736 23.4175 38 24.0671 38H33.9036C34.5532 38 35.08 37.4736 35.08 36.8243V20.4482H37.9469C38.8005 20.4482 39.5514 19.9341 39.8597 19.1385C40.1676 18.3429 39.9592 17.4575 39.3282 16.8827Z"
      fill="currentColor" />
   <path d="M34.7727 2.34679H26.8728L35.949 10.5954V3.52244C35.949 2.87316 35.4224 2.34679 34.7727 2.34679Z"
      fill="currentColor" />
</svg>