<svg width="40" height="36" viewBox="0 0 40 36" fill="none" xmlns="http://www.w3.org/2000/svg">
<path d="M39.6508 16.5394L34.0935 11.6955V3.23989C34.0935 2.98495 33.8712 2.73001 33.56 2.73001H28.8473C28.5806 2.73001 28.3138 2.94246 28.3138 3.23989V6.68162L21.2893 0.478017C20.5335 -0.159339 19.422 -0.159339 18.6662 0.478017L0.349162 16.5394C-0.36218 17.1343 0.0824085 18.2815 1.0605 18.2815H3.81696L20 3.83476L36.183 18.2815H38.9395C39.9176 18.2815 40.3622 17.1767 39.6508 16.5394Z" fill="#3B71FE"/>
<path d="M34.3158 32.0909H34.049C34.049 32.0484 34.049 32.0059 34.049 31.9209V18.409L20 5.8743L5.90652 18.409V31.9209C5.90652 31.9634 5.90652 32.0484 5.90652 32.0909H5.37302C5.01735 32.0909 4.70613 32.3883 4.70613 32.7282V35.3626C4.70613 35.7026 5.01735 36 5.37302 36H34.2713C34.627 36 34.9382 35.7026 34.9382 35.3626V32.7282C34.9827 32.3883 34.7159 32.0909 34.3158 32.0909ZM28.7139 21.2133L26.8022 19.8961L19.1997 29.4565L14.9761 26.5671L10.2635 32.2184L8.30731 30.7312L14.4871 23.2529L18.6662 26.1422L24.7571 18.494L22.8898 17.1768L28.6695 15.4346V21.2133H28.7139Z" fill="#3B71FE"/>
</svg>
