<svg width="20" height="20" viewBox="0 0 20 20" fill="none" xmlns="http://www.w3.org/2000/svg">
<g clip-path="url(#clip0_392_742)">
<path d="M14.7739 6.47988L14.8827 5.55918L10.4419 10L14.8828 14.4409L14.7739 13.5201C14.7642 13.4378 14.7876 13.355 14.8389 13.2899C14.8902 13.2248 14.9653 13.1828 15.0476 13.1731C15.1299 13.1634 15.2127 13.1867 15.2778 13.238C15.3429 13.2894 15.3849 13.3644 15.3946 13.4468L15.6093 15.2622C15.6148 15.3091 15.6096 15.3566 15.5942 15.4013C15.5787 15.4459 15.5533 15.4864 15.5199 15.5198C15.4865 15.5532 15.446 15.5786 15.4013 15.5941C15.3567 15.6096 15.3092 15.6148 15.2623 15.6092L13.4468 15.3946C13.406 15.3898 13.3666 15.377 13.3308 15.357C13.295 15.3369 13.2635 15.31 13.2381 15.2778C13.2127 15.2456 13.1939 15.2087 13.1827 15.1692C13.1716 15.1297 13.1683 15.0884 13.1731 15.0476C13.1779 15.0069 13.1907 14.9674 13.2107 14.9316C13.2308 14.8958 13.2577 14.8643 13.2899 14.8389C13.3221 14.8134 13.3591 14.7946 13.3986 14.7835C13.4381 14.7723 13.4794 14.7691 13.5202 14.7739L14.4409 14.8828L10 10.4419L5.55914 14.8828L6.47988 14.7739C6.56219 14.7642 6.645 14.7876 6.71008 14.8389C6.77516 14.8902 6.81719 14.9653 6.82691 15.0476C6.83664 15.1299 6.81327 15.2127 6.76195 15.2778C6.71063 15.3429 6.63555 15.3849 6.55324 15.3946L4.73781 15.6093C4.69091 15.6148 4.64337 15.6096 4.59875 15.5941C4.55413 15.5787 4.5136 15.5533 4.4802 15.5199C4.44679 15.4865 4.4214 15.4459 4.40592 15.4013C4.39044 15.3567 4.38528 15.3091 4.39082 15.2622L4.60539 13.4468C4.61018 13.406 4.62295 13.3666 4.64299 13.3308C4.66303 13.295 4.68993 13.2634 4.72216 13.238C4.7544 13.2126 4.79132 13.1938 4.83083 13.1826C4.87034 13.1715 4.91166 13.1683 4.95242 13.1731C4.99318 13.1779 5.03259 13.1907 5.0684 13.2108C5.10421 13.2308 5.13572 13.2577 5.16113 13.29C5.18655 13.3222 5.20536 13.3591 5.21651 13.3986C5.22766 13.4381 5.23091 13.4794 5.22609 13.5202L5.11727 14.4409L9.55805 10L5.11723 5.55918L5.22605 6.47992C5.23125 6.52379 5.22708 6.56825 5.21383 6.61039C5.20057 6.65253 5.17854 6.69138 5.14918 6.72438C5.11981 6.75737 5.08379 6.78377 5.04348 6.80183C5.00317 6.81989 4.95948 6.8292 4.91531 6.82914C4.83884 6.82905 4.76506 6.80092 4.70794 6.75008C4.65082 6.69924 4.61432 6.62922 4.60535 6.55328L4.39074 4.73785C4.3852 4.69094 4.39036 4.64338 4.40583 4.59876C4.42131 4.55413 4.44671 4.51359 4.48011 4.48019C4.51351 4.44679 4.55405 4.42139 4.59868 4.40591C4.64331 4.39043 4.69086 4.38527 4.73777 4.39082L6.55324 4.60539C6.63555 4.61512 6.71063 4.65715 6.76195 4.72223C6.81327 4.78731 6.83664 4.87011 6.82691 4.95242C6.81719 5.03473 6.77516 5.10981 6.71008 5.16113C6.645 5.21245 6.56219 5.23582 6.47988 5.22609L5.55918 5.11727L10 9.55805L14.4408 5.11723L13.5201 5.22605C13.3488 5.24641 13.1934 5.12379 13.1731 4.95238C13.1683 4.91163 13.1715 4.87032 13.1827 4.83082C13.1938 4.79133 13.2126 4.75441 13.238 4.72218C13.2635 4.68996 13.295 4.66306 13.3308 4.64301C13.3666 4.62296 13.406 4.61017 13.4468 4.60535L15.2622 4.39074C15.3091 4.3852 15.3567 4.39036 15.4013 4.40583C15.4459 4.42131 15.4865 4.44671 15.5199 4.48011C15.5533 4.51351 15.5786 4.55405 15.5941 4.59868C15.6096 4.64331 15.6148 4.69086 15.6092 4.73777L15.3946 6.5532C15.3849 6.63551 15.3429 6.71057 15.2778 6.76189C15.2127 6.81321 15.1299 6.83659 15.0476 6.82688C15.0069 6.82206 14.9675 6.80927 14.9316 6.78923C14.8958 6.76919 14.8643 6.74229 14.8389 6.71007C14.8135 6.67785 14.7947 6.64093 14.7835 6.60144C14.7724 6.56194 14.7691 6.52064 14.7739 6.47988ZM3.26023 0.3125V2.94773C3.26023 3.03061 3.22731 3.1101 3.1687 3.1687C3.1101 3.22731 3.03061 3.26023 2.94773 3.26023H0.3125C0.22962 3.26023 0.150134 3.22731 0.0915291 3.1687C0.032924 3.1101 0 3.03061 0 2.94773V0.3125C0 0.22962 0.032924 0.150134 0.0915291 0.0915291C0.150134 0.032924 0.22962 0 0.3125 0L2.94773 0C3.03061 0 3.1101 0.032924 3.1687 0.0915291C3.22731 0.150134 3.26023 0.22962 3.26023 0.3125ZM2.63523 0.625H0.625V2.63523H2.63523V0.625ZM3.26023 17.0523V19.6875C3.26023 19.7704 3.22731 19.8499 3.1687 19.9085C3.1101 19.9671 3.03061 20 2.94773 20H0.3125C0.22962 20 0.150134 19.9671 0.0915291 19.9085C0.032924 19.8499 0 19.7704 0 19.6875V17.0523C0 16.9694 0.032924 16.8899 0.0915291 16.8313C0.150134 16.7727 0.22962 16.7398 0.3125 16.7398H2.94773C3.03061 16.7398 3.1101 16.7727 3.1687 16.8313C3.22731 16.8899 3.26023 16.9694 3.26023 17.0523ZM2.63523 17.3648H0.625V19.375H2.63523V17.3648ZM20 0.3125V2.94773C20 3.03061 19.9671 3.1101 19.9085 3.1687C19.8499 3.22731 19.7704 3.26023 19.6875 3.26023H17.0523C16.9694 3.26023 16.8899 3.22731 16.8313 3.1687C16.7727 3.1101 16.7398 3.03061 16.7398 2.94773V0.3125C16.7398 0.22962 16.7727 0.150134 16.8313 0.0915291C16.8899 0.032924 16.9694 0 17.0523 0L19.6875 0C19.7704 0 19.8499 0.032924 19.9085 0.0915291C19.9671 0.150134 20 0.22962 20 0.3125ZM19.375 0.625H17.3648V2.63523H19.375V0.625ZM20 17.0523V19.6875C20 19.7704 19.9671 19.8499 19.9085 19.9085C19.8499 19.9671 19.7704 20 19.6875 20H17.0523C16.9694 20 16.8899 19.9671 16.8313 19.9085C16.7727 19.8499 16.7398 19.7704 16.7398 19.6875V17.0523C16.7398 16.9694 16.7727 16.8899 16.8313 16.8313C16.8899 16.7727 16.9694 16.7398 17.0523 16.7398H19.6875C19.7704 16.7398 19.8499 16.7727 19.9085 16.8313C19.9671 16.8899 20 16.9694 20 17.0523ZM19.375 17.3648H17.3648V19.375H19.375V17.3648ZM4.20047 1.94262H5.51809C5.60097 1.94262 5.68045 1.90969 5.73906 1.85109C5.79766 1.79248 5.83059 1.713 5.83059 1.63012C5.83059 1.54724 5.79766 1.46775 5.73906 1.40915C5.68045 1.35054 5.60097 1.31762 5.51809 1.31762H4.20047C4.11759 1.31762 4.0381 1.35054 3.9795 1.40915C3.92089 1.46775 3.88797 1.54724 3.88797 1.63012C3.88797 1.713 3.92089 1.79248 3.9795 1.85109C4.0381 1.90969 4.11759 1.94262 4.20047 1.94262ZM6.77082 1.94262H8.08844C8.17132 1.94262 8.2508 1.90969 8.30941 1.85109C8.36801 1.79248 8.40094 1.713 8.40094 1.63012C8.40094 1.54724 8.36801 1.46775 8.30941 1.40915C8.2508 1.35054 8.17132 1.31762 8.08844 1.31762H6.77082C6.68794 1.31762 6.60845 1.35054 6.54985 1.40915C6.49124 1.46775 6.45832 1.54724 6.45832 1.63012C6.45832 1.713 6.49124 1.79248 6.54985 1.85109C6.60845 1.90969 6.68794 1.94262 6.77082 1.94262ZM9.34117 1.94262H10.6588C10.7417 1.94262 10.8212 1.90969 10.8798 1.85109C10.9384 1.79248 10.9713 1.713 10.9713 1.63012C10.9713 1.54724 10.9384 1.46775 10.8798 1.40915C10.8212 1.35054 10.7417 1.31762 10.6588 1.31762H9.34117C9.25829 1.31762 9.17881 1.35054 9.1202 1.40915C9.0616 1.46775 9.02867 1.54724 9.02867 1.63012C9.02867 1.713 9.0616 1.79248 9.1202 1.85109C9.17881 1.90969 9.25829 1.94262 9.34117 1.94262ZM11.9116 1.94262H13.2292C13.3121 1.94262 13.3915 1.90969 13.4502 1.85109C13.5088 1.79248 13.5417 1.713 13.5417 1.63012C13.5417 1.54724 13.5088 1.46775 13.4502 1.40915C13.3915 1.35054 13.3121 1.31762 13.2292 1.31762H11.9116C11.8287 1.31762 11.7492 1.35054 11.6906 1.40915C11.632 1.46775 11.5991 1.54724 11.5991 1.63012C11.5991 1.713 11.632 1.79248 11.6906 1.85109C11.7492 1.90969 11.8287 1.94262 11.9116 1.94262ZM15.7995 1.31762H14.4819C14.399 1.31762 14.3195 1.35054 14.2609 1.40915C14.2023 1.46775 14.1694 1.54724 14.1694 1.63012C14.1694 1.713 14.2023 1.79248 14.2609 1.85109C14.3195 1.90969 14.399 1.94262 14.4819 1.94262H15.7995C15.8824 1.94262 15.9619 1.90969 16.0205 1.85109C16.0791 1.79248 16.112 1.713 16.112 1.63012C16.112 1.54724 16.0791 1.46775 16.0205 1.40915C15.9619 1.35054 15.8824 1.31762 15.7995 1.31762ZM5.51813 18.0574H4.20051C4.11763 18.0574 4.03814 18.0903 3.97954 18.1489C3.92093 18.2075 3.88801 18.287 3.88801 18.3699C3.88801 18.4528 3.92093 18.5322 3.97954 18.5909C4.03814 18.6495 4.11763 18.6824 4.20051 18.6824H5.51813C5.60101 18.6824 5.68049 18.6495 5.7391 18.5909C5.7977 18.5322 5.83063 18.4528 5.83063 18.3699C5.83063 18.287 5.7977 18.2075 5.7391 18.1489C5.68049 18.0903 5.60101 18.0574 5.51813 18.0574ZM8.08844 18.0574H6.77082C6.68794 18.0574 6.60845 18.0903 6.54985 18.1489C6.49124 18.2075 6.45832 18.287 6.45832 18.3699C6.45832 18.4528 6.49124 18.5322 6.54985 18.5909C6.60845 18.6495 6.68794 18.6824 6.77082 18.6824H8.08844C8.17132 18.6824 8.2508 18.6495 8.30941 18.5909C8.36801 18.5322 8.40094 18.4528 8.40094 18.3699C8.40094 18.287 8.36801 18.2075 8.30941 18.1489C8.2508 18.0903 8.17132 18.0574 8.08844 18.0574ZM10.6588 18.0574H9.34121C9.25833 18.0574 9.17885 18.0903 9.12024 18.1489C9.06164 18.2075 9.02871 18.287 9.02871 18.3699C9.02871 18.4528 9.06164 18.5322 9.12024 18.5909C9.17885 18.6495 9.25833 18.6824 9.34121 18.6824H10.6588C10.7417 18.6824 10.8212 18.6495 10.8798 18.5909C10.9384 18.5322 10.9713 18.4528 10.9713 18.3699C10.9713 18.287 10.9384 18.2075 10.8798 18.1489C10.8212 18.0903 10.7417 18.0574 10.6588 18.0574ZM13.2292 18.0574H11.9116C11.8287 18.0574 11.7492 18.0903 11.6906 18.1489C11.632 18.2075 11.5991 18.287 11.5991 18.3699C11.5991 18.4528 11.632 18.5322 11.6906 18.5909C11.7492 18.6495 11.8287 18.6824 11.9116 18.6824H13.2292C13.3121 18.6824 13.3915 18.6495 13.4502 18.5909C13.5088 18.5322 13.5417 18.4528 13.5417 18.3699C13.5417 18.287 13.5088 18.2075 13.4502 18.1489C13.3915 18.0903 13.3121 18.0574 13.2292 18.0574ZM15.7995 18.0574H14.4819C14.399 18.0574 14.3195 18.0903 14.2609 18.1489C14.2023 18.2075 14.1694 18.287 14.1694 18.3699C14.1694 18.4528 14.2023 18.5322 14.2609 18.5909C14.3195 18.6495 14.399 18.6824 14.4819 18.6824H15.7995C15.8824 18.6824 15.9619 18.6495 16.0205 18.5909C16.0791 18.5322 16.112 18.4528 16.112 18.3699C16.112 18.287 16.0791 18.2075 16.0205 18.1489C15.9619 18.0903 15.8824 18.0574 15.7995 18.0574ZM18.3699 5.83063C18.4528 5.83063 18.5322 5.7977 18.5909 5.7391C18.6495 5.68049 18.6824 5.60101 18.6824 5.51813V4.20051C18.6824 4.11763 18.6495 4.03814 18.5909 3.97954C18.5322 3.92093 18.4528 3.88801 18.3699 3.88801C18.287 3.88801 18.2075 3.92093 18.1489 3.97954C18.0903 4.03814 18.0574 4.11763 18.0574 4.20051V5.51813C18.0574 5.60101 18.0903 5.68049 18.1489 5.7391C18.2075 5.7977 18.287 5.83063 18.3699 5.83063ZM18.0574 8.08844C18.0574 8.17132 18.0903 8.2508 18.1489 8.30941C18.2075 8.36801 18.287 8.40094 18.3699 8.40094C18.4528 8.40094 18.5322 8.36801 18.5909 8.30941C18.6495 8.2508 18.6824 8.17132 18.6824 8.08844V6.77082C18.6824 6.68794 18.6495 6.60845 18.5909 6.54985C18.5322 6.49124 18.4528 6.45832 18.3699 6.45832C18.287 6.45832 18.2075 6.49124 18.1489 6.54985C18.0903 6.60845 18.0574 6.68794 18.0574 6.77082V8.08844ZM18.0574 10.6588C18.0574 10.7417 18.0903 10.8212 18.1489 10.8798C18.2075 10.9384 18.287 10.9713 18.3699 10.9713C18.4528 10.9713 18.5322 10.9384 18.5909 10.8798C18.6495 10.8212 18.6824 10.7417 18.6824 10.6588V9.34121C18.6824 9.25833 18.6495 9.17885 18.5909 9.12024C18.5322 9.06164 18.4528 9.02871 18.3699 9.02871C18.287 9.02871 18.2075 9.06164 18.1489 9.12024C18.0903 9.17885 18.0574 9.25833 18.0574 9.34121V10.6588ZM18.0574 13.2292C18.0574 13.3121 18.0903 13.3915 18.1489 13.4502C18.2075 13.5088 18.287 13.5417 18.3699 13.5417C18.4528 13.5417 18.5322 13.5088 18.5909 13.4502C18.6495 13.3915 18.6824 13.3121 18.6824 13.2292V11.9116C18.6824 11.8287 18.6495 11.7492 18.5909 11.6906C18.5322 11.632 18.4528 11.5991 18.3699 11.5991C18.287 11.5991 18.2075 11.632 18.1489 11.6906C18.0903 11.7492 18.0574 11.8287 18.0574 11.9116V13.2292ZM18.0574 15.7995C18.0574 15.8824 18.0903 15.9619 18.1489 16.0205C18.2075 16.0791 18.287 16.112 18.3699 16.112C18.4528 16.112 18.5322 16.0791 18.5909 16.0205C18.6495 15.9619 18.6824 15.8824 18.6824 15.7995V14.4819C18.6824 14.399 18.6495 14.3195 18.5909 14.2609C18.5322 14.2023 18.4528 14.1694 18.3699 14.1694C18.287 14.1694 18.2075 14.2023 18.1489 14.2609C18.0903 14.3195 18.0574 14.399 18.0574 14.4819V15.7995ZM1.63012 5.83063C1.713 5.83063 1.79248 5.7977 1.85109 5.7391C1.90969 5.68049 1.94262 5.60101 1.94262 5.51813V4.20051C1.94262 4.11763 1.90969 4.03814 1.85109 3.97954C1.79248 3.92093 1.713 3.88801 1.63012 3.88801C1.54724 3.88801 1.46775 3.92093 1.40915 3.97954C1.35054 4.03814 1.31762 4.11763 1.31762 4.20051V5.51813C1.31762 5.60101 1.35054 5.68049 1.40915 5.7391C1.46775 5.7977 1.54724 5.83063 1.63012 5.83063ZM1.31762 8.08844C1.31762 8.17132 1.35054 8.2508 1.40915 8.30941C1.46775 8.36801 1.54724 8.40094 1.63012 8.40094C1.713 8.40094 1.79248 8.36801 1.85109 8.30941C1.90969 8.2508 1.94262 8.17132 1.94262 8.08844V6.77082C1.94262 6.68794 1.90969 6.60845 1.85109 6.54985C1.79248 6.49124 1.713 6.45832 1.63012 6.45832C1.54724 6.45832 1.46775 6.49124 1.40915 6.54985C1.35054 6.60845 1.31762 6.68794 1.31762 6.77082V8.08844ZM1.31762 10.6588C1.31762 10.7417 1.35054 10.8212 1.40915 10.8798C1.46775 10.9384 1.54724 10.9713 1.63012 10.9713C1.713 10.9713 1.79248 10.9384 1.85109 10.8798C1.90969 10.8212 1.94262 10.7417 1.94262 10.6588V9.34121C1.94262 9.25833 1.90969 9.17885 1.85109 9.12024C1.79248 9.06164 1.713 9.02871 1.63012 9.02871C1.54724 9.02871 1.46775 9.06164 1.40915 9.12024C1.35054 9.17885 1.31762 9.25833 1.31762 9.34121V10.6588ZM1.31762 13.2292C1.31762 13.3121 1.35054 13.3915 1.40915 13.4502C1.46775 13.5088 1.54724 13.5417 1.63012 13.5417C1.713 13.5417 1.79248 13.5088 1.85109 13.4502C1.90969 13.3915 1.94262 13.3121 1.94262 13.2292V11.9116C1.94262 11.8287 1.90969 11.7492 1.85109 11.6906C1.79248 11.632 1.713 11.5991 1.63012 11.5991C1.54724 11.5991 1.46775 11.632 1.40915 11.6906C1.35054 11.7492 1.31762 11.8287 1.31762 11.9116V13.2292ZM1.31762 15.7995C1.31762 15.8824 1.35054 15.9619 1.40915 16.0205C1.46775 16.0791 1.54724 16.112 1.63012 16.112C1.713 16.112 1.79248 16.0791 1.85109 16.0205C1.90969 15.9619 1.94262 15.8824 1.94262 15.7995V14.4819C1.94262 14.399 1.90969 14.3195 1.85109 14.2609C1.79248 14.2023 1.713 14.1694 1.63012 14.1694C1.54724 14.1694 1.46775 14.2023 1.40915 14.2609C1.35054 14.3195 1.31762 14.399 1.31762 14.4819V15.7995Z" fill="#969BA9"/>
</g>
<defs>
<clipPath id="clip0_392_742">
<rect width="20" height="20" fill="white"/>
</clipPath>
</defs>
</svg>
