<svg xmlns="http://www.w3.org/2000/svg" xmlns:xlink="http://www.w3.org/1999/xlink" width="276.4" height="468.67" version="1.1" viewBox="0 0 276.4 468.67">
 <defs>
  <linearGradient id="linearGradient12" x2="1" gradientTransform="matrix(0 -355.79 -355.79 0 15.1 355.56)" gradientUnits="userSpaceOnUse">
   <stop style="stop-color:#ba956d" offset="0"/>
   <stop style="stop-color:#bb986e" offset=".015804"/>
   <stop style="stop-color:#c2a673" offset=".1116"/>
   <stop style="stop-color:#c5ab74" offset=".1841"/>
   <stop style="stop-color:#b09567" offset=".2497"/>
   <stop style="stop-color:#917553" offset=".3873"/>
   <stop style="stop-color:#806447" offset=".5062"/>
   <stop style="stop-color:#7a5e43" offset=".592"/>
   <stop style="stop-color:#7f6247" offset=".6799"/>
   <stop style="stop-color:#906f51" offset=".7917"/>
   <stop style="stop-color:#ac8762" offset=".916"/>
   <stop style="stop-color:#c89e73" offset="1"/>
  </linearGradient>
  <linearGradient id="linearGradient24" x2="1" gradientTransform="matrix(0 -355.79 -355.79 0 35.65 355.56)" gradientUnits="userSpaceOnUse">
   <stop style="stop-color:#ba956d" offset="0"/>
   <stop style="stop-color:#bb986e" offset=".015804"/>
   <stop style="stop-color:#c2a673" offset=".1116"/>
   <stop style="stop-color:#c5ab74" offset=".1841"/>
   <stop style="stop-color:#b09567" offset=".2497"/>
   <stop style="stop-color:#917553" offset=".3873"/>
   <stop style="stop-color:#806447" offset=".5062"/>
   <stop style="stop-color:#7a5e43" offset=".592"/>
   <stop style="stop-color:#7f6247" offset=".6799"/>
   <stop style="stop-color:#906f51" offset=".7917"/>
   <stop style="stop-color:#ac8762" offset=".916"/>
   <stop style="stop-color:#c89e73" offset="1"/>
  </linearGradient>
  <linearGradient id="linearGradient36" x2="1" gradientTransform="matrix(0 -355.79 -355.79 0 76.65 355.56)" gradientUnits="userSpaceOnUse">
   <stop style="stop-color:#ba956d" offset="0"/>
   <stop style="stop-color:#bb986e" offset=".015804"/>
   <stop style="stop-color:#c2a673" offset=".1116"/>
   <stop style="stop-color:#c5ab74" offset=".1841"/>
   <stop style="stop-color:#b09567" offset=".2497"/>
   <stop style="stop-color:#917553" offset=".3873"/>
   <stop style="stop-color:#806447" offset=".5062"/>
   <stop style="stop-color:#7a5e43" offset=".592"/>
   <stop style="stop-color:#7f6247" offset=".6799"/>
   <stop style="stop-color:#906f51" offset=".7917"/>
   <stop style="stop-color:#ac8762" offset=".916"/>
   <stop style="stop-color:#c89e73" offset="1"/>
  </linearGradient>
  <linearGradient id="linearGradient48" x2="1" gradientTransform="matrix(0 -355.79 -355.79 0 186.15 355.56)" gradientUnits="userSpaceOnUse">
   <stop style="stop-color:#ba956d" offset="0"/>
   <stop style="stop-color:#bb986e" offset=".015804"/>
   <stop style="stop-color:#c2a673" offset=".1116"/>
   <stop style="stop-color:#c5ab74" offset=".1841"/>
   <stop style="stop-color:#b09567" offset=".2497"/>
   <stop style="stop-color:#917553" offset=".3873"/>
   <stop style="stop-color:#806447" offset=".5062"/>
   <stop style="stop-color:#7a5e43" offset=".592"/>
   <stop style="stop-color:#7f6247" offset=".6799"/>
   <stop style="stop-color:#906f51" offset=".7917"/>
   <stop style="stop-color:#ac8762" offset=".916"/>
   <stop style="stop-color:#c89e73" offset="1"/>
  </linearGradient>
  <linearGradient id="linearGradient60" x2="1" gradientTransform="matrix(0 -355.79 -355.79 0 135.15 355.56)" gradientUnits="userSpaceOnUse">
   <stop style="stop-color:#ba956d" offset="0"/>
   <stop style="stop-color:#bb986e" offset=".015804"/>
   <stop style="stop-color:#c2a673" offset=".1116"/>
   <stop style="stop-color:#c5ab74" offset=".1841"/>
   <stop style="stop-color:#b09567" offset=".2497"/>
   <stop style="stop-color:#917553" offset=".3873"/>
   <stop style="stop-color:#806447" offset=".5062"/>
   <stop style="stop-color:#7a5e43" offset=".592"/>
   <stop style="stop-color:#7f6247" offset=".6799"/>
   <stop style="stop-color:#906f51" offset=".7917"/>
   <stop style="stop-color:#ac8762" offset=".916"/>
   <stop style="stop-color:#c89e73" offset="1"/>
  </linearGradient>
  <radialGradient id="radialGradient75" cx="0" cy="0" r="1" gradientTransform="matrix(0 -267.95 -90.734 0 104.06 316.66)" gradientUnits="userSpaceOnUse">
   <stop style="stop-color:#a6816a" offset="0"/>
   <stop style="stop-color:#a8846b" offset=".0033227"/>
   <stop style="stop-color:#b4946f" offset=".023702"/>
   <stop style="stop-color:#bda172" offset=".047385"/>
   <stop style="stop-color:#c3a974" offset=".077129"/>
   <stop style="stop-color:#c5ab74" offset=".1322"/>
   <stop style="stop-color:#ad9064" offset=".2896"/>
   <stop style="stop-color:#8c6c4d" offset=".5751"/>
   <stop style="stop-color:#927151" offset=".647"/>
   <stop style="stop-color:#a5805d" offset=".7384"/>
   <stop style="stop-color:#c89e73" offset=".8395"/>
   <stop style="stop-color:#ca9e72" offset=".9272"/>
   <stop style="stop-color:#d0a071" offset=".9624"/>
   <stop style="stop-color:#dba46e" offset=".988"/>
   <stop style="stop-color:#e4a86b" offset="1"/>
  </radialGradient>
 </defs>
 <g>
  <path transform="matrix(1.3333 0 0 -1.3333 0 468.67)" d="m0 47.6v-47.5h30.2v12h-16.9v35.5z" style="fill:url(#linearGradient12)"/>
  <path transform="matrix(1.3333 0 0 -1.3333 0 468.67)" d="m29.5 48.8v-11.7h5.9c0-2.9-1.7-5.3-5.4-5.6v-6.2c7 0.6 11.8 5.5 11.8 12.9v10.6z" style="fill:url(#linearGradient24)"/>
  <path transform="matrix(1.3333 0 0 -1.3333 0 468.67)" d="m87.9 47.6-11.3-25.8-11.2 25.8h-13.1l-7.1-47.5h13.2l3.7 27.4 12.6-27.5h3.9l12.5 27.5 3.8-27.4h13.2l-7.2 47.5z" style="fill:url(#linearGradient36)"/>
  <path transform="matrix(1.3333 0 0 -1.3333 0 468.67)" d="m190.7 47.6-12.6-20v20h-13.1v-47.5h13.1v21l13.7-21h15.5l-16.6 24.5 15.2 23z" style="fill:url(#linearGradient48)"/>
  <path transform="matrix(1.3333 0 0 -1.3333 0 468.67)" d="m128.6 47.6-18.7-47.5h14.1l11 32.7 11.1-32.7h14.3v0.248l-19 47.252z" style="fill:url(#linearGradient60)"/>
  <path transform="matrix(1.3333 0 0 -1.3333 0 468.67)" d="m106.6 317.6 4.3-199v-1.4l14.7-0.9 0.2-9.7v-1.5l29.8-13.4 2.5 0.1v0.9l3.4 258.7zm6.9-198.2 3.1 195.8 34.8 22.3 4.3-243.3-27.2 12.2v0.5l0.1 9.2 14.9-1v3.7l3.2 207.9-10.2-6.2 4.4-202.9-12.2 0.8 2.9 199.2-10.1-6.1 4.3-192.8zm-67.8 232v-7.283l3.4-251.32v-0.9l2.5-0.1 29.8 13.4v1.5l0.2 9.7 14.7 0.9v1.4l4.3 199-54.836 33.7zm10.3-13.9 34.8-22.3 3.1-195.8-12.1-0.8 4.3 192.8-10.1 6.1 2.9-199.2-12.2-0.8 4.4 202.9-10.2 6.2 3.2-207.9v-3.7l14.9 1 0.1-9.2v-0.5l-27.4-12.1z" style="fill:url(#radialGradient75)"/>
 </g>
</svg>